<svg width="325" height="322" viewBox="0 0 325 322" fill="none" xmlns="http://www.w3.org/2000/svg">
<g clip-path="url(#clip0_678_10679)">
<path d="M140.72 256.059C124.508 261.55 108.038 266.148 91.4696 270.415C90.2147 270.738 88.9351 270.976 87.6515 271.152C81.8156 271.955 78.1205 270.042 75.5409 264.673C62.5855 237.688 49.745 210.649 37.3474 183.401C27.4391 161.615 17.8794 139.683 8.89393 117.5C5.4121 108.902 2.0943 100.247 0.384145 91.0758C-0.772366 84.8304 0.482571 82.6174 6.51529 80.3266C26.8034 72.6182 47.4156 65.9097 68.3763 60.2749C90.0014 54.4597 111.864 49.7552 133.982 46.2391C145.309 44.44 156.657 42.809 168.074 41.7271C174.041 41.1616 176.17 42.6697 177.626 48.4356C179.844 57.2259 182.038 66.0244 184.159 74.8352C189.055 95.1779 193.546 115.615 197.717 136.117C201.658 155.489 205.251 174.926 208.613 194.404C207.498 195.715 205.591 195.551 204.369 196.682C203.516 197.473 202.974 197.346 202.13 196.387C198.984 192.822 194.949 191.691 190.31 192.621C189.039 192.92 188.539 192.363 188.276 191.117C187.558 187.72 186.771 184.335 185.893 180.975C184.347 175.057 183.958 173.856 176.649 176.373C173.754 177.368 171.031 178.819 168.049 179.626C163.78 180.782 162.857 182.532 164.338 186.708C165.589 190.236 166.975 193.72 168.62 197.088C165.453 197.6 162.685 198.801 160.442 201.227C158.08 203.784 157.247 206.936 156.558 210.485C155.939 208.805 155.426 207.411 154.914 206.022C155.586 204.436 157.264 203.256 156.993 201.301C156.259 196.035 155.418 190.789 153.847 185.687C153.396 184.229 152.51 183.663 151.079 184.052C149.377 184.519 147.696 185.073 146.006 185.589C144.066 182.737 142.578 179.639 141.048 176.565C141.618 176.348 142.176 176.098 142.758 175.922C147.187 174.606 147.281 174.434 146.338 169.91C145.313 164.988 144.378 160.046 143.291 155.136C142.791 152.887 141.277 151.719 139.584 152.305C134.453 154.079 129.241 155.616 124.229 157.722C121.043 157.026 119.48 158.136 118.885 161.587C118.151 165.845 118.734 170.008 119.948 174.102C121.822 180.413 125.082 186.11 127.904 192.003C133.219 203.096 136.955 214.767 140.26 226.578C141.819 232.143 143.668 237.63 144.825 243.306C143.537 243.322 143.508 244.146 143.681 245.093C142.635 245.494 142.229 246.461 141.786 247.343C140.396 250.121 140.26 253.059 140.72 256.059ZM88.2051 203.715C87.9304 203.743 87.4997 203.715 87.1224 203.842C81.5901 205.723 76.0413 207.559 70.554 209.554C68.1548 210.427 67.5807 212.263 68.5445 214.681C69.3483 216.697 70.0578 218.75 70.8657 220.767C75.9264 233.442 82.1478 245.601 87.4669 258.161C88.4799 260.546 89.4642 260.956 91.7936 259.944C95.9849 258.129 100.369 256.879 104.638 255.28C106.693 254.514 107.382 253.305 106.861 251.195C106.681 250.469 106.459 249.756 106.221 249.047C103.908 242.232 101.616 235.413 99.2576 228.614C96.6124 220.984 94.1476 213.292 91.2564 205.743C90.6904 204.293 89.7759 203.731 88.2051 203.715ZM167.512 82.724C165.901 75.4991 165.314 68.0612 163.292 60.9019C161.697 55.2466 158.966 53.6688 153.257 54.804C143.898 56.6645 134.531 58.4676 125.164 60.279C113.386 62.5534 101.644 64.9835 90.0137 67.9464C76.5498 71.3765 63.2089 75.2327 49.8885 79.1669C41.4649 81.6544 33.0371 84.1255 24.6299 86.6622C19.4543 88.2236 17.3832 91.5225 19.1385 96.4483C21.5622 103.239 24.0475 110.033 27.152 116.553C28.9032 120.233 32.221 121.869 36.2565 121.405C38.0118 121.201 39.7711 120.881 41.4854 120.442C56.4626 116.598 70.9723 111.185 85.9495 107.312C94.447 105.116 102.768 102.263 111.311 100.194C117.401 98.7186 123.536 97.4442 129.565 95.7066C137.152 93.5182 144.747 91.3504 152.461 89.6169C156.64 88.6784 160.975 88.4039 164.97 86.6622C166.721 85.8959 167.853 84.8427 167.512 82.724ZM175.136 142.957C175.034 142.969 174.689 142.978 174.361 143.068C168.689 144.58 163.001 146.031 157.362 147.658C154.434 148.502 153.667 149.993 154.598 152.973C156.308 158.435 158.207 163.841 159.962 169.291C160.368 170.557 161.032 170.75 162.259 170.557C168.226 169.615 173.939 167.849 179.475 165.472C180.714 164.939 181.28 164.054 181.095 162.734C180.246 156.649 178.885 150.661 177.556 144.666C177.314 143.535 176.613 142.875 175.136 142.957ZM126.263 120.557C123.77 120.508 110.367 124.413 108.284 125.803C106.91 126.717 106.443 127.979 107.013 129.524C109.145 135.261 111.307 140.99 113.464 146.719C114.087 148.379 115.297 148.78 116.913 148.28C118.861 147.682 120.809 147.072 122.769 146.506C125.792 145.633 128.691 144.453 131.443 142.928C132.833 142.158 133.957 141.076 133.649 139.351C132.628 133.585 131.341 127.88 129.171 122.418C128.667 121.143 127.617 120.574 126.263 120.557ZM151.797 136.994C152.601 136.859 153.413 136.765 154.204 136.576C158.658 135.527 162.923 133.872 167.278 132.511C169.797 131.724 170.17 131.101 169.715 128.454C168.845 123.418 167.935 118.393 167.041 113.361C166.528 110.472 165.773 109.878 162.915 110.214C162.242 110.292 161.557 110.419 160.918 110.64C155.709 112.459 150.489 114.254 145.313 116.172C142.717 117.135 142.393 118.135 143.34 120.774C144.952 125.262 146.646 129.72 148.102 134.261C148.733 136.228 149.734 137.167 151.797 136.994ZM51.7668 168.582C51.775 168.582 52.1811 168.541 52.583 168.459C57.2746 167.492 61.6341 165.517 66.1371 163.98C67.8555 163.394 68.3148 161.874 67.8473 160.107C66.5595 155.239 65.0831 150.432 63.4509 145.666C61.794 140.822 61.6669 140.937 57.1844 142.625C52.4066 144.424 47.5878 146.117 42.8223 147.94C40.2058 148.94 39.9557 149.965 41.309 152.424C42.3917 154.391 43.3432 156.419 44.147 158.526C45.1846 161.255 46.1114 164.042 47.6452 166.562C48.5065 167.976 49.7081 168.685 51.7668 168.582ZM74.6428 139.498C76.1069 145.363 77.7432 151.186 79.7528 156.89C80.1178 157.927 81.1553 158.341 82.3159 157.935C87.7745 156.022 93.2413 154.116 98.6916 152.182C100.316 151.604 100.878 150.383 100.41 148.76C98.7573 143.006 97.0717 137.265 95.3821 131.524C95.0458 130.376 94.2748 129.806 93.0526 130.147C87.4013 131.728 81.9181 133.773 76.6728 136.408C75.4794 137.015 74.5772 137.957 74.6428 139.498ZM94.1066 188.868C94.242 188.859 94.3855 188.872 94.5126 188.835C99.4709 187.355 104.437 185.892 109.383 184.372C110.515 184.024 110.962 183.114 110.753 181.95C109.679 175.918 108.6 169.885 107.501 163.857C107.197 162.189 106.176 161.583 104.519 162.013C98.6957 163.525 93.0936 165.64 87.6187 168.115C86.376 168.676 85.8347 169.607 86.2817 170.922C88.1518 176.397 90.0465 181.864 91.9453 187.327C92.298 188.335 92.9952 188.904 94.1066 188.868ZM79.2565 189.359C78.0221 183.794 76.6072 177.84 74.8848 171.963C74.6346 171.107 74.1014 170.865 73.1541 171.143C67.3428 172.861 61.507 174.5 55.6875 176.2C54.006 176.692 53.3499 177.889 54.0101 179.524C56.1714 184.892 58.3737 190.244 60.6334 195.572C61.3019 197.146 62.5855 197.809 64.308 197.236C68.5732 195.814 72.8383 194.388 77.0911 192.929C78.5552 192.429 79.2483 191.33 79.2565 189.359ZM54.4203 129.425C55.6793 129.216 57.3689 129.011 59.0258 128.643C64.0496 127.524 68.7618 125.631 73.0188 122.705C74.0317 122.008 75.1144 121.155 74.6428 119.717C74.1794 118.299 72.8219 118.484 71.69 118.512C68.2656 118.598 64.9765 119.422 61.712 120.418C58.3081 121.455 54.9493 122.561 52.2754 125.049C51.3854 125.876 50.3315 126.782 50.9671 128.188C51.5372 129.446 52.829 129.356 54.4203 129.425ZM123.097 210.976C123.097 210.968 123.019 210.423 122.855 209.907C121.736 206.333 120.6 202.76 119.468 199.19C117.622 193.396 117.918 193.715 112.521 195.49C108.637 196.769 104.765 198.084 100.906 199.44C99.3683 199.981 98.1544 200.875 98.8762 202.789C100.627 207.452 102.801 211.931 105.077 216.353C105.672 217.513 106.685 218.546 108.194 218.226C112.947 217.222 117.54 215.714 121.941 213.644C122.855 213.214 123.27 212.517 123.097 210.976ZM118.43 247.453C118.59 247.437 118.873 247.445 119.132 247.375C123.364 246.232 127.28 244.33 131.127 242.281C132.009 241.81 132.276 240.905 132.05 239.978C130.803 234.897 129.52 229.823 128.228 224.75C127.92 223.545 127.096 223.131 125.894 223.41C120.764 224.598 115.92 226.586 111.147 228.754C109.789 229.373 109.264 230.422 109.81 231.934C111.446 236.479 113.185 240.978 115.104 245.412C115.715 246.843 116.81 247.461 118.43 247.453ZM31.2285 135.224C31.2162 138.052 33.1478 139.994 35.9448 139.965C38.873 139.937 41.2106 137.49 41.268 134.384C41.3213 131.614 39.0985 129.225 36.5107 129.278C33.2504 129.347 31.3639 132.503 31.2285 135.224ZM3.71014 89.4898C4.05463 93.3543 5.32187 96.9319 7.40113 100.186C8.06961 101.231 8.90213 103.12 10.399 102.206C11.8836 101.3 10.682 99.7555 9.99713 98.6121C7.85635 95.0468 6.12569 91.4856 8.88983 87.408C9.40247 86.654 9.22202 85.65 8.51663 84.9451C7.71281 84.1419 6.82287 84.605 6.06827 85.023C4.34171 85.9819 3.65682 87.5392 3.71014 89.4898ZM164.465 93.4936C164.248 92.5019 163.546 92.5183 162.751 92.7437C159.544 93.6617 156.329 94.5345 153.142 95.514C147.868 97.1327 142.606 98.7965 137.361 100.493C136.602 100.739 135.269 100.854 135.622 102.046C135.995 103.288 137.082 102.583 137.878 102.321C139.818 101.686 141.729 100.964 143.681 100.374C150.062 98.44 156.456 96.5385 162.853 94.6493C163.53 94.4485 164.17 94.2846 164.465 93.4936ZM141.507 106.394C141.634 106.349 141.761 106.3 141.893 106.259C146.748 104.69 151.608 103.12 156.464 101.546C157.157 101.321 157.817 100.956 157.46 100.096C157.087 99.2063 156.304 99.5956 155.689 99.7923C151.998 100.985 148.315 102.202 144.632 103.419C143.467 103.804 142.307 104.198 141.159 104.632C140.716 104.8 140.252 105.083 140.424 105.689C140.564 106.202 140.945 106.464 141.507 106.394Z" fill="#982176"/>
<path d="M243.459 155.045C238.386 155.808 233.518 155.066 228.945 152.779C225.968 151.292 224.43 148.62 223.979 145.436C220.78 122.933 215.096 100.91 211.134 78.5595C209.764 70.8388 208.403 63.0976 208.337 55.2211C208.272 47.5742 210.576 44.3326 217.782 41.8C226.575 38.7101 235.659 37.411 244.956 37.7143C246.391 37.7593 247.175 37.5176 247.007 35.9398C248.147 36.1078 248.704 35.6529 248.598 34.4686C248.499 33.3826 248.405 32.2925 248.303 31.2066C247.773 25.6455 246.449 20.1746 246.367 14.5562C246.334 12.208 247.002 10.2491 249.041 8.92548C250.361 8.06899 251.801 7.45428 253.289 6.94612C259.375 4.87661 265.601 3.37672 271.99 2.65137C280.849 1.64735 289.703 1.37687 298.439 3.65129C302.946 4.82333 305.472 7.8272 306.116 12.3965C306.366 14.171 306.37 15.9331 306.313 17.7035C306.284 18.5354 306.194 19.3673 307.1 19.8509C307.051 20.5107 307.002 21.1704 306.948 21.8302C305.562 23.0064 305.341 25.7275 306.489 27.4691C306.313 28.6166 306.132 29.7641 305.96 30.9033C304.865 31.0304 304.397 31.6123 304.25 32.7556C303.778 36.3332 303.249 39.9108 302.597 43.4597C299.624 59.6593 296.802 75.8876 293.324 91.9929C293.148 92.8166 293.058 93.6198 293.812 94.2427C293.616 95.2058 293.423 96.1647 293.226 97.1278C291.126 98.4104 290.683 100.291 292.078 102.025C291.905 104.025 291.352 105.939 290.79 107.848C290.023 108.02 289.744 108.561 289.547 109.278C287.784 115.77 286.004 122.257 284.183 128.732C283.933 129.625 283.851 130.326 284.798 130.793C283.338 134.539 280.504 136.883 276.805 138.055C272.15 139.53 267.41 140.85 262.455 139.354C262.738 133.629 263.719 127.982 264.317 122.29C265.277 113.208 266.335 104.14 267.311 95.0582C267.397 94.2714 267.832 93.042 266.458 92.9559C265.097 92.8699 265.408 94.1444 265.322 94.9394C263.673 109.496 262.013 124.048 260.446 138.612C259.888 143.784 258.551 148.427 253.503 151.021C251.198 152.206 248.819 153.234 246.244 153.718C245.44 153.869 244.566 153.931 244.382 154.988C244.054 155.004 243.726 155.025 243.402 155.041C243.406 155.041 243.459 155.045 243.459 155.045ZM267.045 67.3841C266.901 71.0601 266.696 76.3097 266.483 81.5552C266.454 82.2928 266.179 83.2764 267.205 83.3829C268.427 83.5099 268.25 82.3953 268.299 81.6166C268.488 78.4857 268.664 75.3548 268.824 72.2239C269.243 64.0401 269.173 55.8604 268.181 47.7176C267.779 44.4023 266.442 41.4394 263.21 39.9723C259.716 38.3863 255.943 37.7061 252.129 37.325C251.481 37.2594 250.628 37.0873 250.534 38.0913C250.431 39.165 251.317 39.2101 252.063 39.2961C254.302 39.5584 256.492 40.0829 258.703 40.4763C263.083 41.255 265.716 43.6195 266.294 48.0577C267.065 53.9507 267.036 59.8847 267.045 67.3841ZM271.97 21.7401C274.308 21.8712 276.612 21.5393 278.921 21.318C286.816 20.5721 294.296 18.351 301.416 14.9004C302.088 14.5726 303.192 14.2734 302.683 13.1793C302.244 12.2408 301.416 12.7203 300.739 13.0481C287.464 19.4739 273.59 21.3549 259.121 18.392C256.205 17.7937 253.146 17.2117 251.633 14.0603C251.346 13.4661 250.78 13.3473 250.242 13.63C249.607 13.9661 249.808 14.5111 250.025 15.048C250.94 17.3552 252.883 18.4985 255.041 19.2485C260.516 21.1582 266.237 21.5188 271.97 21.7401ZM235.446 59.897C241.023 59.8765 246.231 59.3765 251.276 57.7578C255.771 56.3112 259.814 54.1515 262.492 50.0494C262.886 49.447 263.464 48.6642 262.509 48.1192C261.68 47.6479 261.303 48.5003 260.938 49.0249C258.736 52.164 255.656 54.1474 252.125 55.3605C240.88 59.2249 229.61 58.7168 218.385 55.2211C216.412 54.6064 214.674 53.4958 213.443 51.7583C213.041 51.1927 212.689 50.4346 211.877 50.9714C210.999 51.5534 211.507 52.2992 211.938 52.9139C213.316 54.8933 215.268 56.1145 217.487 56.9177C223.384 59.0487 229.507 59.8273 235.446 59.897ZM268.373 32.8868C278.893 32.6532 289.088 30.8172 298.828 26.7069C299.554 26.3996 300.452 26.1783 300.128 25.248C299.722 24.0842 298.779 24.6989 298.057 24.9898C291.832 27.4896 285.393 29.2887 278.753 30.1452C270.887 31.1615 262.989 31.7639 255.27 29.0551C254.544 28.801 253.568 28.1453 253.142 29.2395C252.666 30.4566 253.884 30.6697 254.672 30.932C259.113 32.4155 263.694 32.9933 268.373 32.8868ZM230.557 71.2855C232.115 71.1789 234.162 71.0806 236.196 70.8839C241.503 70.3757 246.711 69.3225 251.838 67.8677C252.449 67.6956 253.38 67.5521 253.158 66.626C252.908 65.581 251.936 65.9211 251.264 66.0564C249.393 66.4334 247.548 66.9456 245.686 67.3636C235.355 69.6667 225.053 70.4823 214.858 66.6711C214.112 66.3924 213.103 65.876 212.746 66.9538C212.41 67.9661 213.48 68.1873 214.239 68.4906C219.32 70.5314 224.651 71.1174 230.557 71.2855ZM233.297 94.128C238.919 94.4312 245.866 93.2018 252.703 91.1897C253.937 90.825 255.123 90.2881 256.32 89.8127C256.755 89.6406 256.931 89.2882 256.825 88.8251C256.689 88.2555 256.279 88.0506 255.75 88.1325C255.352 88.194 254.967 88.3456 254.581 88.4809C245.985 91.5052 237.164 92.8084 228.064 91.8782C225.628 91.6282 223.204 91.2471 220.772 90.9397C220.116 90.8577 219.287 90.6283 219.103 91.5749C218.914 92.5338 219.8 92.5789 220.419 92.792C220.673 92.8781 220.94 92.9437 221.207 93.001C224.684 93.71 228.211 93.9723 233.297 94.128ZM235.282 129.33C242.877 129.273 249.832 127.646 256.759 125.859C257.468 125.675 258.19 125.453 257.957 124.564C257.723 123.663 256.915 123.851 256.25 124.007C254.594 124.392 252.953 124.831 251.296 125.216C243.004 127.146 234.687 128.392 226.255 126.052C225.578 125.863 224.992 125.867 224.791 126.646C224.59 127.437 225.181 127.711 225.8 127.912C229.011 128.949 232.325 129.228 235.282 129.33ZM272.286 44.5252C276.165 44.2629 280.004 43.6728 283.814 42.9352C289.309 41.8656 294.629 40.1854 299.788 38.0134C300.477 37.7225 301.629 37.5012 301.211 36.407C300.772 35.2554 299.857 35.9644 299.127 36.2267C296.564 37.1405 294.03 38.1487 291.438 38.9683C285.18 40.9394 278.77 42.1238 272.212 42.5254C271.449 42.5704 270.342 42.4885 270.489 43.7097C270.604 44.6973 271.523 44.6031 272.286 44.5252ZM232.768 107.27C235.659 107.119 238.456 107.074 241.208 106.541C244.009 106 246.81 105.443 249.603 104.861C250.312 104.713 251.292 104.607 251.116 103.586C250.899 102.349 249.845 102.881 249.11 102.955C248.438 103.021 247.79 103.271 247.126 103.422C239.567 105.144 231.972 106.107 224.266 104.389C223.548 104.23 222.671 103.75 222.392 104.803C222.133 105.783 223.052 105.947 223.778 106.189C226.743 107.18 229.823 107.049 232.768 107.27ZM230.582 115.495C229.015 115.38 227.453 115.253 225.886 115.159C225.279 115.122 224.541 115.04 224.426 115.876C224.299 116.819 225.074 116.934 225.755 117.061C225.956 117.098 226.161 117.106 226.366 117.126C230.381 117.589 234.4 117.663 238.407 117.114C240.769 116.79 243.111 116.352 245.46 115.95C246.293 115.807 247.31 115.548 247.06 114.528C246.797 113.458 245.752 113.881 244.964 114.028C244.833 114.053 244.706 114.122 244.575 114.151C239.973 115.208 235.306 115.651 230.582 115.495ZM276.059 57.8111C282.35 56.9915 288.592 55.6227 294.69 53.5901C295.322 53.377 295.867 52.9795 295.588 52.25C295.256 51.3813 294.534 51.6312 293.849 51.8443C287.854 53.7089 281.784 55.2375 275.522 55.8973C274.771 55.9752 273.836 56.1145 274.066 57.1595C274.295 58.2004 275.288 57.6963 276.059 57.8111ZM229.286 53.9876C229.798 53.7171 231.144 54.5531 231.23 53.2172C231.316 51.8853 229.975 52.2541 229.191 52.2255C225.783 52.1107 222.63 51.1395 219.644 49.5699C218.582 49.0126 217.684 48.2585 217.991 46.8488C218.151 46.1153 218.939 45.0662 217.639 44.9022C216.552 44.7629 216.101 45.9227 216.031 46.898C215.883 49.0331 217.233 50.2666 218.91 51.2091C222.06 52.9754 225.48 53.7745 229.286 53.9876ZM275.079 80.334C280.184 80.0266 285.618 78.7111 291.007 77.1867C291.692 76.9941 292.631 76.8096 292.426 75.781C292.242 74.8508 291.446 74.9614 290.774 75.1786C285.426 76.9244 279.955 78.0063 274.34 78.3833C273.664 78.4284 272.831 78.5964 272.88 79.4816C272.934 80.4979 273.762 80.5307 275.079 80.334ZM236.955 138.895C240.371 138.76 243.742 138.346 247.031 137.342C247.798 137.108 248.61 136.821 248.315 135.887C248.061 135.08 247.257 135.231 246.555 135.44C241.097 137.063 235.581 137.403 229.995 136.141C229.364 135.998 228.671 135.977 228.474 136.744C228.252 137.625 228.884 137.932 229.638 138.059C232.062 138.457 234.478 138.924 236.955 138.895ZM276.99 68.4414C282.018 67.9128 286.996 67.1669 291.725 65.2368C292.324 64.9909 292.959 64.7532 292.771 63.9786C292.574 63.1713 291.905 63.2451 291.278 63.45C286.209 65.1302 281.062 66.4047 275.69 66.5768C275.05 66.5973 274.41 66.876 274.517 67.6792C274.603 68.3267 275.165 68.4742 275.763 68.4455C276.17 68.4291 276.58 68.4414 276.99 68.4414ZM232.612 81.7109C235.22 81.6494 237.779 81.2806 240.318 80.7028C240.982 80.5512 241.569 80.2602 241.45 79.5225C241.306 78.6374 240.605 78.6087 239.854 78.7972C234.609 80.1168 229.343 80.3012 224.04 79.1455C223.425 79.0103 222.56 78.8095 222.363 79.7766C222.166 80.7479 223.011 80.8544 223.659 80.9978C226.612 81.6535 229.61 81.7601 232.612 81.7109ZM237.898 148.689C241.191 148.661 244.423 148.202 247.593 147.349C248.147 147.202 248.877 146.976 248.692 146.14C248.508 145.3 247.794 145.399 247.199 145.522C243.037 146.374 238.858 146.903 234.601 146.464C233.908 146.394 233.297 146.677 233.219 147.374C233.133 148.132 233.797 148.427 234.429 148.489C235.581 148.607 236.742 148.628 237.898 148.689ZM275.923 105.336C279.151 105.43 282.288 104.861 285.372 103.984C286.037 103.795 287.042 103.656 286.718 102.59C286.451 101.709 285.569 101.947 284.954 102.103C280.902 103.131 276.805 103.619 272.626 103.361C271.949 103.32 271.306 103.492 271.265 104.246C271.215 105.123 271.896 105.336 272.655 105.332C273.746 105.324 274.837 105.328 275.923 105.336ZM270.731 6.03226C274.697 5.28231 278.782 5.08561 282.871 4.98316C283.494 4.96676 283.958 4.74137 283.908 4.02421C283.867 3.4218 283.428 3.24968 282.904 3.24968C278.741 3.27017 274.591 3.51606 270.481 4.22912C269.915 4.32747 269.37 4.51598 269.456 5.23724C269.538 5.92981 270.055 6.08143 270.731 6.03226ZM272.183 116.634C276.231 116.303 280.016 115.946 283.72 115.044C284.368 114.889 285.352 114.79 285.159 113.704C285.044 113.049 284.499 112.918 283.884 113.04C279.623 113.897 275.337 114.581 270.982 114.725C270.526 114.741 270.182 114.967 270.104 115.417C270.01 115.966 270.325 116.36 270.826 116.483C271.347 116.61 271.896 116.606 272.183 116.634ZM275.489 92.6609C278.421 92.5011 281.247 92.1609 284.048 91.5872C284.774 91.4397 285.688 91.3823 285.454 90.2922C285.212 89.1612 284.314 89.6078 283.634 89.7226C280.955 90.1734 278.294 90.6569 275.563 90.7225C274.488 90.7471 272.556 90.0955 272.634 91.8249C272.692 93.3535 274.562 92.2798 275.489 92.6609ZM246.289 40.8042C245.005 40.8862 243.849 40.964 242.692 41.0337C242.065 41.0706 241.298 41.1197 241.339 41.9107C241.384 42.8368 242.204 42.7876 242.905 42.7303C245.711 42.509 248.495 42.7057 251.264 43.1442C251.92 43.2466 252.584 43.3409 252.678 42.4844C252.769 41.6648 252.071 41.5132 251.448 41.4312C249.697 41.2058 247.933 41.005 246.289 40.8042ZM278.56 126.523C275.813 127.207 272.581 127.994 269.358 128.822C268.824 128.957 268.283 129.302 268.451 129.974C268.607 130.588 269.173 130.793 269.755 130.658C272.995 129.892 276.231 129.097 279.467 128.306C280.061 128.162 280.5 127.83 280.369 127.175C280.226 126.49 279.635 126.474 278.56 126.523ZM293.534 4.31108C292.869 4.266 292.229 4.35206 292.176 5.16347C292.131 5.84375 292.668 6.03226 293.267 6.11422C293.94 6.20437 294.624 6.30683 295.264 6.51583C295.888 6.72073 296.749 6.76991 296.942 7.51165C297.179 8.42142 296.257 8.52387 295.703 8.84762C295.227 9.12628 294.649 9.40085 294.998 10.0811C295.301 10.6631 295.888 10.6508 296.433 10.4377C297.618 9.96638 298.68 9.2943 298.869 7.92965C299.058 6.5773 298.168 5.83555 297.056 5.27412C295.945 4.71269 294.76 4.45861 293.534 4.31108Z" fill="#EC255A"/>
<path d="M140.721 256.059C140.261 253.059 140.397 250.121 141.783 247.359C142.226 246.478 142.632 245.511 143.678 245.109C144.969 248.547 146.667 251.793 148.542 254.932C150.108 257.559 151.777 260.133 153.98 262.296C154.509 262.813 155.095 263.509 155.862 262.739C156.543 262.05 155.932 261.497 155.44 261.026C153.196 258.887 151.671 256.235 150.038 253.649C147.971 250.367 146.569 246.761 144.822 243.322C143.665 237.647 141.816 232.159 140.257 226.594C136.952 214.779 133.22 203.112 127.901 192.019C125.075 186.126 121.815 180.43 119.945 174.119C118.731 170.025 118.148 165.861 118.882 161.603C119.477 158.153 121.04 157.042 124.226 157.739C125.346 157.62 126.178 158.464 127.216 158.62C129.89 160.599 132.412 162.747 134.216 165.586C136.14 168.619 137.993 171.697 139.876 174.758C140.265 175.364 140.655 175.971 141.045 176.582C142.574 179.655 144.063 182.753 146.003 185.605C146.101 186.237 146.36 186.798 146.778 187.282C149.243 192.711 151.708 198.141 154.172 203.571C154.418 204.391 154.664 205.215 154.911 206.034C155.423 207.423 155.936 208.817 156.555 210.497C157.244 206.948 158.077 203.801 160.439 201.239C162.682 198.809 165.45 197.613 168.616 197.1C169.309 197.1 170.007 197.1 170.7 197.1C171.233 197.236 171.766 197.367 172.303 197.502C173.886 198.109 175.588 198.031 177.216 198.387C178.508 199.436 179.8 200.481 181.281 201.682C181.769 199.506 183.044 197.871 183.713 195.957C185.62 194.273 187.699 192.92 190.311 192.634C194.95 191.703 198.985 192.834 202.135 196.4C202.98 197.359 203.521 197.482 204.374 196.695C205.596 195.568 207.503 195.728 208.619 194.416C209.677 194.871 210.788 194.638 211.863 194.605C216.513 194.461 219.474 197.068 221.832 200.641C225.634 206.395 227.701 212.919 229.477 219.451C232.089 229.065 234.099 238.827 235.534 248.711C236.272 253.805 237.093 258.899 237.933 263.981C237.359 264.333 236.814 264.739 236.211 265.026C223.506 271.132 211.042 277.693 198.747 284.581C192.989 287.811 187.244 291.061 181.494 294.302C178.48 293.622 176.376 291.302 173.694 289.991C168.698 287.548 163.707 285.057 158.934 282.221C155.435 280.139 152.38 277.348 149.702 274.246C146.577 270.632 144.026 266.653 142.324 262.157C141.57 260.169 141.192 258.108 140.721 256.059ZM132.117 170.164C132.141 167.84 131.608 166.172 130.767 164.587C130.443 163.972 129.951 163.603 129.275 163.935C128.516 164.304 128.713 164.935 129.069 165.484C129.84 166.66 130.148 167.976 130.205 169.344C130.263 170.693 129.992 171.934 128.581 172.574C127.109 173.242 125.809 172.963 124.632 171.885C123.439 170.791 122.68 169.439 122.286 167.894C122.094 167.136 121.782 166.533 120.929 166.795C120.047 167.066 120.207 167.824 120.428 168.5C121.142 170.676 122.208 172.598 124.169 173.926C126.002 175.168 127.868 175.131 129.742 174.106C131.489 173.151 132.059 171.529 132.117 170.164ZM161.538 214.636C159.914 214.677 158.331 214.947 157.584 216.751C157.404 217.185 157.383 217.669 157.831 218.041C158.327 218.455 158.843 218.259 159.032 217.845C159.614 216.562 160.738 216.706 161.8 216.636C162.563 216.583 163.433 216.57 163.351 215.513C163.26 214.431 162.325 214.673 161.538 214.636ZM205.895 204.112C204.784 204.268 203.779 204.44 202.885 204.981C202.455 205.243 202.086 205.6 202.327 206.141C202.574 206.69 203.016 206.977 203.648 206.669C204.792 206.116 205.973 205.977 207.22 206.276C207.712 206.395 208.192 206.264 208.344 205.682C208.512 205.038 208.213 204.616 207.597 204.456C207.011 204.305 206.404 204.215 205.895 204.112ZM184.787 207.337C183.302 207.288 182.24 207.764 181.223 208.309C180.637 208.62 179.903 209.034 180.419 209.878C180.834 210.554 181.473 210.341 182.031 209.989C182.806 209.497 183.663 209.317 184.557 209.272C185.349 209.231 186.452 209.477 186.423 208.292C186.399 207.161 185.32 207.337 184.787 207.337Z" fill="#FEE4EB"/>
<path d="M287.185 182.909C278.724 182.61 270.251 182.364 262.139 179.507C258.35 178.172 255.303 175.852 253.109 172.459C249.401 166.738 250.951 159.775 256.837 156.366C262.049 153.346 267.905 152.178 273.713 150.96C285.52 148.485 297.29 148.317 308.978 151.678C312.066 152.567 315.019 153.809 317.922 155.177C327.814 159.829 325.899 169.475 320.851 174.614C317.414 178.114 312.952 179.602 308.346 180.753C305.291 181.516 302.166 181.876 299.045 182.241C295.112 182.704 291.155 182.938 287.185 182.909ZM318.972 166.885C319.21 168.836 319.095 170.373 318.78 171.91C318.648 172.553 318.435 173.442 319.362 173.606C320.379 173.787 320.559 172.828 320.65 172.115C320.826 170.766 320.892 169.398 320.957 168.037C320.974 167.721 320.846 167.144 320.695 167.111C318.595 166.652 319.834 165.656 320.313 164.828C320.781 164.021 320.777 163.119 320.871 162.251C320.929 161.726 320.81 161.107 320.047 161.083C319.456 161.062 319.186 161.447 319.136 161.98C318.845 165.308 316.434 166.668 313.747 167.713C309.905 169.209 305.877 169.844 301.785 170.217C290.343 171.254 278.876 172.254 267.594 169.193C262.984 167.943 257.747 167.443 255.253 162.259C255.057 161.849 254.606 161.747 254.187 161.915C253.769 162.083 253.519 162.468 253.625 162.894C253.757 163.414 253.904 164.029 254.265 164.373C256.127 166.14 256.189 168.398 256.262 170.717C256.303 172 256.611 173.283 256.89 174.549C257.033 175.2 257.296 175.979 258.227 175.725C259.055 175.5 258.834 174.77 258.744 174.184C258.51 172.705 258.214 171.238 257.997 169.758C257.8 168.43 258.317 167.98 259.605 168.549C260.597 168.988 261.577 169.574 262.623 169.762C264.387 170.086 264.723 171.07 264.583 172.656C264.419 174.504 264.834 176.315 265.342 178.094C265.555 178.839 265.793 179.692 266.802 179.339C267.68 179.032 267.413 178.217 267.175 177.585C266.507 175.819 266.474 173.983 266.495 172.139C266.503 171.537 266.4 170.856 267.467 171.147C268.91 171.537 270.391 171.799 271.859 172.098C272.593 172.25 272.819 172.381 272.417 173.27C271.412 175.5 271.986 177.823 272.462 180.093C272.572 180.614 272.876 181.225 273.573 181.02C274.283 180.811 274.389 180.233 274.188 179.532C273.733 177.934 273.737 176.29 273.909 174.664C273.991 173.881 273.786 173.246 273.249 172.5C273.729 172.5 274.065 172.471 274.393 172.504C279.085 172.975 283.781 173.422 288.497 173.061C289.727 172.967 289.645 173.746 289.633 174.491C289.6 176.409 289.678 178.315 290.101 180.188C290.244 180.831 290.478 181.643 291.401 181.425C292.225 181.233 292.028 180.462 291.962 179.884C291.757 178.122 291.532 176.372 291.552 174.586C291.565 173.41 291.876 172.877 293.164 172.84C295.342 172.778 297.524 172.586 299.689 172.324C300.907 172.176 301.329 172.725 301.391 173.762C301.497 175.532 301.612 177.303 301.178 179.057C301.022 179.688 301.055 180.389 301.785 180.589C302.687 180.839 302.953 180.114 303.117 179.417C303.577 177.463 303.548 175.463 303.306 173.512C303.146 172.217 303.548 171.815 304.725 171.68C309.716 171.115 314.596 170.238 318.972 166.885ZM291.626 151.297C285.528 151.546 280.278 151.661 275.115 152.784C274.397 152.94 273.405 152.854 273.532 153.911C273.663 154.993 274.594 154.702 275.328 154.591C283.998 153.251 292.692 152.854 301.42 153.985C302.15 154.079 303.097 154.255 303.183 153.178C303.265 152.141 302.342 152.108 301.588 152.046C297.987 151.768 294.386 151.501 291.626 151.297ZM317.389 160.829C317.303 159.3 316.413 158.509 315.228 157.989C314.527 157.681 313.657 156.944 313.079 157.96C312.46 159.046 313.497 159.329 314.248 159.628C315.667 160.193 315.782 161.021 314.785 162.107C314.461 162.46 314.125 162.804 313.85 163.189C313.534 163.636 313.583 164.111 314.002 164.472C314.354 164.775 314.781 164.759 315.121 164.451C316.241 163.435 317.283 162.353 317.389 160.829ZM282.924 177.823C282.956 177.258 282.989 176.586 283.03 175.909C283.063 175.36 283.149 174.746 282.403 174.647C281.751 174.561 281.427 175.057 281.271 175.602C280.824 177.204 280.861 178.807 281.353 180.397C281.505 180.884 281.73 181.298 282.325 181.216C282.911 181.134 283.055 180.688 283.03 180.167C283.002 179.421 282.965 178.676 282.924 177.823ZM310.114 176.745C310.085 177.622 309.97 178.544 311.033 178.561C311.918 178.573 311.935 177.672 312.029 177.024C312.193 175.881 312.296 174.733 312.406 173.582C312.468 172.946 312.443 172.274 311.668 172.115C310.84 171.942 310.631 172.586 310.54 173.221C310.376 174.434 310.245 175.651 310.114 176.745ZM260.827 161.091C260.786 161.808 261.011 162.439 261.516 162.943C262.029 163.455 262.717 163.824 263.341 163.378C264.124 162.812 263.698 162.23 263.07 161.759C262.373 161.234 262.705 160.759 263.128 160.222C263.439 159.825 263.447 159.32 262.968 158.968C262.496 158.616 262.065 158.825 261.672 159.132C261.036 159.624 260.774 160.292 260.827 161.091Z" fill="#982176"/>
<path d="M181.489 294.297C187.239 291.056 192.985 287.806 198.742 284.577C211.033 277.684 223.501 271.127 236.206 265.021C236.809 264.73 237.358 264.324 237.929 263.976C238.753 263.66 239.565 263.316 240.406 263.041C243.92 261.89 245.778 262.607 247.394 265.931C250.273 271.865 253.082 277.835 255.096 284.126C255.539 285.507 256.068 285.81 257.327 285.175C258.049 284.81 258.865 284.634 259.627 284.343C260.284 284.089 261.014 283.761 261.354 284.655C261.748 285.683 260.899 285.855 260.165 286.105C259.205 286.433 258.299 286.925 257.327 287.204C256.457 287.449 256.162 287.843 256.597 288.654C256.954 289.322 256.519 290.695 258.016 290.363C258.758 290.199 259.447 290.109 259.632 291.007C259.792 291.781 259.18 292.105 258.516 292.146C257.655 292.199 257.515 292.658 257.634 293.379C257.725 293.924 257.478 294.33 256.929 294.449C256.478 294.547 256.055 294.293 255.977 293.883C255.69 292.412 254.792 293.158 254.111 293.359C246.274 295.682 238.843 299.063 231.309 302.174C220.056 306.821 208.942 311.771 198.468 318.033C198.238 318.172 198.017 318.324 197.676 318.545C198.336 318.996 199.39 319.242 198.796 320.267C198.287 321.144 197.426 320.902 196.819 320.471C195.252 319.357 194.33 320.726 193.185 321.271C192.517 321.59 191.836 322.598 191.119 321.512C190.409 320.435 191.598 320.164 192.156 319.689C192.615 319.299 193.157 319.004 193.649 318.672C192.808 316.857 191.721 316.951 190.208 317.808C189.294 318.328 187.911 319.832 187.099 318.394C186.312 316.992 188.317 316.763 189.191 316.279C190.393 315.619 190.594 315.234 189.593 314.128C186.164 310.329 183.167 306.186 180.32 301.944C177.593 297.871 177.7 297.367 181.489 294.297ZM183.347 295.719C179.923 297.281 179.82 297.744 181.825 300.743C184.709 305.059 187.862 309.153 191.184 313.136C192.107 314.242 192.755 314.374 194.022 313.685C202.684 308.964 211.271 304.096 220.216 299.928C230.579 295.1 241.205 290.912 252.003 287.158C253.513 286.634 253.943 286.089 253.32 284.458C251.265 279.057 249.051 273.733 246.516 268.541C244.092 263.57 243.44 263.373 238.511 265.98C238.396 266.041 238.318 266.16 238.22 266.254C237.531 266.541 236.825 266.791 236.157 267.119C225.383 272.397 214.72 277.885 204.226 283.692C197.196 287.585 190.097 291.359 183.347 295.719ZM195.728 317.464C196.589 316.939 197.393 316.427 198.222 315.955C215.922 305.923 234.701 298.309 253.792 291.429C255.03 290.982 255.133 290.654 254.841 289.462C254.481 287.978 253.8 288.421 252.93 288.748C249.182 290.171 245.438 291.597 241.669 292.97C225.371 298.903 210.07 306.919 194.949 315.312C194.621 315.496 193.801 315.55 194.256 316.226C194.613 316.746 195.015 317.369 195.728 317.464Z" fill="#102C57"/>
<path d="M307.106 19.8476C306.199 19.3682 306.29 18.5363 306.318 17.7002C306.376 15.9258 306.372 14.1636 306.121 12.3933C305.478 7.82396 302.951 4.82009 298.444 3.64804C289.709 1.37363 280.859 1.6441 271.996 2.64812C265.607 3.37348 259.381 4.86926 253.295 6.94287C251.802 7.45103 250.367 8.06574 249.046 8.92223C247.004 10.2459 246.336 12.2048 246.372 14.5529C246.454 20.1714 247.779 25.6382 248.308 31.2033C248.411 32.2893 248.505 33.3753 248.603 34.4654C248.714 35.6456 248.152 36.1005 247.012 35.9366C245.999 28.9945 244.896 22.0606 244.502 15.057C244.236 10.2828 246.02 7.83625 250.556 5.99213C255.867 3.83246 261.395 2.39814 267.034 1.4392C276.922 -0.236905 286.859 -0.613925 296.759 1.2179C306.573 3.03334 309.103 9.59841 308.225 18.5731C308.156 19.2657 307.778 19.6837 307.106 19.8476Z" fill="#102C57"/>
<path d="M244.387 154.989C244.575 153.932 245.449 153.866 246.249 153.719C248.824 153.235 251.203 152.206 253.508 151.022C258.556 148.432 259.897 143.785 260.451 138.613C262.017 124.049 263.678 109.497 265.327 94.9403C265.417 94.1452 265.105 92.8708 266.463 92.9568C267.837 93.0429 267.398 94.2723 267.316 95.0591C266.34 104.14 265.282 113.209 264.322 122.291C263.719 127.983 262.743 133.63 262.46 139.355C262.103 141.002 261.816 142.67 261.374 144.293C260.135 148.834 256.899 151.579 252.839 153.538C250.817 154.514 248.644 155.067 246.491 155.657C245.732 155.866 244.842 155.981 244.387 154.989Z" fill="#102C57"/>
<path d="M293.817 94.2436C293.063 93.6248 293.153 92.8175 293.329 91.9938C296.807 75.8884 299.628 59.6602 302.602 43.4606C303.254 39.9117 303.779 36.3341 304.254 32.7565C304.406 31.6131 304.87 31.0312 305.965 30.9042C306.67 33.2441 305.846 35.5104 305.468 37.7397C302.372 55.9801 299.03 74.1714 295.289 92.2929C295.101 93.1945 294.92 94.0551 293.817 94.2436Z" fill="#102C57"/>
<path d="M284.806 130.793C283.858 130.326 283.936 129.626 284.19 128.732C286.011 122.257 287.791 115.77 289.555 109.279C289.747 108.562 290.03 108.017 290.797 107.848C291.601 108.34 291.704 108.984 291.449 109.881C289.628 116.311 287.853 122.753 286.069 129.195C285.872 129.908 285.782 130.695 284.806 130.793Z" fill="#102C57"/>
<path d="M306.493 27.47C305.345 25.7283 305.562 23.0031 306.952 21.8311C308.322 23.122 308.056 26.3881 306.493 27.47Z" fill="#102C57"/>
<path d="M292.085 102.026C290.691 100.288 291.134 98.4072 293.233 97.1286C294.185 98.5137 293.66 100.759 292.085 102.026Z" fill="#102C57"/>
<path d="M88.2051 203.716C89.7758 203.732 90.6904 204.293 91.2522 205.752C94.1435 213.297 96.6042 220.993 99.2535 228.624C101.612 235.422 103.904 242.245 106.217 249.056C106.459 249.761 106.681 250.478 106.857 251.204C107.378 253.31 106.689 254.519 104.634 255.29C100.369 256.884 95.9808 258.134 91.7895 259.953C89.4601 260.965 88.4717 260.556 87.4628 258.17C82.1437 245.61 75.9223 233.451 70.8616 220.776C70.0577 218.76 69.3442 216.706 68.5403 214.69C67.5807 212.276 68.1507 210.436 70.5499 209.564C76.0372 207.564 81.5859 205.732 87.1183 203.851C87.4997 203.716 87.9304 203.744 88.2051 203.716ZM88.9761 234.418C89.9153 234.312 90.0506 235.004 90.2516 235.553C90.8626 237.213 91.4163 238.893 92.0233 240.553C92.2242 241.102 92.3718 241.901 93.1921 241.688C94.1189 241.446 93.9139 240.729 93.6637 240.028C93.0731 238.361 92.5482 236.668 91.9412 235.008C91.5803 234.025 91.7854 233.472 92.8804 233.295C93.959 233.123 95.0253 232.894 96.0915 232.66C96.6575 232.537 97.1742 232.267 97.0307 231.574C96.8954 230.923 96.3458 230.746 95.7553 230.861C94.4839 231.103 93.1798 231.271 91.9658 231.697C90.8996 232.07 90.5181 231.672 90.1203 230.796C89.4478 229.308 88.6685 227.869 87.9139 226.419C87.5489 225.722 87.2619 224.603 86.2366 225.075C85.117 225.591 85.9741 226.48 86.2899 227.152C86.9297 228.505 87.5859 229.857 88.3323 231.152C89.0007 232.312 88.6891 232.816 87.4341 233.135C86.3186 233.418 85.2277 233.865 84.1983 234.385C83.5135 234.734 82.0904 234.812 82.6932 236.057C83.1649 237.037 84.1286 236.303 84.8586 236.025C86.2612 235.484 87.6556 234.935 88.9761 234.418Z" fill="#EC255A"/>
<path d="M167.512 82.7245C167.852 84.8391 166.72 85.8923 164.965 86.6586C160.971 88.4003 156.632 88.6708 152.457 89.6133C144.743 91.3509 137.147 93.5147 129.56 95.703C123.532 97.4406 117.397 98.7151 111.306 100.19C102.764 102.26 94.4427 105.112 85.9452 107.309C70.968 111.181 56.4583 116.595 41.481 120.439C39.7668 120.877 38.0115 121.201 36.2521 121.402C32.2207 121.869 28.8989 120.23 27.1477 116.55C24.0431 110.03 21.5579 103.235 19.1341 96.4448C17.3748 91.5189 19.4499 88.22 24.6255 86.6586C33.0328 84.1219 41.4605 81.6508 49.8842 79.1633C63.2046 75.2292 76.5455 71.3729 90.0094 67.9429C101.64 64.98 113.382 62.5498 125.16 60.2754C134.527 58.4682 143.898 56.665 153.252 54.8004C158.957 53.6653 161.688 55.243 163.288 60.8983C165.314 68.0617 165.9 75.4997 167.512 82.7245ZM34.4517 119.435C37.7408 119.492 40.3163 118.82 42.8959 118.164C55.0434 115.07 66.7561 110.53 78.8872 107.37C87.0525 105.243 95.107 102.702 103.223 100.383C112.779 97.6537 122.58 95.8874 132.119 93.0762C138.587 91.1706 145.079 89.3838 151.657 87.8799C155.635 86.9701 159.72 86.5849 163.608 85.2366C165.564 84.5563 166.085 83.372 165.609 81.4746C165.064 79.2985 164.543 77.1102 164.129 74.9054C163.185 69.8976 162.775 64.7874 160.999 59.9476C160.007 57.2388 158.662 56.2224 155.787 56.4109C153.265 56.579 150.821 57.2265 148.343 57.7141C136.581 60.0295 124.791 62.1892 113.045 64.5702C96.891 67.8445 80.9582 72.0327 65.1444 76.6553C51.6149 80.6099 38.1099 84.6342 24.6132 88.6913C20.8443 89.8223 19.6263 92.3057 20.9755 95.9489C23.2721 102.137 25.5852 108.321 28.0745 114.431C29.3049 117.427 31.3759 119.66 34.4517 119.435Z" fill="#102C57"/>
<path d="M54.4207 129.425C52.8295 129.352 51.5376 129.442 50.9676 128.184C50.3319 126.778 51.3859 125.872 52.2758 125.045C54.9497 122.561 58.3085 121.451 61.7125 120.414C64.9769 119.418 68.266 118.594 71.6904 118.508C72.8223 118.479 74.1798 118.295 74.6432 119.713C75.1149 121.155 74.0322 122.004 73.0192 122.7C68.7664 125.631 64.0542 127.524 59.0262 128.638C57.3694 129.011 55.6797 129.216 54.4207 129.425Z" fill="#FEE4EB"/>
<path d="M31.2305 135.225C31.3659 132.504 33.2565 129.348 36.5168 129.279C39.1046 129.225 41.3274 131.615 41.2741 134.385C41.2126 137.487 38.8791 139.938 35.9509 139.966C33.1457 139.995 31.2182 138.053 31.2305 135.225Z" fill="#102C57"/>
<path d="M164.465 93.4937C164.17 94.2846 163.53 94.4526 162.853 94.6534C156.456 96.5426 150.066 98.4441 143.681 100.378C141.729 100.968 139.817 101.69 137.878 102.325C137.078 102.587 135.991 103.292 135.622 102.05C135.265 100.862 136.598 100.743 137.361 100.497C142.61 98.8006 147.868 97.1327 153.142 95.5181C156.328 94.5428 159.548 93.6658 162.751 92.7478C163.546 92.5142 164.248 92.5019 164.465 93.4937Z" fill="#102C57"/>
<path d="M144.825 243.319C146.572 246.757 147.975 250.363 150.042 253.646C151.674 256.236 153.2 258.887 155.443 261.022C155.935 261.49 156.55 262.047 155.865 262.735C155.099 263.506 154.512 262.809 153.983 262.293C151.781 260.129 150.112 257.555 148.545 254.929C146.671 251.785 144.973 248.54 143.681 245.106C143.509 244.159 143.533 243.335 144.825 243.319Z" fill="#102C57"/>
<path d="M141.503 106.395C140.941 106.465 140.563 106.203 140.416 105.69C140.243 105.084 140.707 104.805 141.15 104.633C142.294 104.199 143.459 103.805 144.623 103.42C148.306 102.203 151.989 100.982 155.68 99.7932C156.295 99.5965 157.079 99.2072 157.452 100.096C157.813 100.957 157.152 101.322 156.455 101.547C151.599 103.121 146.744 104.69 141.884 106.26C141.761 106.301 141.634 106.35 141.503 106.395Z" fill="#102C57"/>
<path d="M267.046 67.385C267.038 59.8856 267.066 53.9516 266.295 48.0545C265.713 43.6163 263.084 41.2517 258.704 40.4731C256.494 40.0797 254.304 39.5551 252.065 39.2929C251.318 39.2068 250.436 39.1617 250.535 38.088C250.629 37.084 251.486 37.2602 252.13 37.3217C255.944 37.7028 259.717 38.3831 263.211 39.969C266.443 41.4361 267.776 44.399 268.182 47.7144C269.174 55.8572 269.244 64.0328 268.826 72.2207C268.666 75.3516 268.49 78.4825 268.301 81.6134C268.256 82.392 268.428 83.5067 267.206 83.3797C266.181 83.2731 266.455 82.2896 266.484 81.5519C266.697 76.3105 266.902 71.065 267.046 67.385Z" fill="#102C57"/>
<path d="M271.971 21.7404C266.242 21.5191 260.517 21.1544 255.038 19.257C252.881 18.5111 250.941 17.3637 250.022 15.0565C249.809 14.5155 249.604 13.9705 250.24 13.6385C250.781 13.3558 251.347 13.4746 251.63 14.0688C253.143 17.2161 256.203 17.8022 259.118 18.4005C273.587 21.3634 287.461 19.4824 300.736 13.0566C301.413 12.7288 302.242 12.2452 302.68 13.1877C303.189 14.2778 302.086 14.5811 301.413 14.9089C294.294 18.3595 286.817 20.5806 278.919 21.3265C276.61 21.5396 274.309 21.8715 271.971 21.7404Z" fill="#102C57"/>
<path d="M235.448 59.8979C229.51 59.8282 223.387 59.0496 217.485 56.9186C215.262 56.1154 213.314 54.8941 211.936 52.9148C211.51 52.3001 210.997 51.5542 211.875 50.9723C212.687 50.4355 213.04 51.1936 213.441 51.7591C214.672 53.4967 216.411 54.6073 218.383 55.222C229.608 58.7176 240.878 59.2258 252.123 55.3613C255.654 54.1483 258.734 52.1648 260.936 49.0257C261.305 48.5012 261.679 47.6488 262.507 48.1201C263.459 48.661 262.884 49.4478 262.491 50.0502C259.813 54.1524 255.769 56.3121 251.274 57.7587C246.234 59.3774 241.021 59.8774 235.448 59.8979Z" fill="#102C57"/>
<path d="M268.374 32.8876C263.694 32.9901 259.113 32.4163 254.672 30.9328C253.884 30.6706 252.666 30.4575 253.142 29.2404C253.569 28.1462 254.545 28.8019 255.271 29.0559C262.989 31.7648 270.888 31.1623 278.754 30.146C285.393 29.2895 291.832 27.4905 298.057 24.9907C298.779 24.6997 299.723 24.085 300.129 25.2489C300.453 26.1791 299.554 26.4004 298.828 26.7078C289.088 30.8181 278.893 32.654 268.374 32.8876Z" fill="#102C57"/>
<path d="M230.558 71.2863C224.653 71.1183 219.321 70.5323 214.236 68.4955C213.477 68.1923 212.407 67.971 212.743 66.9588C213.1 65.881 214.113 66.3973 214.855 66.676C225.051 70.4913 235.353 69.6758 245.683 67.3686C247.545 66.9547 249.391 66.4424 251.261 66.0613C251.933 65.9261 252.905 65.5859 253.156 66.6309C253.377 67.5571 252.45 67.6964 251.835 67.8726C246.709 69.3274 241.5 70.3806 236.193 70.8888C234.159 71.0814 232.113 71.1798 230.558 71.2863Z" fill="#102C57"/>
<path d="M233.298 94.1288C228.217 93.9731 224.686 93.7149 221.204 93.0019C220.937 92.9486 220.675 92.883 220.417 92.7929C219.797 92.5798 218.911 92.5347 219.1 91.5758C219.285 90.6291 220.113 90.8586 220.769 90.9406C223.201 91.2438 225.625 91.629 228.061 91.879C237.161 92.8093 245.983 91.5061 254.579 88.4817C254.96 88.3465 255.35 88.199 255.747 88.1334C256.277 88.0473 256.687 88.2563 256.822 88.826C256.933 89.289 256.752 89.6415 256.318 89.8136C255.116 90.289 253.935 90.8258 252.7 91.1905C245.868 93.2027 238.921 94.4321 233.298 94.1288Z" fill="#102C57"/>
<path d="M235.284 129.33C232.327 129.228 229.014 128.949 225.807 127.916C225.187 127.716 224.597 127.441 224.798 126.65C224.999 125.872 225.581 125.867 226.262 126.056C234.694 128.396 243.011 127.146 251.303 125.22C252.96 124.835 254.6 124.396 256.257 124.011C256.922 123.855 257.726 123.667 257.963 124.568C258.193 125.458 257.475 125.679 256.766 125.863C249.835 127.646 242.88 129.273 235.284 129.33Z" fill="#102C57"/>
<path d="M272.286 44.5261C271.523 44.6039 270.604 44.6941 270.489 43.7065C270.346 42.4811 271.449 42.5672 272.212 42.5221C278.765 42.1205 285.179 40.9362 291.438 38.965C294.03 38.1495 296.564 37.1414 299.127 36.2234C299.857 35.9653 300.772 35.2563 301.211 36.4037C301.629 37.502 300.477 37.7233 299.788 38.0102C294.628 40.1821 289.309 41.8664 283.814 42.9319C280.004 43.6778 276.165 44.2638 272.286 44.5261Z" fill="#102C57"/>
<path d="M232.768 107.272C229.823 107.051 226.739 107.182 223.782 106.19C223.056 105.948 222.138 105.78 222.396 104.805C222.675 103.752 223.549 104.231 224.27 104.391C231.976 106.112 239.567 105.145 247.13 103.424C247.794 103.272 248.446 103.022 249.115 102.957C249.849 102.883 250.903 102.35 251.12 103.588C251.301 104.608 250.316 104.715 249.607 104.862C246.814 105.444 244.013 106.002 241.212 106.542C238.456 107.075 235.663 107.12 232.768 107.272Z" fill="#102C57"/>
<path d="M230.584 115.496C235.309 115.652 239.976 115.209 244.585 114.16C244.716 114.131 244.844 114.062 244.975 114.037C245.762 113.89 246.808 113.468 247.071 114.537C247.321 115.558 246.304 115.82 245.471 115.959C243.121 116.361 240.775 116.799 238.417 117.123C234.41 117.668 230.391 117.594 226.376 117.135C226.171 117.111 225.966 117.107 225.765 117.07C225.08 116.943 224.305 116.828 224.437 115.885C224.551 115.049 225.29 115.131 225.897 115.168C227.455 115.254 229.022 115.381 230.584 115.496Z" fill="#102C57"/>
<path d="M276.06 57.8119C275.289 57.6972 274.296 58.2053 274.067 57.1603C273.837 56.1153 274.772 55.976 275.523 55.8981C281.785 55.2384 287.855 53.7098 293.85 51.8452C294.535 51.6321 295.257 51.3821 295.589 52.2509C295.868 52.9803 295.323 53.3779 294.691 53.5909C288.593 55.6236 282.347 56.9923 276.06 57.8119Z" fill="#102C57"/>
<path d="M275.079 80.3348C273.759 80.5356 272.934 80.4987 272.877 79.4824C272.828 78.5972 273.66 78.4292 274.337 78.3841C279.951 78.0071 285.422 76.9252 290.77 75.1795C291.443 74.9582 292.238 74.8516 292.423 75.7819C292.628 76.8105 291.689 76.9949 291.004 77.1875C285.619 78.7079 280.185 80.0275 275.079 80.3348Z" fill="#102C57"/>
<path d="M236.956 138.895C234.479 138.924 232.063 138.457 229.639 138.055C228.885 137.928 228.253 137.621 228.475 136.74C228.667 135.977 229.36 135.994 229.996 136.137C235.582 137.403 241.098 137.059 246.556 135.436C247.258 135.227 248.061 135.076 248.316 135.883C248.611 136.822 247.799 137.104 247.032 137.338C243.743 138.346 240.372 138.76 236.956 138.895Z" fill="#102C57"/>
<path d="M276.993 68.4423C276.583 68.4423 276.172 68.4259 275.762 68.4464C275.159 68.4751 274.602 68.3275 274.516 67.68C274.409 66.8768 275.053 66.5982 275.688 66.5777C281.061 66.4055 286.208 65.1311 291.277 63.4509C291.904 63.2419 292.573 63.1681 292.77 63.9795C292.958 64.754 292.323 64.9958 291.724 65.2376C286.999 67.1678 282.021 67.9177 276.993 68.4423Z" fill="#102C57"/>
<path d="M232.614 81.7118C229.612 81.7609 226.61 81.6544 223.661 80.9987C223.013 80.8553 222.168 80.7487 222.365 79.7775C222.562 78.8103 223.427 79.0111 224.042 79.1464C229.345 80.2979 234.615 80.1176 239.856 78.798C240.603 78.6095 241.304 78.6382 241.452 79.5234C241.57 80.261 240.98 80.552 240.32 80.7036C237.785 81.2815 235.222 81.6503 232.614 81.7118Z" fill="#102C57"/>
<path d="M237.898 148.69C236.742 148.629 235.581 148.604 234.433 148.489C233.801 148.424 233.133 148.133 233.223 147.375C233.305 146.678 233.912 146.395 234.605 146.465C238.862 146.899 243.045 146.371 247.204 145.522C247.798 145.4 248.512 145.301 248.697 146.141C248.881 146.977 248.151 147.203 247.597 147.35C244.423 148.203 241.192 148.662 237.898 148.69Z" fill="#102C57"/>
<path d="M275.923 105.333C274.836 105.329 273.745 105.329 272.658 105.333C271.9 105.337 271.219 105.124 271.268 104.247C271.309 103.493 271.957 103.321 272.63 103.362C276.809 103.62 280.906 103.132 284.958 102.104C285.573 101.948 286.455 101.71 286.721 102.591C287.041 103.653 286.04 103.796 285.376 103.985C282.288 104.858 279.15 105.427 275.923 105.333Z" fill="#102C57"/>
<path d="M272.186 116.635C271.899 116.607 271.349 116.611 270.828 116.48C270.324 116.357 270.012 115.963 270.107 115.414C270.185 114.967 270.529 114.738 270.984 114.722C275.34 114.578 279.625 113.898 283.886 113.037C284.497 112.914 285.043 113.045 285.162 113.701C285.355 114.787 284.37 114.885 283.722 115.041C280.019 115.947 276.234 116.303 272.186 116.635Z" fill="#102C57"/>
<path d="M275.49 92.6617C274.563 92.2847 272.693 93.3543 272.627 91.8298C272.553 90.1005 274.481 90.7521 275.555 90.7275C278.287 90.6619 280.952 90.1783 283.626 89.7275C284.311 89.6128 285.209 89.1661 285.447 90.2972C285.681 91.3872 284.766 91.4446 284.04 91.5922C281.248 92.1618 278.422 92.5019 275.49 92.6617Z" fill="#102C57"/>
<path d="M278.562 126.523C279.637 126.474 280.231 126.491 280.367 127.179C280.498 127.835 280.059 128.167 279.465 128.31C276.229 129.097 272.993 129.892 269.753 130.662C269.171 130.802 268.605 130.597 268.449 129.978C268.281 129.306 268.826 128.966 269.355 128.827C272.579 127.995 275.815 127.208 278.562 126.523Z" fill="#102C57"/>
<path d="M170.708 197.092C169.059 193.425 167.358 189.781 166.131 185.946C165.143 182.856 165.5 182.438 168.576 181.446C171.815 180.401 174.949 179.032 178.143 177.84C182.322 176.278 182.515 176.405 183.84 180.606C184.988 184.257 185.566 188.036 186.514 191.732C186.748 192.646 186.37 192.949 185.64 193.224C181.998 194.584 178.361 195.945 174.739 197.359C173.915 197.678 173.115 197.387 172.312 197.498C171.774 197.359 171.241 197.228 170.708 197.092Z" fill="#982176"/>
<path d="M127.219 158.612C131.254 157.186 135.29 155.768 139.321 154.333C140.58 153.887 141.277 154.321 141.527 155.6C142.598 160.997 143.656 166.394 144.767 171.783C144.997 172.885 144.665 173.442 143.603 173.709C142.352 174.02 141.117 174.401 139.879 174.75C137.996 171.693 136.143 168.611 134.219 165.578C132.415 162.738 129.893 160.595 127.219 158.612Z" fill="#982176"/>
<path d="M146.777 187.273C152.051 185.519 152.072 185.515 153.208 190.949C153.835 193.941 154.389 196.945 154.947 199.953C155.185 201.248 155.275 202.543 154.172 203.563C151.707 198.133 149.242 192.703 146.777 187.273Z" fill="#982176"/>
<path d="M132.115 170.164C132.057 171.529 131.483 173.156 129.74 174.106C127.866 175.131 126 175.168 124.167 173.926C122.206 172.598 121.14 170.676 120.427 168.5C120.205 167.82 120.049 167.066 120.927 166.795C121.78 166.533 122.092 167.136 122.284 167.894C122.678 169.443 123.433 170.791 124.63 171.885C125.807 172.963 127.107 173.242 128.58 172.574C129.99 171.934 130.261 170.693 130.204 169.344C130.146 167.976 129.839 166.66 129.068 165.484C128.711 164.935 128.51 164.308 129.273 163.935C129.953 163.603 130.446 163.976 130.765 164.587C131.606 166.173 132.139 167.84 132.115 170.164Z" fill="#102C57"/>
<path d="M177.219 198.379C179.384 197.568 181.55 196.76 183.715 195.949C183.046 197.867 181.771 199.498 181.283 201.674C179.802 200.473 178.511 199.424 177.219 198.379Z" fill="#982176"/>
<path d="M161.539 214.636C162.326 214.673 163.261 214.431 163.347 215.513C163.429 216.566 162.56 216.583 161.797 216.636C160.735 216.71 159.611 216.562 159.029 217.845C158.84 218.263 158.323 218.455 157.827 218.041C157.38 217.669 157.401 217.185 157.581 216.751C158.332 214.947 159.915 214.677 161.539 214.636Z" fill="#102C57"/>
<path d="M205.895 204.112C206.407 204.215 207.01 204.305 207.601 204.456C208.216 204.616 208.515 205.038 208.347 205.682C208.195 206.264 207.711 206.391 207.223 206.276C205.977 205.977 204.795 206.116 203.651 206.669C203.02 206.977 202.577 206.69 202.331 206.141C202.089 205.6 202.458 205.243 202.888 204.981C203.778 204.44 204.779 204.268 205.895 204.112Z" fill="#102C57"/>
<path d="M184.785 207.338C185.314 207.338 186.397 207.162 186.421 208.293C186.45 209.473 185.347 209.231 184.555 209.272C183.661 209.318 182.8 209.498 182.029 209.99C181.471 210.342 180.832 210.555 180.417 209.879C179.901 209.031 180.635 208.621 181.221 208.309C182.242 207.764 183.305 207.289 184.785 207.338Z" fill="#102C57"/>
<path d="M318.976 166.885C314.596 170.237 309.72 171.118 304.753 171.688C303.576 171.823 303.174 172.225 303.334 173.52C303.576 175.474 303.605 177.474 303.146 179.425C302.982 180.117 302.711 180.847 301.813 180.597C301.083 180.392 301.05 179.695 301.206 179.064C301.64 177.31 301.522 175.54 301.419 173.769C301.357 172.729 300.931 172.179 299.717 172.331C297.552 172.597 295.37 172.786 293.192 172.847C291.904 172.884 291.593 173.417 291.58 174.593C291.56 176.38 291.786 178.13 291.991 179.892C292.056 180.47 292.249 181.244 291.429 181.433C290.502 181.646 290.272 180.839 290.129 180.195C289.71 178.322 289.628 176.413 289.661 174.499C289.673 173.753 289.755 172.974 288.525 173.069C283.805 173.429 279.109 172.983 274.421 172.511C274.093 172.479 273.757 172.507 273.277 172.507C273.814 173.249 274.02 173.888 273.938 174.671C273.765 176.302 273.761 177.945 274.216 179.54C274.417 180.24 274.311 180.818 273.601 181.027C272.908 181.232 272.601 180.621 272.49 180.101C272.014 177.831 271.44 175.507 272.445 173.278C272.847 172.388 272.621 172.253 271.887 172.106C270.419 171.807 268.938 171.548 267.495 171.155C266.428 170.864 266.531 171.544 266.523 172.147C266.502 173.991 266.531 175.827 267.204 177.593C267.445 178.224 267.708 179.04 266.83 179.347C265.821 179.699 265.584 178.847 265.37 178.101C264.858 176.323 264.443 174.511 264.612 172.663C264.755 171.081 264.415 170.094 262.651 169.77C261.606 169.577 260.629 168.995 259.633 168.557C258.345 167.987 257.828 168.438 258.025 169.766C258.243 171.245 258.542 172.712 258.772 174.192C258.866 174.778 259.083 175.507 258.255 175.732C257.32 175.987 257.062 175.208 256.918 174.556C256.639 173.294 256.331 172.007 256.29 170.725C256.217 168.401 256.155 166.143 254.293 164.381C253.932 164.041 253.785 163.422 253.653 162.901C253.547 162.475 253.797 162.09 254.215 161.922C254.638 161.754 255.085 161.856 255.282 162.266C257.775 167.45 263.012 167.95 267.622 169.2C278.9 172.261 290.367 171.266 301.813 170.225C305.906 169.852 309.933 169.217 313.776 167.721C316.462 166.676 318.873 165.315 319.164 161.988C319.21 161.455 319.484 161.07 320.075 161.09C320.838 161.115 320.953 161.734 320.899 162.258C320.805 163.127 320.809 164.028 320.341 164.836C319.862 165.664 318.619 166.663 320.723 167.118C320.875 167.151 321.002 167.729 320.985 168.045C320.92 169.405 320.854 170.774 320.678 172.122C320.583 172.839 320.407 173.798 319.39 173.614C318.463 173.45 318.676 172.561 318.808 171.917C319.103 170.368 319.214 168.831 318.976 166.885Z" fill="#102C57"/>
<path d="M282.924 177.824C282.965 178.68 283.002 179.422 283.035 180.164C283.059 180.684 282.916 181.127 282.329 181.213C281.734 181.299 281.509 180.881 281.357 180.393C280.865 178.803 280.824 177.201 281.275 175.599C281.427 175.054 281.755 174.558 282.407 174.644C283.153 174.742 283.067 175.361 283.035 175.906C282.989 176.582 282.957 177.258 282.924 177.824Z" fill="#102C57"/>
<path d="M310.115 176.745C310.246 175.651 310.374 174.434 310.542 173.221C310.632 172.586 310.841 171.943 311.67 172.115C312.445 172.274 312.469 172.947 312.408 173.582C312.297 174.729 312.195 175.881 312.03 177.024C311.936 177.672 311.92 178.573 311.034 178.561C309.976 178.545 310.087 177.622 310.115 176.745Z" fill="#102C57"/>
<path d="M183.348 295.719C190.102 291.355 197.197 287.58 204.222 283.691C214.717 277.884 225.38 272.393 236.153 267.119C236.822 266.791 237.527 266.541 238.216 266.254C238.594 268.738 239.894 271 239.955 273.557C239.471 273.803 238.967 274.012 238.503 274.295C235.071 276.405 234.915 281.077 238.212 283.093C239.098 283.634 240.123 283.782 241.12 283.986C240.484 286.081 238.413 286.581 236.867 287.462C231.614 290.453 226.229 293.211 220.778 295.842C213.253 299.477 205.772 303.174 197.82 305.833C193.281 307.354 191.821 307.419 189.905 304.485C187.896 301.411 185.583 298.604 183.348 295.719ZM224.326 284.388C224.305 287.097 226.266 289.171 228.841 289.166C232.052 289.162 234.808 286.585 234.763 283.634C234.722 281.04 232.553 279.077 229.743 279.089C226.922 279.106 224.346 281.618 224.326 284.388Z" fill="#FEE4EB"/>
<path d="M34.4511 119.435C31.3753 119.66 29.3042 117.431 28.0821 114.435C25.5887 108.325 23.2756 102.141 20.9831 95.9533C19.6297 92.3101 20.8519 89.8308 24.6208 88.6956C38.1175 84.6385 51.6224 80.6102 65.152 76.6596C80.9658 72.037 96.8986 67.8488 113.053 64.5745C124.798 62.1935 136.593 60.0298 148.351 57.7185C150.824 57.2308 153.268 56.5833 155.795 56.4153C158.665 56.2227 160.01 57.239 161.007 59.9519C162.783 64.7917 163.193 69.902 164.136 74.9098C164.55 77.1145 165.071 79.3029 165.617 81.479C166.092 83.3763 165.572 84.5607 163.615 85.241C159.727 86.5892 155.639 86.9744 151.665 87.8842C145.087 89.3882 138.59 91.1749 132.127 93.0805C122.588 95.8918 112.786 97.658 103.231 100.387C95.1146 102.703 87.0601 105.244 78.8948 107.375C66.7637 110.538 55.051 115.075 42.9035 118.169C40.3157 118.82 37.7443 119.492 34.4511 119.435ZM56.7283 86.2245C56.716 86.1507 56.7119 86.6507 56.8883 87.081C58.6066 91.2446 59.9149 95.5435 61.096 99.8792C61.6537 101.928 62.839 102.666 64.8854 102.154C67.7234 101.445 70.5695 100.756 73.4157 100.088C84.5543 97.4654 95.6724 94.7525 106.844 92.2609C122.129 88.8513 137.454 85.6139 152.764 82.2904C155.073 81.7904 155.84 80.4258 155.294 78.0448C155.036 76.9178 154.818 75.7786 154.609 74.6393C154.027 71.4305 153.904 68.1398 152.903 65.0007C152.321 63.173 151.193 62.4107 149.204 62.6607C135.531 64.386 122.071 67.2177 108.685 70.406C96.8986 73.2173 85.1654 76.2375 73.4198 79.2168C68.5395 80.4544 63.6879 81.815 58.824 83.1387C57.5608 83.4829 56.5561 84.1099 56.7283 86.2245Z" fill="#982176"/>
<path d="M179.32 162.579C179.394 163.369 178.939 163.689 178.311 163.951C173.386 166.009 168.342 167.644 163.051 168.48C162.186 168.615 161.649 168.504 161.341 167.574C159.725 162.656 158.011 157.767 156.444 152.837C155.694 150.469 156.12 149.883 158.589 149.223C163.724 147.85 168.862 146.49 174.005 145.141C174.743 144.949 175.633 144.453 175.9 145.768C177.04 151.366 178.18 156.972 179.32 162.579Z" fill="#982176"/>
<path d="M131.723 139.391C131.842 140.289 131.313 140.789 130.628 141.19C126.158 143.809 121.183 145.055 116.262 146.448C115.372 146.698 115.175 146.087 114.966 145.53C113.001 140.297 111.074 135.056 109.105 129.822C108.547 128.339 108.81 127.495 110.459 126.88C115.068 125.159 119.764 123.778 124.542 122.626C126.465 122.163 127.474 122.651 128.102 124.724C129.447 129.167 130.652 133.629 131.538 138.178C131.616 138.58 131.661 138.986 131.723 139.391Z" fill="#982176"/>
<path d="M151.48 135.063C150.783 135.141 150.368 134.916 150.114 134.182C148.457 129.433 146.772 124.695 145.053 119.97C144.713 119.032 144.791 118.417 145.792 118.036C151.447 115.876 157.123 113.782 162.967 112.159C164.554 111.721 165.054 112.372 165.284 113.745C166.125 118.774 166.986 123.802 167.868 128.822C168.007 129.605 168.196 130.314 167.162 130.609C162.262 132.014 157.554 134.063 152.501 134.953C152.161 135.01 151.816 135.026 151.48 135.063Z" fill="#982176"/>
<path d="M51.1789 166.792C50.0224 166.948 49.4893 165.98 48.9315 165.009C46.963 161.563 46.1838 157.604 44.2891 154.125C44.125 153.826 44.0225 153.498 43.879 153.19C42.3821 150.031 42.3821 150.035 45.585 148.867C50.125 147.207 54.6731 145.572 59.1925 143.851C60.2588 143.445 60.7673 143.601 61.1364 144.691C62.8958 149.846 64.5895 155.018 65.9347 160.301C66.1603 161.19 66.1726 161.985 65.1678 162.325C60.7796 163.8 56.4858 165.562 51.9992 166.734C51.8064 166.784 51.5932 166.763 51.1789 166.792Z" fill="#982176"/>
<path d="M76.6463 139.683C76.5438 138.789 77.0359 138.302 77.7823 137.945C82.4658 135.708 87.2805 133.827 92.2592 132.335C93.51 131.962 93.7561 132.589 94.0309 133.544C95.4498 138.523 96.877 143.498 98.3698 148.457C98.7758 149.809 98.3821 150.411 97.0698 150.854C92.2879 152.46 87.5388 154.157 82.7815 155.841C82.0885 156.087 81.4733 156.382 81.178 155.374C79.6852 150.276 78.1883 145.182 76.6955 140.088C76.6586 139.957 76.6627 139.814 76.6463 139.683Z" fill="#982176"/>
<path d="M108.76 181.688C108.973 182.643 108.3 182.794 107.718 182.966C103.465 184.216 99.2 185.425 94.9554 186.712C93.967 187.011 93.6266 186.659 93.3354 185.802C91.695 180.962 90.0217 176.131 88.3403 171.303C88.0409 170.443 88.2255 169.939 89.1031 169.537C94.0736 167.25 99.2164 165.443 104.478 163.972C104.991 163.828 105.631 163.619 105.774 164.439C106.787 170.213 107.78 175.991 108.76 181.688Z" fill="#982176"/>
<path d="M77.2806 189.536C77.3913 190.536 76.8253 191.044 75.9682 191.335C72.023 192.659 68.0736 193.97 64.1365 195.315C63.1605 195.647 62.6068 195.368 62.2172 194.425C60.1421 189.381 58.0423 184.352 55.9466 179.316C55.6021 178.484 55.9138 178.082 56.7545 177.845C61.8071 176.423 66.8556 174.972 71.8999 173.513C72.6873 173.284 73.2943 173.124 73.5814 174.238C74.8609 179.185 76.2061 184.119 77.2067 189.135C77.2354 189.266 77.256 189.401 77.2806 189.536Z" fill="#982176"/>
<path d="M108.358 216.374C107.427 216.497 106.964 215.943 106.615 215.226C104.655 211.19 102.621 207.19 100.956 203.014C100.517 201.912 100.747 201.416 101.834 201.059C106.423 199.555 110.999 198.027 115.564 196.453C116.421 196.158 116.655 196.543 116.86 197.203C118.267 201.748 119.673 206.296 121.109 210.833C121.301 211.435 121.318 211.829 120.674 212.144C116.741 214.066 112.529 215.161 108.358 216.374Z" fill="#982176"/>
<path d="M118.213 245.539C117.745 245.596 117.167 245.33 116.798 244.502C114.928 240.334 113.287 236.076 111.737 231.782C111.479 231.065 111.639 230.646 112.344 230.327C116.515 228.466 120.694 226.659 125.156 225.561C126.284 225.282 126.575 225.647 126.813 226.63C127.838 230.864 128.941 235.081 129.983 239.31C130.135 239.924 130.447 240.662 129.557 241.084C126.173 242.699 122.786 244.305 119.193 245.428C119.004 245.49 118.787 245.477 118.213 245.539Z" fill="#982176"/>
<path d="M224.324 284.389C224.345 281.623 226.916 279.107 229.746 279.09C232.551 279.074 234.725 281.041 234.766 283.635C234.811 286.585 232.051 289.163 228.844 289.167C226.264 289.167 224.304 287.098 224.324 284.389ZM229.771 281.078C227.896 281.102 226.354 282.598 226.342 284.401C226.334 286.065 227.372 287.225 228.877 287.225C230.866 287.229 232.703 285.565 232.715 283.746C232.728 282.164 231.505 281.057 229.771 281.078Z" fill="#982176"/>
<path d="M239.953 273.558C243.808 273.554 246.035 275.308 246.228 278.496C246.408 281.492 244.846 283.168 241.122 283.983C240.126 283.778 239.1 283.631 238.214 283.09C234.917 281.074 235.069 276.402 238.506 274.291C238.965 274.013 239.469 273.8 239.953 273.558ZM242.771 281.487C244.489 280.524 244.903 279.029 244.054 277.385C243.312 275.947 242.16 274.849 240.281 275.75C238.264 276.672 237.341 278.377 237.968 280.008C238.6 281.647 240.568 282.254 242.771 281.487Z" fill="#982176"/>
<path d="M56.7302 86.2237C56.558 84.1132 57.5627 83.4821 58.8382 83.1379C63.698 81.8142 68.5496 80.4536 73.434 79.216C85.1796 76.2368 96.9128 73.2124 108.699 70.4052C122.085 67.217 135.545 64.3811 149.218 62.6599C151.207 62.4099 152.335 63.1681 152.917 64.9999C153.918 68.139 154.041 71.4257 154.624 74.6385C154.829 75.7778 155.05 76.9129 155.308 78.044C155.854 80.425 155.083 81.7896 152.778 82.2896C137.473 85.6172 122.147 88.8506 106.858 92.2601C95.6907 94.7517 84.5685 97.4646 73.4299 100.087C70.5796 100.759 67.7376 101.444 64.8996 102.153C62.8532 102.665 61.6679 101.927 61.1102 99.8784C59.9291 95.5427 58.6208 91.2438 56.9025 87.0802C56.7138 86.6499 56.7138 86.1458 56.7302 86.2237ZM97.2286 74.8229C96.2771 75.0442 96.3428 75.7327 96.5683 76.5236C97.0071 78.0891 97.4911 79.6422 97.8315 81.2282C98.4999 84.3509 99.0044 87.5105 100.362 90.4447C100.653 91.0758 100.936 91.8462 101.805 91.4774C102.699 91.1004 102.293 90.3054 102.027 89.7234C101.28 88.1006 100.854 86.3917 100.456 84.6664C99.8164 81.888 99.1438 79.1218 98.4671 76.3515C98.3031 75.704 98.1842 74.9828 97.2286 74.8229ZM124.726 69.7618C125.879 74.5975 126.506 79.6873 128.426 84.4533C128.664 85.0435 129.004 85.6541 129.754 85.3508C130.603 85.0066 130.411 84.3468 130.099 83.6501C128.762 80.6422 128.229 77.417 127.581 74.2205C127.245 72.5608 126.781 70.9298 126.371 69.2824C126.24 68.7537 125.879 68.4054 125.346 68.5201C124.817 68.6431 124.644 69.1103 124.726 69.7618ZM82.9855 78.5972C82.317 78.6587 81.9725 79.0316 82.116 79.6914C83.1659 84.5189 83.9451 89.4202 85.7455 94.0633C85.9629 94.6206 86.2212 95.1165 86.8692 94.9607C87.6812 94.764 87.6443 94.0879 87.4229 93.4772C85.8029 88.9858 84.8843 84.3263 84.0025 79.6586C83.9041 79.1341 83.7155 78.5726 82.9855 78.5972ZM139.839 65.5654C139.138 65.5122 138.773 65.9138 138.834 66.8276C139.158 71.5404 140.27 76.081 141.922 80.4946C142.156 81.1134 142.501 81.6503 143.255 81.3265C143.985 81.011 143.879 80.425 143.628 79.7857C141.996 75.6466 141.09 71.3437 140.708 66.9219C140.651 66.2785 140.503 65.713 139.839 65.5654ZM116.184 86.4491C115.072 82.0437 114.215 77.2244 112.53 72.6141C112.317 72.0363 111.988 71.6183 111.328 71.8723C110.68 72.1223 110.693 72.7083 110.865 73.2575C112.292 77.8022 113.448 82.4166 114.412 87.0802C114.535 87.6785 114.79 88.1334 115.474 88.0637C116.282 87.9818 116.118 87.3343 116.184 86.4491ZM74.4757 96.7762C74.4183 96.2803 74.3691 96.0139 74.3526 95.7394C74.1312 91.5594 72.2939 87.7195 71.8305 83.5928C71.7484 82.8633 71.6295 82.0601 70.797 82.1502C69.8004 82.2568 69.9686 83.1092 70.0547 83.9124C70.5263 88.3178 72.462 92.4159 72.7245 96.8581C72.7573 97.436 73.1059 97.9523 73.7744 97.8376C74.4593 97.7228 74.4962 97.1245 74.4757 96.7762Z" fill="#102C57"/>
<path d="M229.772 281.077C231.507 281.052 232.729 282.163 232.717 283.749C232.705 285.568 230.871 287.232 228.878 287.228C227.373 287.224 226.332 286.068 226.344 284.404C226.356 282.597 227.898 281.101 229.772 281.077Z" fill="#FEE4EB"/>
<path d="M242.774 281.488C240.571 282.254 238.603 281.648 237.971 280.005C237.344 278.374 238.271 276.673 240.284 275.747C242.995 276.845 242.597 279.292 242.774 281.488Z" fill="#FEE4EB"/>
</g>
<defs>
<clipPath id="clip0_678_10679">
<rect width="325" height="322" fill="white"/>
</clipPath>
</defs>
</svg>
