<svg width="12" height="13" viewBox="0 0 12 13" fill="none" xmlns="http://www.w3.org/2000/svg">
<g id="Area" clip-path="url(#clip0_487_544)">
<g id="hv33DS.tif_1_">
<g id="Group">
<path id="Vector" d="M0 0.5C4.00391 0.5 7.99609 0.5 11.9941 0.5C11.9941 4.49804 11.9941 8.49022 11.9941 12.4941C11.002 12.4941 10.0098 12.4941 8.99413 12.4941C8.99413 11.9305 8.99413 11.3728 8.99413 10.7798C8.34247 11.1967 8.02544 11.7603 7.99022 12.5C5.32485 12.5 2.66536 12.5 0 12.5C0 8.50196 0 4.50391 0 0.5ZM10.0039 9.5C10.0039 10.1751 10.0039 10.8327 10.0039 11.502C10.2975 11.502 10.5675 11.4961 10.8376 11.5078C10.9667 11.5137 11.002 11.4726 11.002 11.3434C10.9961 9.94618 11.002 8.54892 10.9961 7.15166C10.9961 7.1047 10.9902 7.05773 10.9902 6.99315C9.81605 6.99315 8.65949 6.99315 7.49706 6.99315C7.49706 6.65851 7.49706 6.33562 7.49706 6.00098C8.66536 6.00098 9.82192 6.00098 10.9902 6.00098C10.9902 5.9364 10.9961 5.88943 10.9961 5.84247C10.9961 4.45108 10.9961 3.05969 11.002 1.6683C11.002 1.53327 10.9667 1.49804 10.8317 1.49804C9.27593 1.49804 7.71429 1.49804 6.15851 1.49804C6.10568 1.49804 6.05284 1.49804 5.98826 1.49804C5.98826 2.17906 5.98826 2.8366 5.98826 3.49413C5.64775 3.49413 5.32485 3.49413 4.99022 3.49413C4.99022 2.82485 4.99022 2.16732 4.99022 1.50978C4.94325 1.49804 4.91977 1.49804 4.89041 1.49804C3.63405 1.49804 2.37769 1.49804 1.12133 1.49804C1.00391 1.49804 0.986301 1.54501 0.986301 1.64481C0.986301 3.05382 0.986301 4.45695 0.986301 5.86595C0.986301 5.90705 0.992172 5.94814 0.992172 5.99511C2.33072 5.99511 3.65166 5.99511 4.99609 5.99511C4.99609 5.66047 4.99609 5.33757 4.99609 5.01468C5.3366 5.01468 5.65362 5.01468 5.98239 5.01468C5.98239 6.01272 5.98239 6.99902 5.98239 7.99119C5.64775 7.99119 5.32485 7.99119 4.98434 7.99119C4.98434 7.65656 4.98434 7.33366 4.98434 7.01076C3.64579 7.01076 2.32485 7.01076 0.992172 7.01076C0.986301 7.05773 0.986301 7.09296 0.986301 7.13405C0.986301 8.54305 0.986301 9.95793 0.980431 11.3669C0.980431 11.4902 1.0274 11.5078 1.13307 11.5078C2.37182 11.5078 3.6047 11.5078 4.84344 11.5078C4.89041 11.5078 4.93738 11.502 4.99609 11.502C4.99609 10.8268 4.99609 10.1751 4.99609 9.51174C5.33072 9.51174 5.65362 9.51174 5.99413 9.51174C5.99413 10.181 5.99413 10.8386 5.99413 11.5078C6.37573 11.5078 6.73386 11.5078 7.09785 11.502C7.13307 11.502 7.18591 11.4491 7.19765 11.408C7.4501 10.7975 7.84932 10.3102 8.40705 9.95793C8.88845 9.65264 9.41096 9.50587 10.0039 9.5Z" fill="#AAB6C5"/>
</g>
</g>
</g>
<defs>
<clipPath id="clip0_487_544">
<rect width="11.9941" height="12" fill="white" transform="translate(0 0.5)"/>
</clipPath>
</defs>
</svg>
