<svg width="13" height="13" viewBox="0 0 13 13" fill="none" xmlns="http://www.w3.org/2000/svg">
<g id="Bath" clip-path="url(#clip0_487_556)">
<g id="_x33_kSCCg.tif_1_">
<g id="Group">
<path id="Vector" d="M5.85373 1.80354C6.05921 1.6098 6.22359 1.43368 6.41733 1.28104C7.19228 0.682212 8.24316 0.717437 8.97115 1.3691C9.24121 1.6098 9.48191 1.89161 9.72849 2.13818C8.31948 3.54131 6.91048 4.95031 5.48387 6.37693C5.1962 6.07164 4.86156 5.77223 4.59737 5.41998C4.02203 4.6509 4.11596 3.57654 4.77937 2.88378C4.90265 2.76049 5.03181 2.64307 5.17858 2.50804C4.87917 2.22037 4.61498 1.9327 4.31557 1.692C4.02203 1.45716 3.66391 1.43955 3.3234 1.60393C2.98289 1.76832 2.79502 2.03838 2.7598 2.41411C2.75393 2.4963 2.75393 2.57849 2.75393 2.66069C2.75393 5.86616 2.75393 9.07751 2.75393 12.283C2.75393 12.3476 2.75393 12.418 2.75393 12.4943C2.41342 12.4943 2.09052 12.4943 1.75588 12.4943C1.75588 12.4415 1.75001 12.3887 1.75001 12.3417C1.74414 9.08339 1.74414 5.81333 1.74414 2.54914C1.74414 1.5511 2.38406 0.746791 3.35275 0.547182C4.01616 0.412153 4.60911 0.588278 5.10813 1.0462C5.36645 1.28691 5.60128 1.54523 5.85373 1.80354ZM8.31361 2.13818C7.9731 1.78593 7.36841 1.74483 6.9868 2.10883C6.4643 2.60198 5.95353 3.10687 5.46625 3.62937C5.10813 4.01098 5.14923 4.6509 5.50735 4.95031C6.44081 4.01098 7.37428 3.07752 8.31361 2.13818Z" fill="#AAB6C5"/>
<path id="Vector_2" d="M6.61914 6.74739C6.83636 6.53017 7.06532 6.30121 7.28255 6.08398C7.80505 6.60649 8.34517 7.14661 8.86767 7.67498C8.65632 7.88633 8.42736 8.1153 8.20427 8.33839C7.68763 7.81588 7.14752 7.27577 6.61914 6.74739Z" fill="#AAB6C5"/>
<path id="Vector_3" d="M10.2915 6.27167C10.0802 6.48302 9.84534 6.71199 9.62812 6.93508C9.09974 6.4067 8.55963 5.86659 8.03125 5.33821C8.24847 5.12099 8.47743 4.89203 8.70053 4.6748C9.21716 5.19731 9.75728 5.73743 10.2915 6.27167Z" fill="#AAB6C5"/>
<path id="Vector_4" d="M11.0226 5.53766C10.5119 5.0269 9.99525 4.5044 9.47862 3.98776C9.46101 3.97015 9.43752 3.94667 9.42578 3.93492C9.66061 3.70009 9.88958 3.47113 10.1068 3.25391C10.6352 3.78228 11.1753 4.3224 11.7095 4.85665C11.4923 5.06213 11.2634 5.29109 11.0226 5.53766Z" fill="#AAB6C5"/>
</g>
</g>
</g>
<defs>
<clipPath id="clip0_487_556">
<rect width="12" height="12" fill="white" transform="translate(0.994141 0.5)"/>
</clipPath>
</defs>
</svg>
