<svg width="16" height="16" viewBox="0 0 16 16" fill="none" xmlns="http://www.w3.org/2000/svg">
<g id="Frame">
<g id="tOO5Mo.tif_1_">
<g id="Group">
<path id="Vector" d="M14.0078 13.0275C13.6784 13.3569 13.3725 13.6627 13.051 13.9843C11.3882 12.3216 9.7098 10.6431 8.01569 8.94902C6.31372 10.651 4.63529 12.3294 2.96471 14C2.64314 13.6784 2.33725 13.3725 2.02353 13.0588C3.69412 11.3882 5.37255 9.7098 7.04314 8.03922C5.34118 6.3451 3.66275 4.66667 2 3.00392C2.3451 2.65882 2.65098 2.3451 2.96471 2.03137C4.61961 3.68627 6.29804 5.36471 7.97647 7.03529C9.67059 5.34118 11.349 3.66275 13.0118 2C13.349 2.33725 13.6549 2.64314 13.9686 2.94902C12.3137 4.60392 10.6275 6.28235 8.94118 7.96863C10.6588 9.67843 12.3373 11.3647 14.0078 13.0275Z" fill="#9999B8"/>
</g>
</g>
</g>
</svg>
