<svg width="16" height="16" viewBox="0 0 16 16" fill="none" xmlns="http://www.w3.org/2000/svg">
<g id="Frame" clip-path="url(#clip0_1_3055)">
<g id="tKSulc.tif_1_">
<g id="Group">
<path id="Vector" d="M12.3227 7.31477C12.3227 9.49979 12.3227 11.677 12.3227 13.862C12.3227 14.4337 12.5654 14.6765 13.145 14.6765C13.3486 14.6765 13.5522 14.6687 13.748 14.6922C14.0926 14.7313 14.3354 15.0289 14.3197 15.3657C14.3041 15.7181 14.03 15.9844 13.6775 15.9922C13.4896 16 13.3016 15.9922 13.1137 15.9922C9.32315 15.9922 5.53264 15.9922 1.74214 15.9922C1.32706 15.9922 1.05296 15.7729 1.00597 15.4205C0.958978 15.0602 1.19393 14.7391 1.55418 14.6922C1.7813 14.6687 2.00841 14.6765 2.23553 14.6687C2.74459 14.6608 3.00303 14.4102 3.00303 13.8933C3.00303 11.3637 3.00303 8.8341 3.00303 6.31232C3.00303 4.47189 3.00303 2.63929 3.00303 0.798863C3.00303 0.234987 3.24581 -0.00779338 3.80969 -0.00779338C6.37063 -0.00779338 8.92374 3.82401e-05 11.4847 -0.015625C11.9389 -0.015625 12.3305 0.211492 12.3227 0.814527C12.3148 2.99172 12.3227 5.15324 12.3227 7.31477ZM4.34224 8.01962C4.34224 9.99319 4.34224 11.9668 4.34224 13.9403C4.34224 14.4102 4.60068 14.6765 5.07841 14.6765C5.47782 14.6765 5.8694 14.6765 6.26882 14.6765C6.72305 14.6765 6.96583 14.4494 6.99716 13.9951C7.02848 13.6349 7.30259 13.3686 7.64718 13.3686C8.00744 13.3608 8.28937 13.6271 8.3207 13.9873C8.35986 14.4572 8.59481 14.6765 9.0647 14.6765C9.45629 14.6765 9.84787 14.6765 10.2394 14.6765C10.7485 14.6765 10.9991 14.4259 10.9991 13.9247C10.9991 9.99319 10.9991 6.05388 10.9991 2.12241C10.9991 1.60552 10.7485 1.36274 10.2316 1.36274C8.52432 1.36274 6.81703 1.36274 5.11757 1.36274C4.59285 1.36274 4.34224 1.61335 4.34224 2.1459C4.34224 4.09598 4.34224 6.06171 4.34224 8.01962Z" fill="#191F23"/>
<path id="Vector_2" d="M7.00327 3.35912C7.00327 3.50009 7.00327 3.64889 7.00327 3.78986C7.00327 3.93866 6.93279 4.01697 6.79182 4.01697C6.48638 4.02481 6.18095 4.02481 5.87552 4.01697C5.73455 4.01697 5.66406 3.93866 5.66406 3.78986C5.66406 3.50009 5.66406 3.20249 5.66406 2.91272C5.66406 2.76392 5.73455 2.67777 5.88335 2.66994C6.18095 2.6621 6.47855 2.6621 6.78398 2.66994C6.93279 2.66994 7.0111 2.75608 7.00327 2.90488C6.99544 3.06152 7.00327 3.21032 7.00327 3.35912Z" fill="#191F23"/>
<path id="Vector_3" d="M9.65952 3.34346C9.65952 3.48442 9.65952 3.63323 9.65952 3.77419C9.66735 3.93866 9.5812 4.01698 9.42457 4.01698C9.1348 4.01698 8.8372 4.01698 8.54743 4.01698C8.39863 4.01698 8.32031 3.93866 8.32031 3.78203C8.32031 3.49226 8.32031 3.19465 8.32031 2.90488C8.32031 2.74825 8.40646 2.66994 8.54743 2.66994C8.84503 2.6621 9.14263 2.6621 9.44807 2.66994C9.5812 2.66994 9.65952 2.74825 9.65952 2.89705C9.65952 3.04585 9.65952 3.19465 9.65952 3.34346Z" fill="#191F23"/>
<path id="Vector_4" d="M7.00327 6.04465C7.00327 6.18562 7.00327 6.32659 7.00327 6.47539C7.00327 6.61636 6.94062 6.69468 6.79182 6.69468C6.48638 6.69468 6.18095 6.69468 5.87552 6.69468C5.72672 6.69468 5.66406 6.62419 5.66406 6.47539C5.66406 6.17779 5.66406 5.88019 5.66406 5.58259C5.66406 5.42595 5.73455 5.35547 5.89118 5.35547C6.18095 5.35547 6.47855 5.35547 6.76832 5.35547C6.93278 5.35547 7.00327 5.43378 7.00327 5.59042C6.99544 5.74705 7.00327 5.89585 7.00327 6.04465Z" fill="#191F23"/>
<path id="Vector_5" d="M6.34541 8.01953C6.48638 8.01953 6.62735 8.01953 6.77615 8.01953C6.92495 8.01953 7.00327 8.09002 7.00327 8.24665C7.00327 8.54425 7.00327 8.84185 7.00327 9.13945C7.00327 9.28825 6.93279 9.35874 6.79182 9.35874C6.48638 9.35874 6.18095 9.35874 5.87552 9.35874C5.72672 9.35874 5.66406 9.28042 5.66406 9.13945C5.66406 8.84185 5.66406 8.54425 5.66406 8.24665C5.66406 8.09002 5.74238 8.02736 5.89901 8.02736C6.04781 8.01953 6.19661 8.01953 6.34541 8.01953Z" fill="#191F23"/>
<path id="Vector_6" d="M9.00949 5.35547C9.15046 5.35547 9.29926 5.35547 9.44023 5.35547C9.5812 5.35547 9.65952 5.41812 9.65952 5.56692C9.65952 5.87236 9.65952 6.17779 9.65952 6.48322C9.65952 6.63202 9.5812 6.69468 9.44023 6.69468C9.14263 6.69468 8.84503 6.69468 8.5396 6.69468C8.3908 6.69468 8.32031 6.62419 8.32031 6.48322C8.32031 6.18562 8.32031 5.88802 8.32031 5.58259C8.32031 5.42595 8.40646 5.3633 8.55526 5.3633C8.71189 5.35547 8.86069 5.35547 9.00949 5.35547Z" fill="#191F23"/>
<path id="Vector_7" d="M9.65952 8.70088C9.65952 8.84185 9.65952 8.99065 9.65952 9.13162C9.65952 9.27259 9.59687 9.35091 9.44807 9.35091C9.14263 9.35091 8.8372 9.35091 8.53177 9.35091C8.38297 9.35091 8.32031 9.27259 8.32031 9.13162C8.32031 8.84185 8.32031 8.54425 8.32031 8.25448C8.32031 8.10568 8.3908 8.01953 8.5396 8.01953C8.8372 8.01953 9.1348 8.01953 9.44023 8.01953C9.5812 8.01953 9.65952 8.09002 9.65952 8.23882C9.65952 8.38762 9.65952 8.54425 9.65952 8.70088Z" fill="#191F23"/>
<path id="Vector_8" d="M5.66406 11.3493C5.66406 11.2005 5.66406 11.0517 5.66406 10.9029C5.66406 10.7619 5.74238 10.6836 5.88335 10.6836C6.18095 10.6836 6.47855 10.6836 6.78398 10.6836C6.92495 10.6836 7.00327 10.7541 7.00327 10.9029C7.00327 11.2083 7.00327 11.5137 7.00327 11.8192C7.00327 11.9601 6.92495 12.0228 6.79182 12.0228C6.48638 12.0228 6.18095 12.0228 5.87552 12.0228C5.73455 12.0228 5.66406 11.9445 5.66406 11.8035C5.66406 11.6469 5.66406 11.4981 5.66406 11.3493Z" fill="#191F23"/>
<path id="Vector_9" d="M9.6595 11.3489C9.6595 11.5055 9.6595 11.6621 9.6595 11.8188C9.6595 11.9441 9.58902 12.0146 9.47154 12.0146C9.15045 12.0146 8.83718 12.0146 8.51608 12.0146C8.39078 12.0146 8.32812 11.9362 8.32812 11.8109C8.32812 11.5133 8.32812 11.2157 8.32812 10.9103C8.32812 10.7615 8.40644 10.6754 8.55524 10.6754C8.85284 10.6675 9.15045 10.6754 9.45588 10.6754C9.59685 10.6754 9.66733 10.7537 9.66733 10.8946C9.6595 11.0513 9.6595 11.2001 9.6595 11.3489Z" fill="#191F23"/>
</g>
</g>
</g>
<defs>
<clipPath id="clip0_1_3055">
<rect width="16" height="16" fill="white"/>
</clipPath>
</defs>
</svg>
