<svg width="108" height="112" viewBox="0 0 108 112" fill="none" xmlns="http://www.w3.org/2000/svg">
<g id="JqAili.tif_1_">
<g id="Group">
<path id="Vector" d="M57.3521 91.5993C56.339 91.3519 55.3259 91.1293 54.3128 90.8324C52.962 90.4613 51.6372 89.9912 50.3124 89.4965C49.2993 89.1254 48.3382 88.68 47.377 88.2347C45.3249 87.2451 43.3766 86.0824 41.4543 84.8949C39.61 83.7321 37.8955 82.3714 36.1811 81.0355C34.3627 79.6253 32.7002 78.0914 31.0896 76.4834C30.9857 76.3844 30.9338 76.2854 30.9597 76.1617C31.0117 76.1617 31.0896 76.137 31.1416 76.137C35.9732 76.1617 40.4932 74.9742 44.8313 73.0198C49.2733 71.0406 53.2737 68.3935 57.1443 65.5237C57.2482 65.5484 57.3521 65.5731 57.43 65.6226C58.3392 66.2906 59.2744 66.1174 60.1316 65.6474C61.0667 65.1526 61.5863 64.3609 61.5343 63.2723C61.5084 62.9012 61.1966 62.6539 61.2746 62.2828C61.7941 61.7632 62.3396 61.2684 62.9371 60.8231C63.5605 60.8973 64.106 61.1942 64.7814 61.2437C66.1062 61.3426 67.8467 60.0314 67.8986 58.7697C67.9506 57.8543 67.7947 57.0132 67.509 56.1473C67.5609 55.9741 67.6908 55.8504 67.8207 55.7515C67.9506 55.7267 68.0025 55.6278 68.0285 55.5288C68.652 54.7371 69.1455 53.8713 69.8729 53.1785C69.8729 53.3517 69.8729 53.5496 69.8988 53.7228C70.0027 56.1968 70.4443 58.5718 71.3795 60.8973C71.4574 61.12 71.5354 61.4169 71.899 61.3179C72.2627 61.2189 72.1848 60.9715 72.0809 60.7242C70.9899 57.9286 70.5223 55.0588 70.6262 52.0653C70.7041 51.8673 70.782 51.6694 70.8859 51.4962C71.7692 50.0861 72.5225 48.6017 73.1459 47.0678C74.4707 43.8022 75.1721 40.4128 75.0682 36.8751C75.0162 35.4402 74.7305 34.0547 74.5227 32.6693C75.2241 32.892 75.6916 33.4115 76.2112 33.8568C77.7438 35.168 79.1206 36.6029 80.4194 38.1121C81.6143 39.5222 82.6274 41.0313 83.5886 42.5899C84.7315 44.4454 85.6927 46.3504 86.42 48.379C87.0175 50.0366 87.563 51.7189 87.9526 53.4507C88.2384 54.7866 88.628 56.1226 88.8878 57.4585C89.1995 59.1161 89.5632 60.7489 89.9788 62.3817C90.3685 63.9651 90.7841 65.5731 91.4335 67.0823C90.5763 67.3791 89.7191 67.6265 88.8878 67.9482C83.069 70.2242 77.484 72.9208 72.3147 76.3597C67.8986 79.3284 63.9761 82.792 60.6771 86.8988C59.4562 88.4079 58.4171 90.016 57.3521 91.5993ZM49.8968 76.4091C49.663 76.4091 49.4292 76.4091 49.1954 76.4091C48.9356 76.4091 48.6239 76.4339 48.6239 76.7555C48.6239 77.0771 48.9356 77.1018 49.1954 77.1018C49.7929 77.1266 50.4163 77.0771 51.0138 77.1513C54.2089 77.6214 56.9624 78.9326 59.1185 81.2334C59.3263 81.456 59.5341 81.7777 59.8458 81.5055C60.1835 81.2334 59.8458 80.986 59.664 80.7881C57.0663 78.0667 53.7933 76.6318 49.8968 76.4091Z" fill="#F7C6DD"/>
<path id="Vector_2" d="M57.3534 91.5991C58.4185 90.0158 59.4316 88.3829 60.6525 86.8986C63.9515 82.7918 67.874 79.3282 72.29 76.3594C77.4594 72.8959 83.0444 70.1993 88.8632 67.9479C89.6944 67.6263 90.5517 67.3789 91.4089 67.082C92.396 66.9831 93.3312 66.6615 94.3183 66.612C95.6431 66.5378 96.6562 67.0078 97.5134 67.9232C98.6045 69.086 99.6695 70.2735 100.657 71.5105C102.943 74.3555 104.969 77.349 106.735 80.5157C106.787 80.6147 106.839 80.7384 106.891 80.8621C106.294 81.1342 105.618 81.2332 105.073 81.629C104.865 81.7774 104.631 81.9506 104.813 82.2475C104.995 82.5196 105.229 82.3959 105.488 82.2475C106.034 81.9259 106.605 81.6537 107.281 81.6043C107.774 82.4454 107.696 82.866 106.813 83.3855C104.631 84.6472 102.423 85.8595 100.267 87.146C94.0066 90.8817 88.0319 95.0132 82.6288 99.8622C78.9141 103.202 75.4852 106.789 72.5758 110.797C72.4459 110.97 72.316 111.119 72.1861 111.292C71.5627 112.108 70.9652 112.133 70.2639 111.366C70.4197 110.278 70.9652 109.362 71.7445 108.571C71.9264 108.397 72.1861 108.224 71.9004 107.952C71.6406 107.68 71.3809 107.878 71.173 108.076C71.0432 108.175 70.9393 108.323 70.8353 108.447C70.1859 109.115 69.9002 109.956 69.4846 110.748C67.926 109.585 66.5492 108.199 65.1724 106.839C61.9773 103.722 59.2238 100.283 56.5222 96.7945C55.6909 95.7059 55.587 94.6916 56.2364 93.5288C56.678 92.9351 57.0157 92.2671 57.3534 91.5991ZM69.4846 101.841C71.5887 101.742 73.6668 100.728 75.0436 98.551C76.0307 96.9676 75.8748 94.9884 74.6799 93.7762C73.511 92.6134 72.0563 92.1434 70.3937 92.2918C68.1857 92.4897 66.4453 93.5783 64.9646 95.0379C64.2113 95.7801 63.8476 96.745 63.9775 97.8088C64.2113 100.159 66.3154 101.841 69.4846 101.841ZM78.6543 100.456C78.8362 100.431 78.9401 100.307 79.07 100.184C79.4336 99.7632 79.7973 99.3179 80.187 98.9221C81.252 97.8335 82.421 96.8192 83.7198 95.9533C83.9536 95.8049 84.1614 95.6317 83.9536 95.3595C83.7717 95.0874 83.538 95.2111 83.3301 95.3348C83.1743 95.409 83.0444 95.508 82.8885 95.6069C81.8495 96.3244 80.9403 97.1408 80.0311 98.0067C79.4596 98.551 78.8881 99.12 78.4465 99.788C78.2647 100.085 78.2647 100.332 78.6543 100.456ZM76.784 102.163C76.758 102.064 76.7061 101.94 76.6022 101.891C76.3944 101.817 76.2385 101.866 76.0567 101.99C74.6799 103.029 73.7967 104.439 72.9395 105.849C72.8356 106.022 72.8615 106.22 73.0693 106.319C73.2772 106.418 73.459 106.369 73.5889 106.196C73.7188 106.047 73.7967 105.899 73.9006 105.725C74.6279 104.538 75.4332 103.4 76.5502 102.509C76.6801 102.435 76.758 102.336 76.784 102.163ZM102.501 83.0392C102.423 83.0639 102.267 83.0639 102.111 83.1134C100.631 83.5834 99.3318 84.3256 98.2408 85.4142C98.033 85.6121 97.7992 85.81 98.0849 86.1069C98.3966 86.4038 98.6044 86.1316 98.7863 85.9337C99.5396 85.1915 100.397 84.573 101.41 84.1772C101.826 84.004 102.267 83.8803 102.683 83.7071C102.891 83.6329 102.995 83.4845 102.943 83.2866C102.917 83.0886 102.761 83.0144 102.501 83.0392ZM92.396 89.9415C92.4739 89.8921 92.5779 89.8426 92.6818 89.7684C93.7468 88.8777 94.9417 88.1108 96.1886 87.4676C96.4224 87.3439 96.7081 87.2449 96.5523 86.9233C96.3704 86.6017 96.0847 86.7254 95.8249 86.8491C94.8898 87.2697 94.0325 87.8139 93.2013 88.4324C92.8376 88.7046 92.448 89.0014 92.1103 89.2983C91.9804 89.422 91.9025 89.5705 92.0064 89.7436C92.0583 89.8673 92.1622 89.9415 92.396 89.9415ZM86.5772 93.8999C86.6552 93.8504 86.7591 93.8257 86.837 93.7515C87.8761 92.8361 89.019 92.0692 90.214 91.3764C90.4218 91.2527 90.5517 91.1043 90.4218 90.8569C90.2919 90.6343 90.0581 90.6343 89.8503 90.758C89.3827 91.0054 88.9151 91.2775 88.4735 91.5744C87.7202 92.0444 87.0188 92.6134 86.3694 93.2072C86.2136 93.3309 86.1097 93.4793 86.2136 93.702C86.2655 93.8257 86.3694 93.8999 86.5772 93.8999Z" fill="#EC255A"/>
<path id="Vector_3" d="M67.8473 55.7513C67.6914 55.8503 67.5875 55.974 67.5356 56.1472C67.1719 56.1472 67.068 55.8255 66.8342 55.6524C66.3406 55.2565 65.925 55.207 65.5354 55.6029C64.5223 56.6667 63.5351 57.7552 62.7039 58.9427C62.3662 59.4128 62.3662 59.8581 62.7558 60.2787C62.8857 60.4271 63.0676 60.5756 62.9637 60.7982C62.3662 61.2435 61.7947 61.7383 61.3011 62.2579C61.0933 62.3074 60.9635 62.2084 60.8336 62.06C60.2881 61.5404 59.7166 61.5404 59.1191 62.0352C58.3398 62.7032 57.6125 63.3712 56.8591 64.0639C56.5474 64.336 56.5474 64.6329 56.7552 64.9545C56.8851 65.1524 57.015 65.3256 57.1709 65.4988C53.3263 68.3686 49.2999 71.0157 44.8579 72.9949C40.5198 74.9246 35.9998 76.1369 31.1682 76.1121C31.1162 76.1121 31.0383 76.1369 30.9863 76.1369C29.2719 75.9389 27.5574 75.8152 25.8689 75.3947C22.0763 74.4298 18.6994 72.797 15.9718 70.0261C13.4521 67.478 12.1272 64.4102 11.7376 60.9467C11.4519 58.4232 11.8415 55.974 12.3351 53.5247C12.3351 53.5 12.361 53.4505 12.361 53.4258C12.387 53.2773 12.387 53.1537 12.413 53.0052C12.4649 52.931 12.5169 52.8568 12.5429 52.7826C13.4261 49.5664 14.7769 46.4987 16.3095 43.5052C16.907 42.3177 17.6603 41.2291 18.2058 40.0416C18.2577 39.9921 18.3097 39.9674 18.3357 39.9179C20.0501 37.0976 22.0503 34.4504 24.2324 31.927C25.3234 30.8384 26.4144 29.7499 27.5055 28.6366C28.2588 28.0181 28.9861 27.3996 29.7395 26.7811C31.9994 24.9751 34.4412 23.466 37.0389 22.1548C38.4157 21.5858 39.7665 21.0168 41.1432 20.423C44.1565 19.4829 47.2218 18.7654 50.4169 18.518C52.0534 18.4191 53.69 18.4191 55.3265 18.5428C58.2359 18.7654 61.0154 19.3592 63.665 20.522C63.9508 20.6457 64.2625 20.7446 64.5742 20.8436C64.5742 21.3878 64.5482 21.9321 64.9379 22.3527C66.3147 23.8123 67.8473 24.9504 70.0813 24.7524C72.1854 26.979 73.6401 29.5272 74.4454 32.397C74.4713 32.4712 74.5233 32.5207 74.5752 32.5949C74.7831 34.0051 75.0688 35.3905 75.1208 36.8007C75.2506 40.3385 74.5493 43.7031 73.1985 46.9935C72.575 48.5273 71.8217 50.0117 70.9385 51.4219C70.8346 51.5951 70.7567 51.793 70.6787 51.9909C70.2631 52.263 70.0813 52.6589 69.9254 53.1042C69.1981 53.8216 68.7045 54.6875 68.0811 55.4544C67.9252 55.5781 67.8733 55.6524 67.8473 55.7513ZM37.2727 70.323C39.2209 69.7293 41.1692 69.0613 43.0135 68.1954C43.1954 68.3686 43.4292 68.3933 43.663 68.3191C44.2345 68.1212 44.8059 67.948 45.3515 67.6759C47.7933 66.4636 49.9753 64.8803 52.1054 63.2475C55.1706 60.8724 58.0281 58.3243 60.6517 55.5534C60.9115 55.2813 61.1453 55.0339 60.8855 54.638C61.9246 53.3516 62.9637 52.0651 64.0027 50.7786C64.5482 50.9271 64.6781 50.457 64.86 50.1849C66.4445 47.8099 67.9772 45.4101 68.9643 42.7382C70.1592 39.4726 70.3151 36.1575 69.5877 32.7681C69.5358 32.496 69.4578 32.1991 69.0422 32.1744C68.5227 30.5168 67.7953 28.9335 66.7563 27.4986C64.7561 24.7772 62.4701 22.4022 59.0672 21.2641C59.0152 20.8188 58.6515 20.7941 58.3138 20.7199C56.989 20.4725 55.6382 20.2746 54.2874 20.324C53.2484 20.3488 52.2093 20.2746 51.2222 20.5467C50.9364 20.6209 50.5987 20.6704 50.6247 21.0662C46.5464 21.7589 42.5719 22.8475 38.8313 24.5051C34.8828 26.2616 31.6358 29.0077 28.6225 31.9764C27.9471 32.6444 27.1937 33.2877 26.7002 34.1041C26.3365 34.1783 26.1547 34.4009 26.1027 34.7226C25.2195 35.5637 24.4662 36.5286 23.7388 37.4934C20.3359 41.9713 17.1667 46.5729 15.8159 52.0898C15.3224 54.0938 14.8808 56.0977 14.9068 58.1758C14.595 58.25 14.5431 58.448 14.5171 58.7201C14.4911 59.6602 14.673 60.5508 14.9587 61.4415C15.6341 63.5691 16.829 65.3998 18.3617 67.0574C21.6347 70.6199 25.765 72.129 30.7006 71.659C30.9863 71.6342 31.324 71.6342 31.4799 71.3126C32.2852 71.3868 33.0645 71.2136 33.8697 71.1147C34.0256 71.2879 34.1815 71.4116 34.4672 71.3868C35.2465 71.2879 35.9998 71.1394 36.7272 70.9168C37.0129 70.8178 37.2467 70.6941 37.1428 70.3478C37.1428 70.3478 37.2207 70.323 37.2727 70.323Z" fill="#982176"/>
<path id="Vector_4" d="M17.1145 107.284C14.0233 107.26 10.9321 107.185 7.89278 106.592C6.3082 106.295 4.72362 105.948 3.26893 105.206C-0.159996 103.499 -0.52367 100.159 0.775165 97.4131C2.074 94.667 4.51581 93.2568 7.39923 92.5146C11.8672 91.3519 16.3872 91.4756 20.9071 92.1435C23.271 92.4899 25.6089 93.0837 27.8429 93.9001C29.2197 94.4196 30.5185 95.0628 31.6095 96.0277C32.6486 96.9431 32.7785 98.2295 32.9084 99.417C33.2201 101.99 31.9212 103.845 29.6872 105.132C27.4273 106.443 24.8815 106.839 22.3358 107.086C20.5694 107.309 18.829 107.309 17.1145 107.284ZM30.9341 100.852C30.8822 101.52 31.1679 102.188 31.0121 102.856C30.9861 103.029 31.09 103.177 31.2978 103.177C31.5316 103.177 31.6355 103.079 31.6874 102.856C31.7914 102.361 31.7914 101.891 31.6874 101.396C31.6355 100.976 31.4277 100.753 30.9341 100.852C31.064 100.703 31.1939 100.53 31.3238 100.382C31.8693 99.7139 32.181 98.9717 32.0251 98.0811C31.9732 97.7842 31.9212 97.5121 31.5576 97.5615C31.2199 97.611 31.2458 97.8832 31.2978 98.1553C31.4537 98.8975 31.1939 99.516 30.6224 100.06C29.2716 101.322 27.5052 101.817 25.7648 102.237C22.128 103.079 18.4393 103.375 14.6987 103.227C11.5035 103.103 8.36036 102.658 5.425 101.396C3.86639 100.728 2.20388 100.036 2.56756 97.9079C2.59353 97.7347 2.46365 97.5863 2.28181 97.5615C2.074 97.5368 1.94412 97.6358 1.89216 97.8089C1.84021 97.9574 1.81423 98.1306 1.78826 98.279C1.65837 99.2933 2.12595 100.06 2.93123 100.827C2.25584 100.877 2.17791 101.273 2.15193 101.693C2.12595 102.312 2.09998 102.93 2.074 103.549C2.074 103.845 2.02205 104.266 2.46365 104.266C2.90526 104.266 2.87928 103.87 2.8533 103.549C2.82732 102.856 2.87928 102.163 2.98319 101.446C3.03514 101.075 3.11307 100.951 3.47674 101.198C4.38593 101.817 5.39902 102.237 6.43809 102.559C6.85371 102.683 7.00958 102.831 6.85371 103.252C6.59395 103.994 6.49004 104.786 6.69785 105.552C6.74981 105.8 6.80176 106.072 7.16544 106.023C7.52911 105.973 7.47716 105.701 7.45118 105.454C7.37325 104.761 7.39923 104.068 7.58106 103.375C7.63302 103.128 7.73692 102.955 8.04864 103.029C9.73713 103.425 11.4776 103.697 13.218 103.821C13.6336 103.845 13.7635 104.043 13.7375 104.414C13.7116 105.033 13.7375 105.651 13.7375 106.27C13.7375 106.517 13.7895 106.74 14.1012 106.765C14.4389 106.765 14.4649 106.542 14.4649 106.295C14.4649 105.874 14.4649 105.429 14.4649 105.008C14.4909 103.944 14.2051 103.895 15.5559 103.994C15.8936 104.019 16.2573 104.019 16.595 103.994C17.8678 103.92 19.1407 103.845 20.4136 103.771C20.6993 103.746 20.8811 103.672 20.8552 104.167C20.8032 104.86 20.9331 105.552 20.8292 106.245C20.8032 106.443 20.9071 106.616 21.1409 106.641C21.4007 106.666 21.5565 106.542 21.5825 106.295C21.6085 106.023 21.6604 105.75 21.6604 105.503C21.6345 104.909 21.7903 104.241 21.2188 103.746C22.7255 103.499 24.2062 103.4 25.6349 103.004C25.8946 102.93 25.9466 103.004 25.9986 103.252C26.1025 103.994 26.1804 104.711 26.1544 105.454C26.1544 105.701 26.2064 105.924 26.5441 105.924C26.8038 105.924 26.9077 105.726 26.8818 105.478C26.8818 104.662 26.9857 103.821 26.648 103.029C26.5441 102.782 26.596 102.707 26.8298 102.658C28.3624 102.336 29.6613 101.644 30.9341 100.852ZM11.0619 95.3597C10.6203 95.3597 10.1528 95.3597 9.71115 95.3597C9.47736 95.3597 9.19162 95.3102 9.08771 95.5576C8.95783 95.8298 9.2176 95.9782 9.39943 96.1019C10.6463 97.2152 11.9192 98.3037 13.1661 99.3923C13.3479 99.5407 13.5557 99.8129 13.8155 99.5655C14.1012 99.2933 13.8674 99.0954 13.6336 98.8975C12.7245 98.1058 11.8153 97.3142 10.9061 96.5225C10.7762 96.3988 10.5164 96.2998 10.5944 96.1019C10.6723 95.8792 10.9321 95.9782 11.1139 96.0029C14.4649 96.2256 17.7639 96.5967 21.037 97.3389C21.4007 97.4131 21.5565 97.5615 21.4786 97.9326C21.3747 98.378 21.3227 98.8233 21.2708 99.2686C21.2448 99.516 21.1409 99.8623 21.5306 99.9118C21.9462 99.9613 21.9202 99.5902 21.9722 99.3428C22.18 98.0069 22.4138 96.6957 22.9073 95.4339C22.9853 95.2113 23.0112 95.0134 22.7255 94.9144C22.4397 94.8154 22.3358 95.0134 22.2579 95.2113C22.128 95.5329 21.9981 95.8792 21.9202 96.2009C21.8163 96.6462 21.6345 96.7451 21.1669 96.6214C17.8159 95.9782 14.4649 95.5329 11.0619 95.3597ZM8.41232 93.3558C6.61992 93.7764 4.95742 94.6423 3.58065 95.9782C3.42479 96.1266 3.42479 96.3246 3.60663 96.473C3.78846 96.5967 3.9703 96.572 4.15214 96.4483C4.43788 96.2009 4.72363 95.9535 5.03535 95.7308C6.10039 94.9391 7.3213 94.3949 8.62013 94.0732C8.8799 93.999 9.08771 93.9001 9.00978 93.6032C8.95783 93.3558 8.75001 93.3558 8.41232 93.3558ZM26.7519 94.766C26.5181 94.7412 26.2583 94.7412 26.2064 95.0628C26.1804 95.3597 26.4142 95.4339 26.648 95.4834C27.687 95.6813 28.6482 96.0029 29.4535 96.6957C29.6613 96.8688 29.921 97.0915 30.1808 96.8194C30.4406 96.5472 30.1548 96.3246 29.947 96.1514C29.0118 95.3845 27.9728 94.8649 26.7519 94.766ZM12.8803 92.4899C12.2309 92.5394 11.5815 92.6631 10.984 92.8363C10.7762 92.8857 10.5684 93.0342 10.6203 93.2816C10.6463 93.4795 10.8541 93.6279 11.0619 93.5537C11.8153 93.3311 12.5686 93.2816 13.3479 93.2074C13.5297 93.1826 13.6596 93.0589 13.6336 92.861C13.6336 92.6878 13.5297 92.5394 13.3219 92.5146C13.1661 92.5146 13.0102 92.5146 12.8803 92.4899ZM25.1413 101.718C25.7907 101.594 26.5441 101.446 27.1155 100.926C27.2974 100.778 27.4013 100.58 27.2454 100.382C27.1155 100.184 26.8818 100.209 26.7259 100.308C26.2064 100.728 25.5829 100.852 24.9595 101C24.7517 101.05 24.5439 101.149 24.5698 101.421C24.6218 101.668 24.8036 101.743 25.1413 101.718ZM10.2307 105.181C10.2307 105.379 10.2307 105.676 10.3346 105.973C10.3865 106.146 10.4905 106.27 10.6983 106.245C10.8801 106.22 11.036 106.121 11.036 105.924C11.0619 105.355 11.1139 104.786 11.1139 104.217C11.1139 104.019 10.958 103.87 10.7502 103.821C10.5164 103.771 10.4125 103.944 10.3346 104.118C10.2307 104.439 10.2567 104.736 10.2307 105.181ZM4.35995 103.549C4.33397 103.821 4.35995 104.118 4.48983 104.414C4.56776 104.612 4.7496 104.687 4.95742 104.637C5.16523 104.588 5.24316 104.439 5.19121 104.266C5.0873 103.796 5.0873 103.351 5.21718 102.881C5.26914 102.683 5.16523 102.509 4.93144 102.485C4.72363 102.435 4.56776 102.559 4.48983 102.757C4.4119 103.004 4.33397 103.252 4.35995 103.549ZM29.8951 103.524C29.921 103.301 29.8431 103.004 29.7132 102.757C29.6093 102.584 29.4535 102.46 29.2456 102.559C29.0638 102.633 28.9859 102.782 29.0378 102.955C29.1677 103.375 29.1677 103.796 29.0638 104.217C29.0118 104.39 29.1158 104.538 29.2976 104.588C29.5054 104.662 29.6353 104.538 29.7132 104.39C29.8691 104.142 29.8951 103.87 29.8951 103.524ZM24.8556 105.231C24.8296 105.033 24.8036 104.835 24.7517 104.637C24.6997 104.39 24.5698 104.192 24.2841 104.241C23.9724 104.291 23.9724 104.513 24.0243 104.761C24.0763 104.934 24.1022 105.132 24.1022 105.305C24.1282 105.577 24.0763 105.924 24.4659 105.899C24.9075 105.874 24.8296 105.528 24.8556 105.231Z" fill="#EC255A"/>
<path id="Vector_5" d="M42.3379 99.0707C45.0654 99.1202 47.6631 99.615 50.027 100.976C53.1442 102.757 53.326 106.765 50.3647 108.694C49.1438 109.486 47.715 109.783 46.2604 109.956C43.0392 110.377 39.8701 110.154 36.8568 108.892C35.8697 108.472 34.9345 107.928 34.3111 107.037C32.7525 104.835 33.3499 102.114 35.6878 100.679C37.714 99.417 40 99.1202 42.3379 99.0707ZM35.6619 106.443C35.6099 106.864 35.6619 107.26 35.7917 107.655C35.8437 107.878 35.9996 108.076 36.2853 108.026C36.597 107.977 36.5191 107.73 36.4931 107.532C36.4671 107.26 36.3892 107.012 36.3892 106.74C36.3632 106.369 36.4931 106.196 36.9087 106.418C37.4023 106.666 37.9218 106.888 38.4414 107.062C38.857 107.185 39.2466 107.235 38.857 107.779C38.7791 107.878 38.831 108.101 38.831 108.274C38.857 108.595 38.7011 109.09 39.1947 109.09C39.7402 109.09 39.4804 108.595 39.4804 108.299C39.5064 107.383 39.5324 107.358 40.4935 107.556C40.9871 107.655 41.6625 107.581 41.9742 107.853C42.3379 108.175 42.0781 108.818 42.1301 109.338C42.156 109.56 42.156 109.832 42.4678 109.832C42.8054 109.832 42.8574 109.585 42.8574 109.313C42.8574 109.14 42.8574 108.991 42.8574 108.818C42.8574 107.754 42.7275 107.903 43.7926 107.928C44.6238 107.928 45.4811 107.952 46.3123 107.804C47.4813 107.606 47.4813 107.606 47.5332 108.719C47.5332 108.942 47.5332 109.164 47.819 109.189C48.1047 109.214 48.2346 109.016 48.2606 108.769C48.2865 108.447 48.2865 108.101 48.2606 107.779C48.2346 107.482 48.3904 107.334 48.6502 107.309C48.9879 107.284 48.91 107.581 48.936 107.754C48.9619 107.952 48.91 108.175 48.91 108.373C48.91 108.571 48.9619 108.744 49.2217 108.769C49.4815 108.793 49.5854 108.645 49.6113 108.447C49.6373 108.15 49.7153 107.853 49.6633 107.581C49.5594 107.086 49.6633 106.74 50.1309 106.418C50.6244 106.072 50.8842 105.528 51.0401 104.959C51.092 104.736 51.144 104.439 50.8063 104.34C50.4166 104.241 50.3906 104.563 50.3387 104.786C50.1569 105.577 49.6373 106.072 48.91 106.443C48.4684 106.666 48.0008 106.864 47.5332 106.938C44.6498 107.482 41.7664 107.358 38.9609 106.493C37.3763 105.998 35.8697 105.404 35.4021 103.623C35.3501 103.474 35.2203 103.375 35.0644 103.4C34.8566 103.425 34.7786 103.549 34.7527 103.746C34.7267 104.266 34.9605 104.662 35.2722 105.033C35.6099 105.454 35.7658 105.899 35.6619 106.443ZM39.8701 100.159C38.4933 100.209 37.2464 100.605 36.2074 101.47C35.9996 101.644 35.7658 101.817 36.0255 102.089C36.2853 102.361 36.4931 102.138 36.6749 101.99C37.6101 101.297 38.6752 100.852 39.8701 100.852C40.1298 100.852 40.4675 100.901 40.4675 100.555C40.4935 100.184 40.1558 100.159 39.8701 100.159ZM44.8576 106.146C45.3252 106.171 45.7928 106.047 46.2604 105.998C46.4941 105.973 46.676 105.825 46.624 105.577C46.5721 105.355 46.3902 105.28 46.1824 105.33C45.533 105.454 44.8576 105.429 44.2082 105.429C44.0004 105.429 43.8185 105.454 43.7926 105.701C43.7666 105.973 43.9484 106.072 44.1822 106.097C44.39 106.146 44.6238 106.146 44.8576 106.146ZM50.5205 102.856C50.5465 102.312 49.4815 101.322 48.91 101.371C48.7801 101.371 48.6502 101.421 48.5983 101.545C48.5463 101.693 48.5723 101.866 48.7281 101.916C49.2737 102.138 49.6633 102.485 49.8971 103.004C49.975 103.153 50.1049 103.202 50.2867 103.153C50.4686 103.128 50.5205 103.004 50.5205 102.856Z" fill="#982176"/>
<path id="Vector_6" d="M37.0138 22.2046C34.4162 23.5158 31.9484 25.0249 29.7144 26.8309C28.9611 27.4494 28.2077 28.0679 27.4804 28.6864C27.2986 28.4885 27.3505 28.2658 27.3245 28.0431C27.2206 26.4351 27.1167 24.8517 27.2986 23.2436C27.4804 21.5861 27.7402 19.978 28.2337 18.3699C28.7273 16.7866 29.4286 15.3022 30.2859 13.892C31.0392 12.655 31.8964 11.517 33.0654 10.6264C34.3902 9.61205 36.1566 10.5274 36.7281 11.5665C37.1957 12.3829 37.2736 13.2241 37.2996 14.1147C37.3256 16.7124 37.0658 19.2853 36.884 21.8582C36.884 21.9819 36.806 22.1304 37.0138 22.2046Z" fill="#F7C6DD"/>
<path id="Vector_7" d="M24.18 31.952C21.998 34.4754 19.9978 37.1226 18.2833 39.9429C18.2573 39.9924 18.1794 40.0171 18.1534 40.0666C17.3481 37.4937 16.8806 34.8465 16.6728 32.1746C16.4649 29.8491 16.413 27.5236 16.7247 25.2475C16.9325 23.8126 17.1403 22.3282 17.9196 21.017C18.595 19.879 19.4003 19.0131 20.9329 19.0873C21.7122 19.1121 22.2318 19.4337 22.5175 20.1264C23.141 21.6603 23.4267 23.2683 23.5826 24.9012C23.7904 27.1525 23.6605 29.4038 24.0761 31.6304C24.0761 31.7293 24.154 31.853 24.18 31.952Z" fill="#F7C6DD"/>
<path id="Vector_8" d="M16.2569 43.5548C14.7243 46.5483 13.3735 49.5912 12.4903 52.8321C12.4643 52.9064 12.4124 52.9806 12.3604 53.0548C11.8149 52.7332 11.737 52.1642 11.5292 51.6694C11.0356 50.4077 10.4901 49.1459 10.1264 47.8347C9.78873 46.5483 9.47701 45.2618 9.21724 43.9506C8.82759 42.0704 8.82759 40.1902 8.87954 38.3099C8.90552 36.9492 9.08736 35.5638 9.42506 34.2279C9.7108 33.1146 10.4381 32.3477 11.6071 31.9766C12.2046 31.7786 12.828 31.9766 13.2177 32.5703C14.2048 33.9805 14.6983 35.5638 14.9581 37.2214C15.1919 38.8295 15.3737 40.4375 15.6595 42.0209C15.7634 42.5404 15.8933 43.0847 16.2569 43.5548Z" fill="#F7C6DD"/>
<path id="Vector_9" d="M50.3912 18.5678C47.2221 18.8152 44.1308 19.5326 41.1175 20.4727C40.9876 19.3347 41.0656 18.1719 41.1955 17.0339C41.4293 15.0795 41.9748 13.224 42.7541 11.418C43.4554 9.85938 44.2607 8.32551 45.5076 7.13801C46.9363 5.80206 48.3131 6.02472 49.3262 7.95442C49.8197 8.91927 49.8717 9.98308 49.9756 10.9974C50.1055 12.3334 50.0795 13.694 50.1314 15.0547C50.2094 16.2422 50.3133 17.405 50.3912 18.5678Z" fill="#F7C6DD"/>
<path id="Vector_10" d="M70.0562 24.8269C67.8223 25.0248 66.2896 23.8868 64.9129 22.4272C64.5232 22.0066 64.5492 21.4376 64.5492 20.918C64.705 20.349 64.9908 19.8542 65.3804 19.3842C66.5494 17.9988 67.7183 16.5886 68.9393 15.2279C70.2121 13.8177 71.7707 13.694 73.2514 14.8816C74.0826 15.5495 74.9658 16.2175 75.6412 17.0586C77.0959 18.8399 76.8362 20.5964 74.9139 21.8829C73.3293 22.9467 71.7707 23.9858 70.0562 24.8269ZM69.251 24.1095C69.7965 24.2826 70.2381 24.0105 70.6277 23.7631C71.9785 22.9714 73.3033 22.1798 74.5502 21.2644C76.0829 20.1264 76.2127 18.7657 74.9399 17.3555C74.2385 16.5886 73.4332 15.9206 72.6279 15.3021C71.5109 14.461 70.4199 14.5599 69.5107 15.599C68.3418 16.9349 67.1988 18.2709 66.0818 19.6068C65.6662 20.1016 65.2246 20.5964 65.2506 21.2891C65.2506 21.7592 65.5103 22.0808 65.822 22.4024C66.5754 23.1694 67.5365 23.6147 68.4976 24.0352C68.7314 24.1837 68.9912 24.1837 69.251 24.1095Z" fill="#102C57"/>
<path id="Vector_11" d="M65.146 7.95437C65.094 8.12755 65.0421 8.25125 64.8862 8.30073C64.6784 8.35021 64.5485 8.25125 64.4446 8.10281C64.2108 7.73171 64.003 7.36062 63.7952 6.96478C62.6782 4.96087 61.743 2.85799 60.8858 0.730374C60.7819 0.458237 60.652 0.1861 61.0157 0.0376615C61.3793 -0.110777 61.4833 0.21084 61.5872 0.458237C62.4963 2.90747 63.6393 5.233 64.9382 7.50906C65.0161 7.6575 65.094 7.83067 65.146 7.95437Z" fill="#102C57"/>
<path id="Vector_12" d="M82.5234 22.5259C84.186 22.6001 85.8225 22.7733 87.4071 23.3423C87.6668 23.4412 88.0045 23.4907 87.8746 23.8618C87.7448 24.1834 87.459 24.0597 87.1993 23.9855C85.3549 23.3918 83.4846 23.1196 81.5363 23.2186C81.2506 23.2433 80.9648 23.2186 80.9648 22.897C80.9648 22.5754 81.2766 22.5506 81.5363 22.5506C81.874 22.5259 82.1857 22.5259 82.5234 22.5259Z" fill="#102C57"/>
<path id="Vector_13" d="M59.456 9.16663C59.6118 9.19137 59.7417 9.31506 59.8456 9.43876C60.7288 10.4531 61.586 11.4674 62.4433 12.4817C62.6251 12.6797 62.781 12.9023 62.4952 13.125C62.2355 13.3229 62.0536 13.125 61.8978 12.9518C61.0146 11.9127 60.1313 10.8737 59.2481 9.8346C59.1183 9.68616 58.9884 9.53772 59.1183 9.3398C59.1962 9.26559 59.3001 9.16663 59.456 9.16663Z" fill="#102C57"/>
<path id="Vector_14" d="M69.5355 110.773C69.9511 109.981 70.2368 109.14 70.8862 108.472C71.0161 108.348 71.0941 108.224 71.2239 108.101C71.4318 107.928 71.6656 107.73 71.9513 107.977C72.2111 108.249 71.9513 108.422 71.7954 108.595C70.9902 109.387 70.4706 110.303 70.3148 111.391C70.055 111.564 70.1589 112.158 69.6653 111.96C69.2497 111.787 69.5095 111.416 69.5614 111.094C69.5355 111.02 69.5355 110.896 69.5355 110.773Z" fill="#982176"/>
<path id="Vector_15" d="M69.3278 7.21197C69.3278 7.28619 69.2498 7.45936 68.9901 7.4841C68.7563 7.50884 68.6264 7.3604 68.5744 7.16249C68.3147 5.99972 68.0289 4.83695 67.7692 3.67419C67.7172 3.45153 67.7432 3.25361 68.0549 3.20413C68.2887 3.17939 68.4445 3.25361 68.4965 3.47627C68.7563 4.66377 69.016 5.85128 69.3278 7.21197Z" fill="#102C57"/>
<path id="Vector_16" d="M82.7847 19.1861C82.5769 19.2108 82.3691 19.1366 82.3171 18.9387C82.2392 18.6913 82.421 18.5428 82.6548 18.4934C83.8757 18.2954 85.1226 18.0975 86.3435 17.8996C86.5513 17.8749 86.7591 17.9491 86.7851 18.147C86.8371 18.3944 86.6293 18.5181 86.3955 18.5428C85.2005 18.7655 84.0056 18.9634 82.7847 19.1861Z" fill="#102C57"/>
<path id="Vector_17" d="M107.305 81.6291C106.629 81.6786 106.084 81.9507 105.512 82.2723C105.278 82.4208 105.045 82.5445 104.837 82.2723C104.655 82.0002 104.889 81.8023 105.097 81.6538C105.642 81.258 106.318 81.159 106.915 80.8869C106.967 80.8869 106.993 80.8869 107.045 80.8869C107.331 80.9116 107.72 80.59 107.876 81.0106C108.084 81.4559 107.46 81.3817 107.305 81.6291Z" fill="#982176"/>
<path id="Vector_18" d="M12.3352 53.4506C12.3352 53.4753 12.3092 53.5248 12.3092 53.5495C12.3092 53.5248 12.2832 53.5 12.2832 53.4753C12.3092 53.4753 12.3092 53.4506 12.3352 53.4506Z" fill="#F7C6DD"/>
<path id="Vector_19" d="M49.8979 76.4092C53.7684 76.6318 57.0674 78.0667 59.6651 80.8376C59.8469 81.0355 60.1846 81.2829 59.8469 81.555C59.5092 81.8024 59.3014 81.4808 59.1196 81.2829C56.9375 78.9574 54.21 77.6462 51.0149 77.2009C50.4174 77.1266 49.8199 77.1514 49.1965 77.1514C48.9367 77.1514 48.625 77.1266 48.625 76.805C48.625 76.4587 48.9107 76.4587 49.1965 76.4587C49.4303 76.4092 49.6641 76.4092 49.8979 76.4092Z" fill="#102C57"/>
<path id="Vector_20" d="M69.8984 53.1786C70.0283 52.7333 70.2361 52.3374 70.6518 52.0653C70.5479 55.0341 70.9895 57.9286 72.1065 60.7242C72.2104 60.9716 72.2883 61.219 71.9246 61.318C71.561 61.4169 71.509 61.12 71.4051 60.8974C70.4699 58.5966 70.0283 56.1968 69.9244 53.7229C69.8984 53.5497 69.8984 53.3518 69.8984 53.1786Z" fill="#102C57"/>
<path id="Vector_21" d="M78.6531 100.456C78.2634 100.308 78.2374 100.085 78.4453 99.7882C78.9128 99.145 79.4583 98.576 80.0298 98.007C80.913 97.1411 81.8482 96.3247 82.8873 95.6072C83.0171 95.5083 83.173 95.434 83.3289 95.3351C83.5367 95.2114 83.7705 95.0877 83.9523 95.3598C84.1601 95.6567 83.9523 95.8051 83.7185 95.9536C82.4197 96.8195 81.2767 97.8338 80.1857 98.9223C79.796 99.3182 79.4324 99.7635 79.0687 100.184C78.9648 100.333 78.8349 100.431 78.6531 100.456Z" fill="#982176"/>
<path id="Vector_22" d="M76.7828 102.163C76.7828 102.337 76.6789 102.436 76.549 102.534C75.4061 103.425 74.6268 104.563 73.8994 105.751C73.7955 105.899 73.7176 106.072 73.5877 106.221C73.4578 106.369 73.276 106.443 73.0682 106.344C72.8603 106.245 72.8344 106.048 72.9383 105.874C73.7955 104.439 74.6787 103.054 76.0555 102.015C76.2113 101.891 76.3932 101.817 76.601 101.916C76.7049 101.941 76.7568 102.064 76.7828 102.163Z" fill="#982176"/>
<path id="Vector_23" d="M102.501 83.0397C102.761 83.0397 102.917 83.0892 102.969 83.2871C103.021 83.5097 102.917 83.6334 102.709 83.7076C102.294 83.8561 101.852 84.0045 101.436 84.1777C100.423 84.5983 99.566 85.192 98.8127 85.9342C98.6308 86.1074 98.423 86.3795 98.1113 86.1074C97.8255 85.8353 98.0593 85.6373 98.2671 85.4147C99.3322 84.3261 100.657 83.5839 102.138 83.1139C102.268 83.0644 102.423 83.0397 102.501 83.0397Z" fill="#982176"/>
<path id="Vector_24" d="M92.3936 89.9419C92.1599 89.9419 92.056 89.8677 91.978 89.7193C91.9001 89.5461 91.952 89.3976 92.0819 89.2739C92.4456 88.9771 92.8093 88.7049 93.173 88.4081C94.0042 87.8143 94.8355 87.2453 95.7966 86.8247C96.0564 86.701 96.3681 86.6021 96.5239 86.8989C96.6798 87.1958 96.3941 87.3195 96.1603 87.4432C94.8874 88.0864 93.7185 88.8286 92.6534 89.744C92.5755 89.843 92.4716 89.8924 92.3936 89.9419Z" fill="#982176"/>
<path id="Vector_25" d="M86.576 93.9002C86.3682 93.9002 86.2643 93.826 86.1864 93.6776C86.0824 93.4797 86.1864 93.3312 86.3422 93.1828C86.9916 92.589 87.693 92.0448 88.4463 91.55C88.8879 91.2778 89.3555 91.0057 89.8231 90.7336C90.0309 90.6099 90.2647 90.6346 90.3946 90.8325C90.5504 91.0552 90.3946 91.2284 90.1868 91.3521C88.9918 92.0448 87.8229 92.8117 86.8098 93.7271C86.7319 93.8013 86.628 93.8508 86.576 93.9002Z" fill="#982176"/>
<path id="Vector_26" d="M14.855 58.1761C15.1667 58.2751 15.1927 58.4978 15.1927 58.7699C15.6603 64.7074 20.5959 69.9028 26.7783 70.9171C28.0771 71.1398 29.402 71.1645 30.7008 70.9913C31.0385 70.9418 31.3762 70.8924 31.4281 71.3624C31.2723 71.6593 30.9346 71.684 30.6488 71.7088C25.7133 72.1788 21.583 70.6697 18.3099 67.1072C16.7773 65.4496 15.5823 63.6189 14.907 61.4913C14.6212 60.6006 14.4394 59.71 14.4654 58.7699C14.4654 58.4483 14.5433 58.2504 14.855 58.1761Z" fill="#102C57"/>
<path id="Vector_27" d="M43.0139 68.1955C42.9619 67.8986 43.1697 67.7502 43.4295 67.676C45.5076 67.0575 47.2481 65.87 48.9625 64.6825C53.0409 61.8374 56.7815 58.5965 60.1845 55.0092C60.3663 54.8113 60.5482 54.6134 60.8859 54.6134C61.1716 54.9845 60.9118 55.2566 60.6521 55.5288C58.0024 58.2996 55.145 60.8726 52.1057 63.2228C49.9756 64.8804 47.7936 66.439 45.3518 67.6512C44.8063 67.9234 44.2348 68.0966 43.6633 68.2945C43.4295 68.3934 43.1957 68.3687 43.0139 68.1955Z" fill="#102C57"/>
<path id="Vector_28" d="M63.9769 50.7541C63.7431 50.4572 63.925 50.2345 64.0808 49.9871C65.5875 47.7605 67.0682 45.5092 68.0553 43.0353C69.3281 39.7944 69.6658 36.504 68.8865 33.1146C68.8086 32.793 68.6268 32.4219 69.0164 32.1498C69.432 32.1498 69.484 32.4714 69.5619 32.7435C70.2633 36.1081 70.1334 39.4233 68.9385 42.7136C67.9514 45.3855 66.4447 47.81 64.8342 50.1603C64.6523 50.4077 64.5224 50.8778 63.9769 50.7541Z" fill="#102C57"/>
<path id="Vector_29" d="M59.0401 21.2396C58.8063 21.4623 58.5725 21.4623 58.2349 21.3881C55.8969 20.8933 53.559 20.819 51.1952 21.2149C50.9354 21.2644 50.7276 21.2396 50.5717 21.0417C50.5457 20.6459 50.8834 20.5964 51.1692 20.5222C52.1823 20.25 53.2213 20.3242 54.2344 20.2995C55.5852 20.25 56.936 20.4479 58.2608 20.6953C58.5985 20.7696 58.9882 20.819 59.0401 21.2396Z" fill="#102C57"/>
<path id="Vector_30" d="M26.6482 34.1041C27.7133 34.0546 28.6485 34.3762 29.4537 34.9947C29.7914 35.2421 30.0252 35.5885 29.8434 36.009C29.6356 36.4544 29.2199 36.4544 28.8043 36.4049C28.2328 36.3307 27.6613 36.1822 27.1418 35.9348C26.5963 35.6874 26.1807 35.3163 26.0508 34.7226C26.1027 34.401 26.2846 34.1536 26.6482 34.1041ZM29.0901 35.6874C28.5965 35.0937 27.5055 34.6731 26.8561 34.8463C27.3496 35.4153 28.2588 35.7617 29.0901 35.6874Z" fill="#102C57"/>
<path id="Vector_31" d="M33.8184 71.1149C33.8963 70.8675 34.0781 70.719 34.3639 70.6943C35.0652 70.6696 35.7666 70.5211 36.416 70.249C36.6758 70.15 36.8576 70.2737 37.0654 70.3479C37.1953 70.6943 36.9356 70.8427 36.6498 70.917C35.9225 71.1396 35.1692 71.2881 34.3899 71.387C34.1561 71.4365 33.9742 71.2881 33.8184 71.1149Z" fill="#102C57"/>
<path id="Vector_32" d="M30.9344 100.852C29.6615 101.644 28.3367 102.312 26.856 102.658C26.6222 102.707 26.5703 102.806 26.6742 103.029C27.0119 103.821 26.882 104.662 26.908 105.478C26.908 105.701 26.8301 105.899 26.5703 105.924C26.2586 105.924 26.1806 105.701 26.1806 105.453C26.2066 104.711 26.1287 103.969 26.0248 103.252C25.9988 103.004 25.9209 102.93 25.6611 103.004C24.2324 103.4 22.7257 103.499 21.2451 103.746C21.8166 104.241 21.6607 104.884 21.6867 105.503C21.7126 105.775 21.6347 106.047 21.6087 106.295C21.5828 106.542 21.4529 106.666 21.1671 106.641C20.9333 106.616 20.8294 106.468 20.8554 106.245C20.9593 105.552 20.8294 104.835 20.8814 104.167C20.9074 103.697 20.7255 103.771 20.4398 103.771C19.1669 103.845 17.8941 103.92 16.6212 103.994C16.2835 104.019 15.9198 104.019 15.5821 103.994C14.2314 103.895 14.5171 103.944 14.4911 105.008C14.4911 105.429 14.4911 105.874 14.4911 106.295C14.4911 106.542 14.4651 106.765 14.1274 106.765C13.8157 106.765 13.7638 106.517 13.7638 106.27C13.7638 105.651 13.7378 105.033 13.7638 104.414C13.7898 104.043 13.6339 103.845 13.2442 103.821C11.5038 103.697 9.76336 103.425 8.07488 103.029C7.73718 102.955 7.65925 103.128 7.6073 103.375C7.42546 104.068 7.39948 104.761 7.47741 105.453C7.50339 105.701 7.55534 105.998 7.19167 106.022C6.828 106.072 6.80202 105.8 6.72409 105.552C6.54225 104.761 6.62018 103.994 6.87995 103.252C7.03581 102.831 6.87995 102.683 6.46432 102.559C5.39928 102.237 4.41216 101.817 3.50298 101.198C3.1393 100.951 3.06137 101.075 3.00942 101.446C2.90551 102.138 2.85356 102.831 2.87954 103.548C2.87954 103.845 2.90551 104.266 2.48989 104.266C2.04828 104.266 2.07426 103.87 2.10024 103.548C2.12621 102.93 2.15219 102.312 2.17817 101.693C2.20414 101.272 2.2561 100.852 2.95747 100.827C2.15219 100.06 1.68461 99.2933 1.81449 98.2789C1.84047 98.1058 1.84047 97.9573 1.9184 97.8089C1.97035 97.6357 2.12621 97.5367 2.30805 97.5615C2.51586 97.5862 2.61977 97.7347 2.59379 97.9078C2.2561 100.035 3.9186 100.753 5.45123 101.396C8.3866 102.633 11.5298 103.103 14.7249 103.227C18.4656 103.351 22.1543 103.078 25.791 102.237C27.5574 101.817 29.2978 101.322 30.6486 100.06C31.2201 99.5407 31.4799 98.9222 31.324 98.1552C31.2721 97.8831 31.2461 97.611 31.5838 97.5615C31.9475 97.512 31.9994 97.8089 32.0514 98.081C32.2072 98.9716 31.8955 99.6891 31.35 100.382C31.1941 100.555 31.0643 100.703 30.9344 100.852Z" fill="#982176"/>
<path id="Vector_33" d="M8.4123 93.3558C8.75 93.3558 8.95781 93.3558 9.00976 93.6032C9.08769 93.9001 8.8539 93.9991 8.62011 94.0733C7.32128 94.3949 6.10037 94.9392 5.03533 95.7308C4.72361 95.9535 4.46384 96.2256 4.15212 96.4483C3.99626 96.572 3.78845 96.6215 3.60661 96.473C3.42477 96.3246 3.42477 96.1267 3.58063 95.9782C4.9574 94.6423 6.61991 93.7764 8.4123 93.3558Z" fill="#982176"/>
<path id="Vector_34" d="M26.7508 94.7662C27.9717 94.8899 29.0108 95.3846 29.946 96.1268C30.1538 96.3 30.4395 96.5227 30.1798 96.7948C29.92 97.067 29.6862 96.8443 29.4524 96.6711C28.6471 96.0031 27.686 95.6568 26.6469 95.4589C26.3872 95.4094 26.1793 95.3352 26.2053 95.0383C26.2573 94.7167 26.517 94.7414 26.7508 94.7662Z" fill="#982176"/>
<path id="Vector_35" d="M12.8794 92.4901C13.0093 92.4901 13.1651 92.4901 13.321 92.5149C13.5288 92.5396 13.6067 92.688 13.6327 92.8612C13.6327 93.0591 13.5288 93.1828 13.347 93.2076C12.5936 93.3065 11.8143 93.3313 11.061 93.5539C10.8532 93.6034 10.6714 93.4797 10.6194 93.2818C10.5674 93.0344 10.7753 92.9107 10.9831 92.8365C11.5805 92.6633 12.23 92.5643 12.8794 92.4901Z" fill="#982176"/>
<path id="Vector_36" d="M25.1404 101.718C24.8027 101.743 24.6208 101.668 24.5689 101.421C24.5429 101.174 24.7247 101.05 24.9585 101C25.582 100.877 26.2054 100.753 26.7249 100.308C26.8808 100.184 27.1146 100.184 27.2445 100.382C27.3744 100.58 27.2964 100.778 27.1146 100.926C26.5431 101.446 25.8158 101.594 25.1404 101.718Z" fill="#982176"/>
<path id="Vector_37" d="M10.2306 105.181C10.2306 104.761 10.2047 104.439 10.3345 104.142C10.4125 103.969 10.5164 103.796 10.7502 103.845C10.958 103.87 11.1138 104.043 11.1138 104.241C11.1138 104.81 11.0879 105.379 11.0359 105.948C11.0359 106.122 10.8801 106.245 10.6982 106.27C10.4904 106.295 10.3865 106.146 10.3345 105.998C10.2566 105.676 10.2306 105.355 10.2306 105.181Z" fill="#982176"/>
<path id="Vector_38" d="M30.9333 100.877C31.4269 100.778 31.6347 100.976 31.7126 101.446C31.8165 101.941 31.8165 102.411 31.7126 102.905C31.6607 103.128 31.5308 103.227 31.323 103.227C31.1152 103.227 30.9853 103.054 31.0372 102.905C31.1931 102.188 30.9073 101.52 30.9333 100.877Z" fill="#982176"/>
<path id="Vector_39" d="M4.36014 103.549C4.33416 103.252 4.38611 102.98 4.49002 102.732C4.56795 102.534 4.72381 102.435 4.93162 102.46C5.16541 102.51 5.26932 102.658 5.21737 102.856C5.08748 103.326 5.11346 103.771 5.19139 104.241C5.21737 104.414 5.16541 104.563 4.9576 104.612C4.74979 104.662 4.56795 104.588 4.49002 104.39C4.38611 104.142 4.33416 103.845 4.36014 103.549Z" fill="#982176"/>
<path id="Vector_40" d="M29.8945 103.524C29.8945 103.87 29.8685 104.167 29.7127 104.414C29.6088 104.563 29.5049 104.687 29.2971 104.612C29.1152 104.538 29.0113 104.39 29.0633 104.241C29.1672 103.821 29.1931 103.4 29.0373 102.979C28.9853 102.806 29.0633 102.658 29.2451 102.584C29.4789 102.485 29.6088 102.608 29.7127 102.782C29.8426 103.004 29.9205 103.276 29.8945 103.524Z" fill="#982176"/>
<path id="Vector_41" d="M24.8564 105.231C24.8304 105.528 24.9084 105.874 24.4928 105.899C24.1031 105.924 24.1551 105.577 24.1291 105.305C24.1031 105.132 24.0771 104.934 24.0511 104.761C23.9992 104.513 23.9992 104.291 24.3109 104.241C24.5967 104.192 24.7265 104.39 24.7785 104.637C24.7785 104.835 24.8304 105.033 24.8564 105.231Z" fill="#982176"/>
<path id="Vector_42" d="M35.6625 106.443C35.7924 105.899 35.6106 105.454 35.2469 105.033C34.9352 104.662 34.6754 104.241 34.7274 103.747C34.7274 103.549 34.8313 103.425 35.0391 103.4C35.2209 103.375 35.3508 103.474 35.3768 103.623C35.8444 105.404 37.351 105.998 38.9356 106.493C41.7411 107.359 44.6245 107.457 47.5079 106.938C48.0015 106.839 48.4431 106.641 48.8847 106.443C49.612 106.097 50.1575 105.602 50.3134 104.786C50.3653 104.563 50.3913 104.241 50.781 104.34C51.1187 104.439 51.0667 104.736 51.0148 104.959C50.8589 105.528 50.6251 106.072 50.1056 106.418C49.638 106.74 49.5341 107.086 49.638 107.581C49.6899 107.853 49.638 108.15 49.586 108.447C49.5601 108.645 49.4562 108.818 49.1964 108.769C48.9626 108.744 48.8847 108.571 48.8847 108.373C48.8847 108.175 48.9366 107.952 48.9106 107.754C48.8847 107.581 48.9626 107.284 48.6249 107.309C48.3651 107.334 48.2093 107.507 48.2352 107.779C48.2612 108.101 48.2352 108.447 48.2352 108.769C48.2352 109.016 48.1054 109.214 47.7936 109.189C47.5079 109.165 47.5079 108.942 47.5079 108.719C47.4559 107.606 47.43 107.581 46.287 107.804C45.4557 107.952 44.5985 107.952 43.7673 107.928C42.7022 107.928 42.8061 107.754 42.8321 108.818C42.8321 108.991 42.8321 109.14 42.8321 109.313C42.8321 109.585 42.7801 109.832 42.4424 109.832C42.1307 109.832 42.1307 109.56 42.1047 109.338C42.0528 108.843 42.3126 108.175 41.9489 107.853C41.6372 107.581 40.9618 107.655 40.4682 107.556C39.533 107.359 39.4811 107.408 39.4551 108.299C39.4551 108.571 39.7149 109.09 39.1694 109.09C38.6758 109.09 38.8317 108.571 38.8057 108.274C38.7797 108.101 38.7278 107.903 38.8317 107.779C39.2473 107.235 38.8317 107.185 38.4161 107.062C37.8965 106.888 37.377 106.666 36.8834 106.418C36.4418 106.196 36.3379 106.344 36.3639 106.74C36.3899 107.012 36.4418 107.26 36.4678 107.532C36.4938 107.73 36.5717 107.977 36.26 108.026C35.9483 108.076 35.8184 107.878 35.7664 107.655C35.6625 107.26 35.6106 106.864 35.6625 106.443Z" fill="#102C57"/>
<path id="Vector_43" d="M39.8705 100.159C40.1562 100.159 40.4939 100.184 40.4679 100.555C40.442 100.901 40.1302 100.852 39.8705 100.852C38.6496 100.852 37.6105 101.297 36.6753 101.99C36.4675 102.138 36.2597 102.361 36.0259 102.089C35.7921 101.817 36.0259 101.644 36.2078 101.47C37.2468 100.604 38.4937 100.209 39.8705 100.159Z" fill="#102C57"/>
<path id="Vector_44" d="M44.8572 106.146C44.6234 106.122 44.3896 106.122 44.1558 106.097C43.922 106.072 43.7402 105.973 43.7661 105.701C43.7921 105.454 43.974 105.429 44.1818 105.429C44.8572 105.429 45.5066 105.454 46.156 105.33C46.3638 105.28 46.5457 105.355 46.5976 105.577C46.6496 105.825 46.4677 105.973 46.2339 105.998C45.7923 106.072 45.3247 106.196 44.8572 106.146Z" fill="#102C57"/>
<path id="Vector_45" d="M50.5191 102.856C50.5191 103.029 50.4412 103.128 50.2853 103.177C50.1295 103.227 49.9736 103.153 49.8957 103.029C49.6619 102.509 49.2723 102.163 48.7267 101.94C48.5709 101.866 48.5709 101.718 48.5969 101.569C48.6488 101.421 48.7527 101.396 48.9086 101.396C49.4801 101.322 50.5451 102.312 50.5191 102.856Z" fill="#102C57"/>
<path id="Vector_46" d="M65.25 21.3141C66.5229 21.9573 67.6918 22.7243 68.7828 23.6396C68.9647 23.7881 69.1465 23.9118 69.2504 24.1344C68.9906 24.2086 68.7309 24.1839 68.4971 24.0849C67.536 23.6644 66.5748 23.219 65.8215 22.4521C65.5098 22.1058 65.25 21.7841 65.25 21.3141Z" fill="#982176"/>
<path id="Vector_47" d="M66.8613 56.8893C67.4848 57.7057 67.4069 58.5963 66.9133 59.4127C66.4717 60.1797 65.7443 60.6745 64.7572 60.5755C64.3676 60.526 63.9779 60.4765 63.7441 60.0807C64.8092 59.0169 65.8223 57.9531 66.8613 56.8893Z" fill="#F7C6DD"/>
<path id="Vector_48" d="M66.8608 56.8894C65.8218 57.9532 64.7827 59.017 63.7436 60.1055C63.1722 59.9571 63.0163 59.7344 63.2761 59.3386C64.0294 58.1758 65.0165 57.211 65.9257 56.1719C66.0815 55.9987 66.2114 56.0235 66.3673 56.1472C66.6011 56.3451 66.8608 56.543 66.8608 56.8894Z" fill="#982176"/>
<path id="Vector_49" d="M60.5215 62.9261C61.119 63.4209 60.8072 63.9157 60.5215 64.3858C59.8981 65.4001 58.6772 65.6723 57.9238 64.9795C58.807 64.2868 59.6643 63.6189 60.5215 62.9261Z" fill="#F7C6DD"/>
<path id="Vector_50" d="M60.5208 62.9262C59.6636 63.6189 58.7804 64.2869 57.9231 64.9796C57.2478 64.7817 57.1958 64.6332 57.6894 64.2126C58.2868 63.6684 58.8843 63.1488 59.4817 62.6046C59.9493 62.184 60.313 62.2829 60.5208 62.9262Z" fill="#982176"/>
<path id="Vector_51" d="M68.5489 94.1969C68.6268 94.2216 68.7307 94.2711 68.8346 94.3453C70.3153 95.3597 71.5622 96.5966 72.5752 98.0563C72.7311 98.2789 72.887 98.5016 72.6272 98.6995C72.3155 98.9222 72.1336 98.6748 72.0038 98.4769C71.0686 97.042 69.8217 95.8792 68.419 94.8896C68.2371 94.7659 68.1073 94.6175 68.1852 94.3701C68.2631 94.2464 68.367 94.1969 68.5489 94.1969Z" fill="#982176"/>
<path id="Vector_52" d="M71.0948 99.9365C71.0948 100.11 71.0428 100.209 70.913 100.283C70.7051 100.407 70.5493 100.308 70.3934 100.159C69.9258 99.6891 69.4583 99.1943 68.9907 98.6995C68.3413 98.0068 67.6918 97.3388 67.0424 96.6461C66.8606 96.4729 66.7307 96.275 66.9385 96.0524C67.1723 95.805 67.3801 95.9782 67.536 96.1513C68.653 97.3141 69.796 98.4769 70.913 99.6396C70.9909 99.7386 71.0428 99.8375 71.0948 99.9365Z" fill="#982176"/>
<path id="Vector_53" d="M55.196 46.202C55.196 45.8804 54.5985 45.5587 55.092 45.2866C55.5596 45.0392 55.6895 45.5587 55.8973 45.8061C56.1831 46.1278 56.4688 46.4741 56.7286 46.8205C56.9624 47.1173 56.9364 47.3647 56.5727 47.5132C55.8713 47.8101 55.196 48.0822 54.4946 48.3543C54.3127 48.4285 54.1049 48.4533 54.027 48.2059C53.9491 48.008 54.027 47.8348 54.2348 47.7606C54.6504 47.5874 55.092 47.3895 55.6376 47.1421C54.2868 46.6968 53.0399 46.4246 51.7411 46.2514C49.1434 45.9298 46.5197 45.9298 43.948 45.5093C43.7662 45.4845 43.5584 45.435 43.3766 45.4103C42.9349 45.3361 42.5713 45.2866 42.1816 45.7072C41.5322 46.3999 40.3633 46.3999 39.7918 45.8309C39.1943 45.2619 39.2463 44.2475 39.9217 43.5301C40.2853 43.159 40.675 42.8126 41.2205 42.7879C41.6621 42.7631 41.818 42.5405 41.9478 42.2189C43.2467 39.448 44.5455 36.6772 45.8703 33.9063C46.5977 32.3725 47.377 30.8633 48.1303 29.3295C48.2082 29.2058 48.3901 29.0326 48.2342 28.8842C48.0264 28.711 47.8705 28.9336 47.7666 29.0326C47.299 29.4284 46.8574 29.849 46.3899 30.2449C46.208 30.418 46.0002 30.6407 45.7404 30.3685C45.4807 30.1212 45.6885 29.9232 45.8703 29.7501C46.9094 28.7852 48.0004 27.8946 49.1953 27.0782C49.3512 26.9792 49.5071 26.8308 49.7149 26.9297C49.9487 27.0287 49.9487 27.2513 49.9487 27.4493C49.9487 28.4883 50.0526 29.5027 50.2864 30.517C50.3123 30.6159 50.3123 30.7149 50.3383 30.8139C50.3383 31.0118 50.3123 31.185 50.0526 31.2344C49.8188 31.2592 49.6889 31.1107 49.6369 30.9128C49.4811 30.2449 49.3772 29.5769 49.3252 28.8842C49.0395 28.9336 49.0135 29.1316 48.9356 29.28C46.7276 33.6589 44.5715 38.0379 42.5713 42.491C42.4414 42.7631 42.3894 42.9611 42.6232 43.2085C42.8051 43.4064 42.9609 43.6785 42.909 43.9507C42.8051 44.5197 43.0908 44.6434 43.6363 44.7423C45.5846 45.0392 47.5328 45.1382 49.5071 45.3113C51.3514 45.4845 53.1957 45.6082 54.9881 46.1772C55.0141 46.2514 55.092 46.2267 55.196 46.202ZM41.2724 43.4559C40.5711 43.6785 40.1814 44.0744 40.0775 44.5939C40.0256 44.9402 40.0775 45.2866 40.4152 45.4598C40.8049 45.6577 41.2205 45.534 41.5582 45.3113C41.766 45.1629 41.6361 45.0639 41.4803 45.0145C40.701 44.866 40.8828 44.4454 41.1166 43.9754C41.2205 43.827 41.3504 43.6538 41.2724 43.4559ZM41.9998 43.6785C41.9219 43.9754 41.6621 44.1238 41.8699 44.396C41.9219 44.4702 42.1037 44.5197 42.1556 44.4455C42.2855 44.2228 42.2336 43.9754 41.9998 43.6785ZM48.2862 28.8099C48.3121 28.7852 48.3121 28.7852 48.3381 28.7605C48.3121 28.7357 48.2862 28.7357 48.2602 28.711C48.2602 28.711 48.2342 28.7357 48.2082 28.7605C48.2342 28.7852 48.2602 28.7852 48.2862 28.8099Z" fill="#102C57"/>
<path id="Vector_54" d="M59.872 25.5444C59.8461 25.9155 59.7422 26.2866 59.5343 26.5835C58.9629 27.4494 58.2095 28.1421 57.3003 28.6616C56.9107 28.8843 56.4691 29.008 56.1054 28.6369C55.7677 28.2905 55.9496 27.9194 56.1574 27.5731C56.8068 26.5093 57.664 25.6186 58.7031 24.9012C58.9369 24.728 59.2226 24.5796 59.5343 24.728C59.8461 24.9259 59.898 25.2228 59.872 25.5444ZM56.7548 28.0679C57.8459 27.8205 59.2486 26.2619 59.0408 25.5197C58.0537 26.1876 57.0666 27.3009 56.7548 28.0679Z" fill="#102C57"/>
<path id="Vector_55" d="M23.1152 67.1816C23.2711 66.4641 23.7647 65.8209 24.2842 65.2272C24.6998 64.7324 25.1674 64.2623 25.7908 63.9902C26.1285 63.8417 26.4922 63.7428 26.8039 64.0397C27.0897 64.3118 27.0377 64.6334 26.9078 64.955C26.3883 66.291 25.3492 67.1321 24.1023 67.8248C23.6088 68.097 23.1152 67.8001 23.1152 67.1816ZM26.3104 64.5839C25.3233 64.9303 24.1543 66.2662 24.0764 67.1074C25.0115 66.4147 25.9467 65.7714 26.3104 64.5839Z" fill="#102C57"/>
<path id="Vector_56" d="M57.0418 50.8777C57.7691 50.8777 59.6395 52.0405 59.8733 52.5847C60.0551 53.0548 59.6395 53.6238 59.068 53.5496C58.0029 53.4259 57.0938 52.9806 56.4184 52.1889C56.2105 51.9415 56.1846 51.6199 56.3404 51.323C56.4963 51.0261 56.808 50.9024 57.0418 50.8777ZM59.068 52.8074C58.6004 52.2384 57.977 51.8673 57.2756 51.5951C57.1717 51.5457 57.0678 51.5457 56.9639 51.6199C56.86 51.7188 56.9379 51.8178 57.0158 51.892C57.5873 52.461 58.2627 52.7579 59.068 52.8074Z" fill="#102C57"/>
<path id="Vector_57" d="M48.3128 24.134C48.3128 24.4308 48.3128 24.703 48.3128 24.9999C48.3128 25.1978 48.1569 25.2967 48.0011 25.3215C47.8193 25.3462 47.6374 25.2473 47.6114 25.0741C47.5075 24.3814 47.6374 23.6887 47.6894 22.9959C47.6894 22.8475 47.8712 22.7733 48.053 22.798C48.2609 22.8228 48.3388 22.9712 48.3648 23.1444C48.3648 23.466 48.3648 23.8124 48.3648 24.134C48.3388 24.134 48.3388 24.134 48.3128 24.134Z" fill="#102C57"/>
<path id="Vector_58" d="M36.7018 67.231C36.7018 67.2805 36.6239 67.4536 36.416 67.5031C36.2082 67.5526 36.0783 67.4289 36.0264 67.2557C35.8705 66.5877 35.7406 65.9445 35.6367 65.2765C35.6108 65.1034 35.7147 64.9549 35.9225 64.9302C36.1822 64.9054 36.3381 65.0539 36.3641 65.2765C36.468 65.8455 36.5459 66.464 36.7018 67.231Z" fill="#102C57"/>
<path id="Vector_59" d="M22.1549 44.124C21.6094 44.0745 21.1159 44.025 20.6223 43.9755C20.3885 43.9508 20.1807 43.8519 20.2327 43.6045C20.2586 43.3571 20.4664 43.2828 20.7002 43.2828C21.1938 43.3323 21.6873 43.3571 22.1809 43.4313C22.4407 43.456 22.8303 43.4313 22.7784 43.8271C22.7264 44.1982 22.3887 44.124 22.1549 44.124Z" fill="#102C57"/>
<path id="Vector_60" d="M64.1318 44.124C63.7422 44.0745 63.2746 44.0003 62.807 43.926C62.5992 43.9013 62.4434 43.8023 62.4434 43.5797C62.4693 43.3323 62.6512 43.2086 62.885 43.2333C63.4565 43.3076 64.0279 43.3818 64.5994 43.4807C64.8072 43.5055 64.8852 43.6539 64.8332 43.8518C64.7553 44.1734 64.4695 44.1487 64.1318 44.124Z" fill="#102C57"/>
<path id="Vector_61" d="M36.0273 26.4349C36.1832 26.4349 36.3131 26.5092 36.391 26.6576C36.5728 27.1276 36.9105 27.4987 37.1963 27.9193C37.3521 28.142 37.4041 28.3399 37.1183 28.5131C36.8846 28.6368 36.7027 28.5131 36.5728 28.3152C36.2871 27.8946 36.0013 27.4987 35.7676 27.0534C35.5857 26.7318 35.7416 26.4597 36.0273 26.4349Z" fill="#102C57"/>
<path id="Vector_62" d="M62.4164 33.6589C62.1306 33.6836 61.9488 33.6341 61.8968 33.4115C61.8449 33.1888 62.0008 33.0651 62.1826 33.0156C62.6762 32.8919 63.1697 32.7682 63.6892 32.6445C63.949 32.5951 64.1828 32.6693 64.2348 32.9414C64.2867 33.2136 64.0789 33.2878 63.8451 33.3373C63.3515 33.4362 62.858 33.5599 62.4164 33.6589Z" fill="#102C57"/>
<path id="Vector_63" d="M49.3531 59.9574C49.3791 60.2048 49.3271 60.3285 49.1713 60.3779C48.9894 60.4522 48.8076 60.4027 48.7297 60.2542C48.4439 59.7842 48.1582 59.2894 47.8724 58.8193C47.7685 58.6462 47.8205 58.4977 47.9763 58.3988C48.1062 58.2998 48.288 58.2751 48.392 58.4235C48.7556 58.9183 49.1453 59.4378 49.3531 59.9574Z" fill="#102C57"/>
<path id="Vector_64" d="M21.582 56.9883C21.582 57.1862 21.5041 57.3099 21.3742 57.3841C21.0106 57.6315 20.6469 57.8789 20.2832 58.1511C20.1014 58.2748 19.9195 58.3242 19.7896 58.1263C19.6338 57.9284 19.6598 57.7305 19.8676 57.582C20.2572 57.3099 20.6209 57.0378 21.0106 56.7904C21.2963 56.6419 21.5041 56.7162 21.582 56.9883Z" fill="#102C57"/>
<path id="Vector_65" d="M67.25 20.646C66.9123 20.4976 66.9383 20.2502 67.1201 19.9533C67.6916 18.9885 68.393 18.0979 69.1463 17.2567C69.51 16.8361 69.8996 16.3908 70.3412 16.0445C70.4971 15.9208 70.6789 15.8218 70.8608 15.995C71.0426 16.1682 70.9907 16.3661 70.8088 16.5393C69.5879 17.702 68.5229 18.9885 67.6657 20.4234C67.5617 20.5471 67.4838 20.646 67.25 20.646Z" fill="#102C57"/>
<path id="Vector_66" d="M69.7673 22.2788C69.5855 22.2788 69.4816 22.2046 69.4296 22.0809C69.3777 21.9077 69.4296 21.7592 69.5855 21.6355C70.105 21.2397 70.5986 20.8191 71.1181 20.4233C71.7156 19.9532 72.3131 19.5079 72.9365 19.0379C73.1443 18.8894 73.3521 18.7905 73.5599 18.9884C73.7158 19.1616 73.6379 19.3348 73.482 19.4832C72.3131 20.3986 71.1441 21.2892 69.9752 22.2046C69.9232 22.254 69.8193 22.254 69.7673 22.2788Z" fill="#102C57"/>
<path id="Vector_67" d="M72.0552 17.949C72.0293 18.1222 71.8994 18.2459 71.7695 18.3448C71.0162 19.0623 70.2369 19.8045 69.4835 20.5219C69.3017 20.6951 69.1199 20.8683 68.8861 20.6704C68.6263 20.4477 68.7822 20.2251 68.99 20.0519C69.7953 19.3097 70.5746 18.5428 71.3798 17.8006C71.5097 17.6769 71.6656 17.5284 71.8734 17.6521C72.0033 17.7263 72.0552 17.8253 72.0552 17.949Z" fill="#102C57"/>
</g>
</g>
</svg>
