<svg width="13" height="13" viewBox="0 0 13 13" fill="none" xmlns="http://www.w3.org/2000/svg">
<g id="Frame" clip-path="url(#clip0_487_565)">
<g id="Eb66bn.tif_1_">
<g id="Group">
<path id="Vector" d="M12.9941 9.61864C12.6597 9.61864 12.3369 9.61864 11.9966 9.61864C11.9966 9.68319 11.9966 9.736 11.9966 9.78882C11.9966 10.2113 11.9966 10.6279 11.9966 11.0504C11.9966 11.426 11.7912 11.6255 11.4156 11.6314C11.1281 11.6314 10.8406 11.6314 10.5531 11.6314C10.1951 11.6314 9.98973 11.426 9.98973 11.068C9.98973 10.6455 9.98973 10.2289 9.98973 9.80642C9.98973 9.75361 9.98973 9.7008 9.98973 9.63625C7.98875 9.63625 6.00538 9.63625 4.0044 9.63625C4.0044 9.68906 4.0044 9.74187 4.0044 9.78882C4.0044 10.2054 4.0044 10.6162 4.0044 11.0328C4.0044 11.426 3.80489 11.6255 3.41174 11.6255C3.13007 11.6255 2.84841 11.6255 2.56088 11.6255C2.2088 11.6255 2.00342 11.4142 1.99756 11.0563C1.99756 10.6338 1.99756 10.2172 1.99756 9.79468C1.99756 9.74187 1.99756 9.68906 1.99756 9.61864C1.65721 9.61864 1.33447 9.61864 1 9.61864C1 9.54823 1 9.49542 1 9.44261C1 8.36877 1 7.29493 1 6.22109C1 5.95703 1.04694 5.71058 1.1467 5.46999C1.68068 4.1849 2.21467 2.89982 2.74866 1.61473C3.01858 0.963389 3.5291 0.623047 4.23912 0.623047C6.0758 0.623047 7.91834 0.623047 9.75501 0.623047C10.465 0.623047 10.9756 0.963389 11.2455 1.61473C11.7795 2.89982 12.3134 4.1849 12.8474 5.46999C12.9472 5.71058 12.9941 5.9629 12.9941 6.22109C12.9941 7.29493 12.9941 8.36877 12.9941 9.44261C12.9941 9.50129 12.9941 9.5541 12.9941 9.61864ZM11.9848 8.60935C11.9907 8.57415 11.9966 8.54481 11.9966 8.51547C11.9966 7.73503 12.0024 6.95459 11.9966 6.17415C11.9966 5.81033 11.7912 5.62256 11.4215 5.62256C8.48166 5.62256 5.54181 5.62256 2.59609 5.62256C2.18533 5.62256 1.99756 5.81033 1.99756 6.22109C1.99756 6.96632 1.99756 7.71156 1.99756 8.46266C1.99756 8.5096 1.99756 8.55654 1.99756 8.60349C5.33643 8.60935 8.6577 8.60935 11.9848 8.60935ZM11.398 4.61913C11.3804 4.57219 11.3687 4.53112 11.357 4.49004C11.0108 3.65679 10.6645 2.8294 10.3242 1.99615C10.2186 1.73796 10.0367 1.62647 9.76088 1.62647C7.92421 1.62647 6.08166 1.62647 4.24499 1.62647C3.92812 1.62647 3.78142 1.72623 3.66406 2.01376C3.32372 2.8294 2.98924 3.65092 2.6489 4.46657C2.6313 4.51351 2.61369 4.56045 2.59609 4.61913C5.53594 4.61913 8.45819 4.61913 11.398 4.61913Z" fill="#AAB6C5"/>
<path id="Vector_2" d="M8.98042 7.61765C7.65426 7.61765 6.33983 7.61765 5.01367 7.61765C5.01367 7.28905 5.01367 6.96631 5.01367 6.63184C6.33397 6.63184 7.64839 6.63184 8.98042 6.63184C8.98042 6.95457 8.98042 7.27731 8.98042 7.61765Z" fill="#AAB6C5"/>
<path id="Vector_3" d="M3.49123 6.50293C3.83744 6.50293 4.1191 6.77286 4.12497 7.11907C4.13084 7.46528 3.84331 7.75281 3.4971 7.75281C3.15675 7.75281 2.87509 7.47115 2.87509 7.1308C2.86922 6.78459 3.14502 6.50293 3.49123 6.50293Z" fill="#AAB6C5"/>
<path id="Vector_4" d="M10.4872 6.50293C10.8335 6.50293 11.1151 6.77286 11.1151 7.11907C11.121 7.46528 10.8276 7.75281 10.4814 7.74694C10.141 7.74107 9.85938 7.45941 9.85938 7.11907C9.86524 6.77872 10.1469 6.50293 10.4872 6.50293Z" fill="#AAB6C5"/>
</g>
</g>
</g>
<defs>
<clipPath id="clip0_487_565">
<rect width="12" height="12" fill="white" transform="translate(0.994141 0.5)"/>
</clipPath>
</defs>
</svg>
