<svg width="13" height="13" viewBox="0 0 13 13" fill="none" xmlns="http://www.w3.org/2000/svg">
<g id="Room" clip-path="url(#clip0_487_550)">
<g id="UM669x.tif_1_">
<g id="Group">
<path id="Vector" d="M12.9894 11.2312C12.6561 11.2312 12.3322 11.2312 11.9941 11.2312C11.9941 10.7336 11.9941 10.2453 11.9941 9.74296C8.65611 9.74296 5.33686 9.74296 1.99884 9.74296C1.99884 10.2359 1.99884 10.7289 1.99884 11.2265C1.66081 11.2265 1.33686 11.2265 0.994141 11.2265C0.994141 11.1937 0.994141 11.1561 0.994141 11.1185C0.994141 9.59742 0.994141 8.0716 0.994141 6.55047C0.994141 6.46127 1.02231 6.42371 1.10682 6.39554C1.36973 6.30634 1.62325 6.19836 1.88616 6.10915C1.97536 6.07629 2.00353 6.03873 2.00353 5.94484C1.99884 4.4331 2.00353 2.92136 2.00353 1.40962C2.00353 1.35798 2.00353 1.31103 2.00353 1.25C2.33686 1.25 2.65611 1.25 2.99884 1.25C2.99884 1.57394 2.99884 1.89789 2.99884 2.23122C5.67489 2.23122 8.33217 2.23122 11.0035 2.23122C11.0035 1.90728 11.0035 1.58333 11.0035 1.25469C11.3416 1.25469 11.6655 1.25469 12.0035 1.25469C12.0035 1.30634 12.0035 1.35798 12.0035 1.40962C12.0035 2.92136 12.0035 4.4331 11.9988 5.94484C11.9988 6.04343 12.0317 6.08568 12.1209 6.11854C12.4167 6.22183 12.7031 6.32981 12.9988 6.43779C12.9894 8.03404 12.9894 9.62559 12.9894 11.2312ZM11.9847 8.73357C11.9847 8.69131 11.9894 8.65376 11.9894 8.6162C11.9894 8.1608 11.9847 7.7007 11.9941 7.2453C11.9941 7.15141 11.966 7.11385 11.8768 7.08099C10.5153 6.60681 9.11151 6.32512 7.6702 6.25939C6.59508 6.20775 5.53405 6.27817 4.47301 6.46127C3.6655 6.60211 2.87677 6.81338 2.10212 7.08568C2.02231 7.11385 1.99414 7.14671 1.99414 7.23122C1.99884 7.69601 1.99414 8.1608 1.99884 8.62559C1.99884 8.65845 2.00353 8.69601 2.00353 8.73357C5.33217 8.73357 8.65142 8.73357 11.9847 8.73357ZM2.99884 5.76174C4.15376 5.45657 5.30869 5.29225 6.4871 5.25C6.4871 4.57394 6.4871 3.91197 6.4871 3.24531C5.32278 3.24531 4.16315 3.24531 2.99884 3.24531C2.99884 4.08099 2.99884 4.91197 2.99884 5.76174ZM10.9847 5.76174C10.9847 4.91197 10.9847 4.07629 10.9847 3.25C9.81574 3.25 8.66081 3.25 7.50118 3.25C7.50118 3.92136 7.50118 4.58333 7.50118 5.25C8.67959 5.28756 9.83921 5.46127 10.9847 5.76174Z" fill="#AAB6C5"/>
</g>
</g>
</g>
<defs>
<clipPath id="clip0_487_550">
<rect width="12" height="12" fill="white" transform="translate(0.994141 0.5)"/>
</clipPath>
</defs>
</svg>
