<svg width="161" height="176" viewBox="0 0 161 176" fill="none" xmlns="http://www.w3.org/2000/svg">
<g id="Frame" clip-path="url(#clip0_1_2497)">
<g id="BWmJN8.tif_1_">
<g id="Group">
<path id="Vector" d="M7.60766 142.889C6.32936 142.764 5.08224 142.702 3.80394 142.546C1.34087 142.266 0.000215532 140.738 0.000215532 138.275C-0.0309625 135.687 0.280818 133.099 0.499064 130.511C0.748488 127.581 1.12262 124.65 1.62147 121.719C2.49446 116.512 3.58569 111.337 5.14459 106.286C5.33166 105.631 5.45637 104.977 5.48755 104.322C5.79933 104.291 5.79933 104.072 5.86169 103.854C6.04875 103.106 6.267 102.389 6.48525 101.672C6.73467 100.736 6.95292 99.7387 7.29588 98.8345C8.48064 95.5296 11.162 93.1913 14.9657 93.1913C14.8721 93.846 14.8098 94.5319 14.7162 95.1867C14.5915 96.122 15.028 97.0262 15.901 97.338C17.7405 97.9927 19.393 97.1197 19.7671 95.2802C19.923 94.5631 19.6736 93.8772 19.7359 93.1913C22.3549 93.3472 24.9426 93.5031 27.5616 93.6278C33.8907 93.9396 40.2511 94.0643 46.5802 93.5654C47.9209 93.4719 49.2615 93.4719 50.571 93.1289C52.0052 93.2225 53.377 92.7236 54.78 92.6924C54.9047 93.2225 54.8112 93.7525 54.7489 94.3137C54.6241 95.3114 55.0918 95.9038 56.0895 96.0285C56.9625 96.1532 57.8355 96.0597 58.6773 95.7167C59.6438 95.3114 60.0179 94.6878 59.8309 93.6278C59.7373 93.0666 59.6126 92.5054 59.5191 91.9753C62.0757 91.6012 64.6635 91.2582 67.2201 90.8841C69.4961 90.5723 70.7432 91.2894 71.5538 93.4719C72.0215 94.719 72.1462 96.0597 72.2085 97.3691C72.5203 102.607 71.6473 107.751 70.9303 112.927C70.6496 114.954 70.2755 116.98 70.369 119.038C70.3379 119.1 70.2755 119.194 70.2755 119.256C70.0261 123.278 70.4314 127.238 71.9903 131.01C72.5827 132.382 73.4557 133.629 73.9545 135.063C74.7963 137.526 73.6116 139.335 71.0238 139.459C70.9614 139.459 70.9303 139.459 70.8679 139.459C68.0619 139.647 65.4117 140.332 62.9175 141.673C61.7015 142.328 60.548 143.076 59.2385 143.481C57.2431 144.105 55.2477 143.949 53.2211 143.606C51.444 143.294 49.6668 142.889 47.8897 142.608C43.0883 141.923 38.2868 141.891 33.4543 142.047C25.3791 142.297 17.3664 143.232 9.29127 143.014C9.16656 143.014 9.04185 143.076 8.91713 143.076C8.543 142.92 8.16886 142.827 7.79472 143.076C7.73237 142.983 7.67001 142.92 7.60766 142.827C7.57648 142.858 7.60766 142.889 7.60766 142.889ZM28.9023 119.817C28.5593 119.911 28.1228 119.911 28.154 120.41C28.1852 120.94 28.6217 120.94 29.027 120.94C29.0893 120.94 29.1829 120.971 29.2452 120.971C29.4946 122.623 30.1806 124.089 30.96 125.523C31.7083 126.926 33.0489 126.988 34.1713 125.835C34.7637 125.242 35.1379 124.494 35.512 123.746C36.5409 121.657 37.1333 119.381 38.1621 117.261C38.5051 116.575 38.4116 115.795 37.9439 115.109C36.7279 113.301 34.9196 112.678 32.893 112.771C30.3988 112.896 29.1205 114.268 28.7775 116.731C28.6217 117.76 28.7775 118.788 28.9023 119.817ZM68.1866 103.075C68.1866 102.856 68.1866 102.763 68.1866 102.669C68.1554 102.233 68.3425 101.609 67.6254 101.609C66.9395 101.609 67.033 102.202 67.033 102.669C67.033 104.415 66.7524 106.13 66.3471 107.814C65.5988 111.056 64.3517 114.143 63.1357 117.198C61.6392 121.033 59.8932 124.743 58.3343 128.578C57.1184 131.509 56.2454 134.533 55.996 137.745C55.8713 139.366 56.8066 140.426 58.2408 140.332C59.0826 140.301 59.7685 139.834 60.3921 139.335C62.7304 137.495 65.3182 136.653 68.3113 137.028C68.6854 137.059 69.0907 137.09 69.1531 136.591C69.2155 136.092 68.8413 135.936 68.4048 135.905C65.4117 135.625 62.6369 136.217 60.2362 138.119C59.675 138.555 59.1138 138.961 58.4279 139.148C57.7108 139.335 57.2431 139.023 57.1496 138.306C57.1184 137.994 57.1184 137.682 57.1496 137.371C57.399 135.001 57.9914 132.694 58.802 130.418C59.8309 127.581 61.078 124.806 62.3251 122.031C63.6658 119.038 64.8194 115.92 65.9418 112.865C67.1577 109.653 67.9995 106.38 68.1866 103.075ZM42.9636 122.873C45.8319 122.686 48.7315 122.187 51.5687 121.376C53.9694 120.69 56.0895 119.506 57.7419 117.541C59.9244 114.922 61.1403 111.805 62.3251 108.687C63.8217 104.665 65.2559 100.58 66.7524 96.5585C67.3136 95.0308 67.8124 94.8437 69.309 95.4361C69.5584 95.5296 69.7767 95.5608 69.9326 95.3426C70.0884 95.1555 70.1196 94.9061 69.9949 94.6878C69.839 94.4072 69.5896 94.2202 69.2778 94.0954C68.093 93.5654 66.8459 94.0954 66.0353 95.4361C65.5053 96.3403 65.2558 97.3691 64.9129 98.3357C63.9152 101.079 62.8863 103.823 61.8886 106.567C60.7039 109.809 59.6126 113.083 57.6172 115.92C56.4948 117.51 55.0918 118.788 53.2523 119.568C50.4775 120.721 47.5467 121.283 44.5848 121.594C43.7118 121.688 42.8388 121.719 41.9347 121.813C41.5605 121.844 41.0929 121.844 41.124 122.405C41.1552 122.997 41.6229 122.904 41.997 122.904C42.3088 122.873 42.5894 122.873 42.9636 122.873ZM9.04185 112.615C8.97949 113.706 9.04185 114.798 9.22891 115.858C9.50952 117.385 10.0084 118.851 11.0061 120.098C11.2555 120.41 11.5361 120.659 11.9102 120.379C12.2844 120.067 12.0973 119.693 11.8479 119.412C10.5384 117.728 10.1643 115.733 10.1643 113.706C10.1643 108.624 10.8814 103.574 11.1931 98.5227C11.2243 97.9303 11.3178 97.338 11.349 96.7456C11.3802 96.3714 11.2867 96.0597 10.8502 95.9973C10.3825 95.9349 10.2266 96.2467 10.1643 96.652C10.1331 96.8391 10.1331 97.0262 10.1331 97.1821C9.91483 99.9569 9.75894 102.701 9.47834 105.475C9.29127 107.845 9.1042 110.214 9.04185 112.615ZM2.21386 136.56C2.21386 138.119 2.77506 139.397 3.83511 140.208C4.58339 140.8 5.42519 140.956 5.89286 140.52C6.39171 140.083 6.39171 139.304 5.7058 138.493C4.7081 137.339 4.24043 136.03 4.20925 134.502C4.20925 133.972 4.08454 133.411 3.58569 133.068C3.08684 132.725 2.65035 132.881 2.55681 133.473C2.4321 134.565 2.30739 135.625 2.21386 136.56ZM17.4287 121.969C17.8341 121.969 18.0211 121.969 18.2394 121.969C18.6135 121.969 19.0188 121.969 18.9876 121.439C18.9565 121.002 18.6135 120.94 18.2705 120.94C17.2105 120.971 16.244 120.659 15.2775 120.254C14.9657 120.129 14.5915 119.942 14.3733 120.347C14.1239 120.784 14.4045 121.096 14.8098 121.283C15.7139 121.688 16.6181 122.031 17.4287 121.969Z" fill="#982176"/>
<path id="Vector_2" d="M132.008 134.502C133.068 134.221 134.159 133.91 135.219 133.629C135.219 135.5 135.219 137.339 135.219 139.21C135.219 139.678 135.219 140.208 135.812 140.176C136.404 140.145 136.342 139.646 136.31 139.148C136.217 137.09 136.03 135.032 136.622 133.005C137.558 132.6 138.493 132.195 139.428 131.79C139.428 132.32 139.366 132.881 139.303 133.411C139.179 134.346 139.148 135.313 139.116 136.279C139.116 136.622 139.241 136.965 139.709 136.934C140.114 136.934 140.239 136.653 140.27 136.31C140.301 136.092 140.301 135.843 140.301 135.624C140.364 134.034 140.457 132.444 140.894 130.885C141.891 130.605 142.671 129.95 143.513 129.42C146.755 127.393 149.717 124.962 152.617 122.53C153.178 122.062 153.77 121.625 154.456 121.376C155.734 120.908 156.888 121.158 157.761 122.187C159.787 124.587 160.473 127.425 160.286 130.449C159.943 135.656 157.324 139.74 153.77 143.357C149.655 147.503 145.04 151.026 140.395 154.518C135.094 158.478 129.607 162.157 123.902 165.524C123.621 165.711 123.309 165.836 122.997 165.961C122.062 166.241 121.501 166.023 121.096 165.15C120.815 164.589 120.628 163.996 120.316 163.435C119.35 161.689 117.167 161.19 115.733 162.344C114.829 163.061 114.517 164.09 114.86 165.181C115.109 165.929 115.421 166.678 115.671 167.457C116.107 168.735 115.764 169.858 114.891 170.824C114.049 171.76 112.989 172.414 111.898 173.038C109.778 174.254 107.564 175.252 105.195 175.875C104.166 176.156 103.324 175.875 102.638 175.065C102.046 174.379 101.734 173.537 101.547 172.695C100.705 168.891 100.113 165.056 100.082 161.128C100.082 160.754 100.113 160.349 99.8945 159.974C100.144 159.631 100.113 159.289 99.8633 158.946C100.019 158.26 100.144 157.543 100.05 156.825C100.424 156.638 100.58 156.327 100.643 155.921C100.986 155.734 101.297 155.485 101.516 155.173C102.638 154.612 103.761 154.051 104.883 153.458C108.967 151.213 112.709 148.501 115.951 145.134C116.45 144.604 116.294 144.417 115.795 144.261C114.704 143.855 113.925 143.138 113.239 142.203C112.335 140.956 112.241 138.742 112.927 137.339C113.582 135.967 114.704 135.25 115.92 134.502C117.915 134.19 119.817 134.627 121.75 134.97C122.997 135.188 124.307 135.469 125.585 135.157C125.959 135.344 126.333 135.375 126.676 135.126C127.643 135.406 128.578 135.001 129.545 134.938C129.919 134.907 130.293 134.814 130.667 134.751C130.636 135.25 130.574 135.718 130.542 136.217C130.387 138.181 130.48 140.145 130.574 142.141C130.605 142.515 130.823 142.827 131.197 142.764C131.54 142.733 131.696 142.421 131.665 142.078C131.634 141.611 131.634 141.143 131.634 140.675C131.634 138.618 131.509 136.529 132.008 134.502ZM123.465 162.282C123.777 162.25 124.026 162.001 124.307 161.814C129.888 157.917 135.5 154.051 141.081 150.153C141.33 149.966 141.579 149.779 141.798 149.592C141.985 149.405 141.985 149.187 141.829 148.969C141.673 148.75 141.455 148.688 141.205 148.782C141.049 148.844 140.894 148.969 140.738 149.062C135.437 152.741 130.137 156.42 124.837 160.068C124.276 160.442 123.714 160.847 123.184 161.222C122.935 161.409 122.841 161.658 122.935 161.97C122.997 162.219 123.184 162.282 123.465 162.282ZM155.828 138.493C155.765 138.119 155.485 137.932 155.111 138.056C154.893 138.119 154.737 138.306 154.55 138.462C151.993 140.862 149.312 143.17 146.537 145.321C145.882 145.82 145.227 146.35 144.573 146.817C144.23 147.067 143.918 147.347 144.261 147.784C144.604 148.189 144.947 147.94 145.258 147.69C145.383 147.566 145.539 147.441 145.664 147.347C149.062 144.791 152.305 142.078 155.391 139.148C155.578 138.992 155.797 138.836 155.828 138.493ZM111.087 169.608C111.087 169.421 110.994 169.266 110.838 169.141C110.589 168.954 110.339 169.078 110.121 169.203C108.188 170.513 106.13 171.573 103.979 172.446C103.636 172.602 103.355 172.789 103.542 173.194C103.698 173.537 104.01 173.599 104.384 173.443C106.567 172.539 108.624 171.448 110.62 170.139C110.838 170.045 111.056 169.889 111.087 169.608Z" fill="#982176"/>
<path id="Vector_3" d="M126.708 135.157C126.365 135.406 125.991 135.375 125.617 135.188C125.741 134.253 125.897 133.286 125.959 132.32C126.832 121.875 127.425 111.399 127.768 100.923C128.204 86.9868 128.235 73.0502 128.142 59.1136C128.017 40.4068 127.674 21.7 127.643 2.96198C127.643 2.27606 127.331 2.2137 126.801 2.2137C119.319 1.87075 111.805 1.52779 104.322 1.3719C89.793 1.02894 75.2328 1.02894 60.6727 1.40308C52.2546 1.62132 43.8677 1.96428 35.4808 2.46313C30.0247 2.77491 24.5685 2.9308 19.1435 3.61672C19.0812 3.61672 18.9876 3.58554 18.9253 3.58554C15.0904 3.89732 11.2867 4.2091 7.45176 4.4897C6.95291 4.52088 6.89055 4.7703 6.85938 5.2068C6.70349 9.47819 6.51642 13.7496 6.3917 18.0521C6.23581 23.3212 6.07992 28.5903 5.98639 33.8594C5.76814 46.7359 5.5499 59.6125 5.67461 72.4578C5.67461 73.4243 5.61225 74.422 5.76814 75.3886C5.61225 75.6692 5.67461 75.9498 5.67461 76.2304C5.73697 84.5861 5.95521 92.9106 6.36053 101.266C6.36053 101.422 6.32935 101.578 6.51642 101.672C6.29817 102.389 6.07992 103.137 5.89286 103.854C5.8305 104.104 5.79932 104.322 5.51872 104.322C5.42519 103.012 5.33165 101.672 5.2693 100.362C4.92634 93.6589 4.70809 86.9244 4.58338 80.2211C4.33395 65.2557 4.45867 50.3214 4.8328 35.3871C5.08223 25.0984 5.42519 14.7785 5.70579 4.4897C5.73697 3.80378 6.01757 3.52318 6.67231 3.46083C8.69888 3.27376 10.6943 3.05551 12.7208 2.89962C17.6782 2.52549 22.6666 2.15135 27.6239 1.80839C32.7371 1.46543 37.8192 1.18483 42.9324 0.935405C60.2673 0.0935984 77.5712 -0.155826 94.9062 0.0624204C105.818 0.187133 116.7 0.592447 127.581 1.12247C128.766 1.18483 128.766 1.24719 128.766 2.49431C128.797 18.1457 129.046 33.7971 129.202 49.4484C129.358 62.3873 129.389 75.3574 129.171 88.2963C129.077 93.4718 128.953 98.6162 128.766 103.792C128.516 110.183 128.173 116.606 127.799 122.997C127.581 127.051 127.269 131.104 126.708 135.157Z" fill="#201F24"/>
<path id="Vector_4" d="M99.8944 158.977C100.144 159.32 100.175 159.663 99.9256 160.006C91.1957 159.975 82.4347 159.881 73.7049 159.881C65.7856 159.85 57.8664 159.975 49.9784 160.255C41.8097 160.536 33.6411 160.91 25.5036 161.346C20.4528 161.627 15.4019 162.032 10.3823 162.438C9.16634 162.531 8.48042 161.908 8.41807 160.692C8.35571 158.915 8.29335 157.106 8.26218 155.329C8.19982 151.245 7.9504 147.192 7.82568 143.107C8.19982 142.858 8.57396 142.951 8.94809 143.107C8.97927 143.419 9.01045 143.731 9.01045 144.043C9.16634 149.468 9.32223 154.893 9.47812 160.318C9.5093 161.222 9.66519 161.346 10.5382 161.284C17.7403 160.816 24.9424 160.255 32.1134 159.881C40.4691 159.445 48.7936 159.164 57.1493 158.977C66.721 158.759 76.2926 158.852 85.8955 158.883C90.541 158.883 95.2177 158.946 99.8944 158.977Z" fill="#201F24"/>
<path id="Vector_5" d="M132.008 134.502C131.509 136.529 131.634 138.618 131.665 140.707C131.665 141.174 131.696 141.642 131.696 142.11C131.727 142.484 131.571 142.764 131.228 142.795C130.854 142.827 130.605 142.546 130.605 142.172C130.511 140.208 130.418 138.243 130.574 136.248C130.605 135.749 130.667 135.282 130.698 134.783C131.01 133.442 131.26 132.101 131.945 130.885C132.133 130.543 132.226 130.044 132.787 130.137C133.255 130.2 133.348 130.636 133.411 131.01C133.504 131.447 133.38 131.852 132.881 131.977C132.663 132.039 132.6 132.164 132.538 132.351C132.32 133.037 132.039 133.723 132.008 134.502Z" fill="#201F24"/>
<path id="Vector_6" d="M140.863 130.854C140.426 132.413 140.333 134.003 140.27 135.593C140.27 135.811 140.27 136.061 140.239 136.279C140.177 136.591 140.083 136.903 139.678 136.903C139.21 136.903 139.085 136.591 139.085 136.248C139.117 135.281 139.148 134.346 139.273 133.38C139.335 132.85 139.397 132.32 139.397 131.758C139.771 130.917 139.803 130.012 140.114 129.171C140.364 128.391 140.613 127.612 140.863 126.801C140.956 126.52 141.112 126.271 141.455 126.271C141.798 126.271 141.954 126.489 142.079 126.77C142.297 127.331 142.827 128.017 141.673 128.235C141.549 128.266 141.424 128.516 141.393 128.672C141.237 129.42 140.925 130.106 140.863 130.854Z" fill="#201F24"/>
<path id="Vector_7" d="M136.591 133.006C135.999 135.032 136.186 137.09 136.279 139.148C136.31 139.615 136.373 140.114 135.78 140.177C135.188 140.208 135.188 139.678 135.188 139.21C135.188 137.339 135.188 135.5 135.188 133.629C135.406 132.756 135.656 131.883 135.874 131.01C136.03 130.418 136.31 129.857 136.622 129.327C136.778 129.077 136.996 128.859 137.339 128.984C137.62 129.077 137.745 129.295 137.745 129.576C137.807 130.137 137.807 130.73 137.339 131.104C136.747 131.603 136.622 132.289 136.591 133.006Z" fill="#201F24"/>
<path id="Vector_8" d="M7.60777 142.889C7.60777 142.858 7.57659 142.858 7.57659 142.858L7.54541 142.889C7.57659 142.889 7.57659 142.889 7.60777 142.889Z" fill="#201F24"/>
<path id="Vector_9" d="M5.73688 75.3885C5.54981 74.4219 5.64334 73.4242 5.64334 72.4577C5.54981 59.5812 5.73688 46.7047 5.95512 33.8593C6.04866 28.5902 6.20455 23.3211 6.36044 18.0521C6.48515 13.7807 6.67222 9.50928 6.82811 5.20671C6.82811 4.80139 6.89046 4.55197 7.42049 4.48961C11.2554 4.20901 15.0591 3.86605 18.894 3.58545C18.9564 3.58545 19.0499 3.61663 19.1123 3.61663C19.1746 3.95959 19.3929 4.20901 19.5799 4.48961C20.7647 6.11087 22.1365 7.57624 23.2901 9.22867C24.7555 11.2864 26.4391 13.2195 27.9045 15.2772C29.2451 17.1791 30.6793 18.9874 32.02 20.8893C33.4541 22.8847 34.8572 24.88 36.229 26.9066C37.8191 29.2138 39.378 31.5521 40.9369 33.8905C42.0593 35.5741 43.1505 37.2889 44.117 39.0972C43.8988 39.409 43.8676 39.6896 44.117 40.0326C45.7695 42.0591 47.0789 44.304 47.9831 46.767C48.139 47.1723 48.3573 47.5153 48.8249 47.2971C49.2926 47.11 49.1991 46.6423 49.0743 46.2682C48.9185 45.7693 48.6379 45.2705 48.4508 44.7716C48.0455 43.618 47.266 42.6515 46.7984 41.5291C46.8607 41.4668 46.9542 41.3109 47.0166 41.342C47.9831 41.5291 48.9808 41.5291 49.9162 41.685C51.3503 41.9344 52.7845 42.2462 54.1875 42.6515C56.3388 43.2439 58.4278 43.961 60.4855 44.7405C61.9821 45.3017 63.4162 46.0811 64.9128 46.7047C66.2223 47.2659 67.3759 48.0453 68.623 48.6689C69.5583 49.1366 70.4937 49.7289 71.3666 50.3525C72.4267 51.1008 73.5491 51.8179 74.6403 52.5661C75.6068 53.2209 76.4175 54.125 77.5399 54.5927C77.7893 55.0292 78.257 55.2475 78.6311 55.5904C79.7535 56.4634 80.9071 57.274 81.9672 58.2094C84.4302 60.3918 86.8933 62.5743 89.2317 64.8503C92.2871 67.8746 95.3737 70.8365 98.3045 74.0166C100.612 76.5109 102.669 79.161 104.665 81.8735C106.193 83.9624 107.533 86.1761 108.843 88.4209C109.903 90.2604 110.838 92.1311 111.711 94.0641C112.989 96.8078 114.049 99.6138 115.141 102.42C116.325 105.475 117.385 108.593 118.165 111.773C118.57 113.394 118.882 115.047 118.913 116.731C117.853 117.073 116.762 117.261 115.764 117.791C115.39 117.978 115.078 118.227 115.265 118.695C115.484 119.194 115.827 119.069 116.232 118.913C117.167 118.539 118.071 118.102 119.131 118.102C119.163 118.227 119.194 118.352 119.225 118.477C119.568 119.755 119.381 121.095 119.474 122.405C119.506 123.091 119.786 124.089 118.757 124.587C117.417 125.211 116.076 125.866 114.829 126.645C114.268 126.988 113.519 127.05 113.27 127.799C112.802 127.643 112.459 127.955 112.148 128.173C109.965 129.545 107.845 131.041 105.818 132.663C103.012 134.876 100.362 137.277 97.868 139.833C97.6497 140.052 97.6497 140.301 97.6186 140.519C97.3068 140.488 97.0885 140.675 96.9015 140.894C96.5585 141.268 96.2467 141.704 95.8726 142.047C94.3449 143.575 93.0042 145.29 91.7259 147.036C90.8841 148.189 90.0735 149.405 89.2005 150.559C89.0134 150.808 88.7952 151.213 88.3275 151.058C87.891 150.933 87.7975 150.59 87.6416 150.216C87.2674 149.28 87.0492 148.283 86.5192 147.441C87.018 146.256 87.7039 145.196 88.5146 144.198C88.7328 143.949 88.764 143.7 88.5457 143.45C88.2963 143.17 87.9845 143.17 87.7351 143.419C87.548 143.575 87.3922 143.731 87.2363 143.918C86.8309 144.448 86.4568 145.009 86.0515 145.539C85.7397 145.477 85.7085 145.227 85.5838 144.978C84.5238 142.515 83.2143 140.176 81.9048 137.869C81.1565 136.591 80.4395 135.281 79.5976 134.034C79.0364 133.193 78.5999 132.257 77.914 131.478C77.6334 130.823 77.4152 130.137 76.7293 129.732C76.324 128.703 75.7316 127.768 75.1392 126.832C74.3597 125.616 73.6738 124.369 72.9567 123.122C72.1461 121.719 71.2108 120.41 70.3689 119.038C70.2754 116.98 70.6495 114.953 70.9302 112.927C71.6472 107.751 72.5514 102.607 72.2085 97.369C72.1149 96.0595 71.9902 94.7188 71.5537 93.4717C70.7743 91.2893 69.5271 90.541 67.22 90.8839C64.6634 91.2269 62.0756 91.601 59.519 91.9752C59.4566 91.8193 59.3943 91.6322 59.3631 91.4451C58.7395 88.6391 57.8042 85.9266 56.6818 83.2765C55.5594 80.5952 54.2187 78.0074 51.9427 76.0744C52.0051 75.8873 52.0674 75.6691 52.1298 75.482C52.7845 73.7984 53.034 72.0212 52.8469 70.2129C52.4416 66.4715 51.0074 63.1667 48.482 60.3918C46.5489 58.2405 44.5224 56.1516 42.8699 53.7821C43.057 53.5015 43.3376 53.3768 43.6182 53.2209C44.3041 52.8156 44.9588 52.3479 45.5824 51.8179C45.8007 51.6308 46.0189 51.4126 45.8007 51.1008C45.5824 50.7578 45.2394 50.7266 44.8965 50.8825C44.7718 50.9449 44.6782 51.0072 44.5535 51.0696C41.7475 53.0026 38.9727 54.9357 36.1666 56.8375C30.9287 60.4542 25.6596 64.0708 20.3906 67.6251C19.424 68.2799 18.3328 68.7787 17.0857 68.4981C16.6804 68.4046 16.2751 68.2487 16.1815 68.8411C16.088 69.3711 16.4309 69.5582 16.8674 69.6829C18.1146 70.0258 19.237 69.6517 20.297 69.0281C21.4818 68.3422 22.6042 67.5628 23.789 66.8457C23.9448 70.4 23.1966 73.8607 22.8224 77.3527C22.4171 77.3839 22.0742 77.2903 21.7 77.1656C20.9829 76.9162 20.2347 76.7291 19.4864 76.6044C17.9275 76.3238 16.3374 76.1367 14.7785 75.8561C13.3131 75.6067 11.8166 75.3885 10.3512 75.3261C8.76115 75.3573 7.2646 75.3885 5.73688 75.3885ZM90.3541 134.44C90.2917 134.284 90.1982 134.097 90.1046 133.91C87.2674 128.048 84.0249 122.405 80.2836 117.073C78.9741 115.234 77.6334 113.426 76.1992 111.68C75.9186 111.337 75.6069 111.025 75.1392 111.399C74.7027 111.742 74.9209 112.085 75.2015 112.397C77.1969 114.797 79.0364 117.354 80.7824 119.973C83.3078 123.808 85.615 127.768 87.6728 131.821C88.1404 132.756 88.6081 133.723 89.0758 134.658C89.2628 135.001 89.5434 135.157 89.9176 135.063C90.2605 135.001 90.3541 134.751 90.3541 134.44ZM24.0696 57.7105C26.3456 57.7105 28.6527 56.0893 29.4322 53.8756C29.9622 52.3479 29.9622 50.8825 28.7774 49.6666C27.5615 48.4195 26.0338 47.983 24.2878 48.4818C22.2924 49.0742 20.2347 51.5996 20.0476 53.6574C19.8605 55.7151 21.8559 57.7105 24.0696 57.7105ZM15.3085 65.6921C15.2462 65.3803 15.1526 64.8503 14.9968 64.3514C14.1549 61.2025 12.7831 58.2717 11.5983 55.2474C10.7565 53.1273 9.91473 51.0072 9.04175 48.9183C8.88586 48.5442 8.69879 48.0765 8.16876 48.2636C7.60756 48.4506 7.66991 48.856 7.88816 49.3548C8.76115 51.4437 9.63413 53.5638 10.4759 55.6839C11.3489 57.8352 12.1907 60.0177 13.0325 62.169C13.5002 63.3849 13.812 64.632 14.0302 65.9103C14.0926 66.3157 14.3108 66.6898 14.7785 66.6274C15.215 66.5651 15.3397 66.2533 15.3085 65.6921ZM77.7893 64.7879C77.8517 64.102 77.6022 63.3537 77.1658 62.699C76.854 62.2625 76.511 61.6389 75.8875 62.0443C75.2951 62.4496 75.8563 62.8861 76.1057 63.2914C77.1034 64.8191 76.4798 66.5963 74.8274 67.0016C74.2038 67.1575 73.5803 67.0951 73.0191 66.7833C72.6138 66.5651 72.2085 66.4715 71.959 66.9704C71.7408 67.4381 72.1149 67.6875 72.4579 67.8745C73.6426 68.5605 74.8898 68.4669 76.0122 67.8434C77.1346 67.251 77.8205 66.2533 77.7893 64.7879ZM92.786 136.342C92.786 136.622 92.8171 136.872 93.1601 136.965C93.503 137.059 93.7213 136.872 93.846 136.591C94.4384 135.437 95.3114 134.533 96.3402 133.754C96.652 133.504 96.9015 133.224 96.652 132.85C96.3714 132.444 95.9661 132.507 95.6232 132.756C94.8125 133.348 94.0331 134.034 93.4719 134.876C93.1601 135.344 92.786 135.749 92.786 136.342ZM109.466 122.374C109.497 122.374 109.591 122.374 109.653 122.343C110.838 121.47 112.085 120.721 113.457 120.129C113.738 120.004 113.8 119.692 113.644 119.412C113.488 119.1 113.239 118.975 112.927 119.1C111.524 119.692 110.152 120.347 109.03 121.407C108.811 121.625 108.843 121.875 108.905 122.124C108.999 122.343 109.186 122.405 109.466 122.374ZM92.1312 138.836C92.1312 138.618 92.0689 138.43 91.8506 138.337C91.5077 138.212 91.2271 138.306 91.0088 138.555C90.2294 139.428 89.5434 140.363 88.9822 141.392C88.7952 141.735 88.7328 142.109 89.1069 142.328C89.5746 142.608 89.8552 142.297 90.0423 141.954C90.5411 141.049 91.1959 140.239 91.8506 139.428C92.0065 139.272 92.1312 139.085 92.1312 138.836ZM102.638 127.955C102.669 127.549 102.139 127.238 101.672 127.425C100.705 127.83 99.9881 128.516 99.4269 129.389C99.2086 129.732 99.1463 130.106 99.5204 130.355C99.8945 130.574 100.175 130.418 100.425 130.075C100.923 129.42 101.453 128.796 102.264 128.453C102.482 128.36 102.576 128.173 102.638 127.955ZM105.101 125.679C105.195 125.647 105.32 125.647 105.382 125.585C105.974 124.993 106.504 124.369 107.253 123.964C107.471 123.839 107.502 123.559 107.346 123.34C107.221 123.091 107.003 122.904 106.691 122.997C105.725 123.309 105.039 123.995 104.571 124.837C104.384 125.242 104.54 125.616 105.101 125.679ZM46.6113 49.6978C46.5801 50.0095 46.6736 50.2901 46.9854 50.3837C47.2348 50.4772 47.5466 50.4772 47.6713 50.2278C47.8584 49.8848 48.139 49.6978 48.4508 49.5107C48.669 49.3548 48.7314 49.1366 48.669 48.8871C48.6067 48.6377 48.4196 48.513 48.1702 48.4818C47.4531 48.3883 46.6736 49.0118 46.6113 49.6978Z" fill="#F7CADE"/>
<path id="Vector_10" d="M28.9025 119.817C28.7778 118.788 28.6219 117.791 28.7778 116.731C29.1519 114.299 30.4302 112.896 32.8933 112.771C34.9199 112.677 36.7282 113.301 37.9441 115.109C38.4118 115.795 38.4742 116.575 38.1624 117.261C37.1647 119.381 36.5411 121.626 35.5122 123.746C35.1381 124.494 34.764 125.211 34.1716 125.835C33.0492 126.988 31.7085 126.957 30.9602 125.523C30.1808 124.089 29.4949 122.592 29.2455 120.971C29.5572 120.94 29.869 120.94 30.1808 120.908C31.9268 120.846 33.6416 121.096 35.3875 121.22C35.7305 121.251 36.1982 121.345 36.2293 120.815C36.2605 120.316 35.8864 120.254 35.5122 120.223C34.4522 120.16 33.3921 120.067 32.3321 119.973C31.1785 119.88 30.0249 120.004 28.9025 119.817Z" fill="#201F24"/>
<path id="Vector_11" d="M50.6021 93.1288C48.6378 91.5075 46.6736 89.9174 44.7094 88.2962C43.8364 87.5791 42.9946 86.8308 41.9346 86.3943C42.184 86.0202 42.4646 85.7084 42.6517 85.3031C42.8699 84.8978 43.057 84.8354 43.4935 85.0848C45.0524 86.0202 46.6425 85.8019 47.9519 84.5548C49.0432 83.4948 49.6355 82.2164 49.6979 80.6887C50.1344 80.8758 50.415 81.2188 50.6956 81.5305C53.5952 84.6795 54.3746 88.6079 54.7799 92.6611C53.3769 92.7234 52.0051 93.2223 50.6021 93.1288Z" fill="#F7CADE"/>
<path id="Vector_12" d="M68.1866 103.075C67.9995 106.38 67.1265 109.684 65.9418 112.865C64.7882 115.951 63.6658 119.038 62.3251 122.031C61.078 124.806 59.8309 127.549 58.802 130.418C57.9914 132.663 57.399 134.97 57.1496 137.371C57.1184 137.682 57.1184 137.994 57.1496 138.306C57.2431 139.023 57.7108 139.335 58.4279 139.148C59.1138 138.961 59.7062 138.555 60.2362 138.119C62.6369 136.217 65.4117 135.593 68.4048 135.905C68.8413 135.936 69.2155 136.092 69.1531 136.591C69.0908 137.09 68.6543 137.059 68.3113 137.028C65.3494 136.653 62.7304 137.495 60.3921 139.335C59.7685 139.834 59.0826 140.27 58.2408 140.332C56.8066 140.395 55.8713 139.335 55.996 137.745C56.2142 134.565 57.1184 131.509 58.3343 128.578C59.8932 124.775 61.6392 121.033 63.1358 117.198C64.3517 114.112 65.63 111.056 66.3471 107.814C66.7212 106.13 67.033 104.415 67.033 102.669C67.033 102.202 66.9706 101.609 67.6254 101.609C68.3425 101.609 68.1554 102.233 68.1866 102.669C68.1866 102.763 68.1866 102.857 68.1866 103.075Z" fill="#201F24"/>
<path id="Vector_13" d="M42.9635 122.873C42.5894 122.873 42.2776 122.873 41.997 122.873C41.6229 122.873 41.1552 122.966 41.124 122.374C41.0929 121.813 41.5605 121.813 41.9347 121.781C42.8077 121.719 43.6806 121.657 44.5848 121.563C47.5467 121.251 50.4775 120.721 53.2523 119.537C55.0606 118.788 56.4636 117.51 57.6172 115.889C59.6438 113.02 60.735 109.778 61.8886 106.535C62.8863 103.792 63.884 101.048 64.9129 98.3044C65.2558 97.3379 65.5053 96.309 66.0353 95.4048C66.8459 94.033 68.1242 93.503 69.2778 94.0642C69.5584 94.1889 69.8078 94.3759 69.9949 94.6565C70.1196 94.8748 70.0884 95.093 69.9325 95.3113C69.7455 95.5295 69.5584 95.4984 69.309 95.4048C67.8436 94.8124 67.3136 94.9995 66.7524 96.5272C65.2558 100.549 63.8216 104.634 62.3251 108.655C61.1715 111.804 59.9556 114.891 57.7419 117.51C56.0895 119.474 53.9694 120.659 51.5687 121.345C48.7315 122.187 45.8319 122.686 42.9635 122.873Z" fill="#201F24"/>
<path id="Vector_14" d="M54.811 92.6922C54.3745 88.6391 53.595 84.7107 50.7266 81.5617C50.446 81.2499 50.1343 80.907 49.729 80.7199C49.6666 80.221 49.5731 79.691 49.6978 79.1922C51.8179 80.8134 53.408 82.84 54.3433 85.3342C55.1851 87.6102 55.6528 90.0109 56.0269 92.4116C56.0269 93.0352 56.1205 93.6276 55.9022 94.2512C55.7463 94.75 56.0581 94.9683 56.4946 94.9994C57.087 95.0306 57.6794 94.9059 58.2406 94.7188C58.6459 94.5629 58.8018 94.3135 58.7082 93.877C58.5523 93.1911 58.4276 92.5364 58.3029 91.8504C58.2094 91.5387 58.1158 91.2581 58.0535 90.9463C57.0246 87.049 55.7463 83.2765 53.6262 79.8157C52.3479 77.758 50.6019 76.2614 48.3259 75.3573C48.1701 75.139 48.0142 74.9519 47.8895 74.7337C47.7647 74.5466 47.5777 74.2972 47.7336 74.1101C47.9206 73.8607 48.1389 74.1101 48.3571 74.1725C49.6666 74.5778 50.789 75.3884 51.9426 76.0744C54.2186 78.0074 55.5592 80.564 56.6817 83.2765C57.8041 85.9266 58.7394 88.6391 59.363 91.4451C59.3941 91.6322 59.4877 91.7881 59.5189 91.9752C59.6436 92.5364 59.7371 93.0976 59.8306 93.6276C60.0177 94.6876 59.6436 95.28 58.677 95.7165C57.8352 96.0595 56.9934 96.1218 56.0893 96.0283C55.0916 95.9036 54.6239 95.3112 54.7486 94.3135C54.8422 93.7523 54.9357 93.2223 54.811 92.6922Z" fill="#201F24"/>
<path id="Vector_15" d="M23.1656 83.6819C20.8273 86.4255 19.4866 89.5121 19.7672 93.1912C19.6737 93.8771 19.9231 94.563 19.7984 95.2801C19.4243 97.1196 17.7718 97.9926 15.9323 97.3378C15.0593 97.0261 14.654 96.1219 14.7476 95.1866C14.8411 94.5318 14.9034 93.8459 14.997 93.1912C15.4958 91.4452 15.9323 89.6992 16.4623 87.9844C17.5536 84.3366 19.2684 81.0629 22.3862 78.6622C22.5109 78.5687 22.698 78.4751 22.8227 78.3816C22.9474 78.8804 22.9474 79.3481 22.8227 79.847C21.9809 80.3146 21.3261 81.0317 20.7649 81.78C18.1771 85.116 17.0547 89.0757 16.3376 93.1288C16.1506 93.8147 15.9635 94.5006 15.8076 95.2177C15.6829 95.7789 15.9323 96.1531 16.4623 96.3713C17.46 96.8078 18.6448 96.0907 18.7072 94.9995C18.7383 94.3759 18.7072 93.7524 18.5825 93.16C18.5825 93.0353 18.6136 92.9106 18.6136 92.7858C18.5201 88.6392 20.3284 85.2719 22.9162 82.2477C23.2903 82.653 23.1968 83.183 23.1656 83.6819Z" fill="#201F24"/>
<path id="Vector_16" d="M9.04196 112.615C9.13549 110.246 9.29139 107.845 9.50963 105.476C9.79023 102.732 9.94612 99.9571 10.1644 97.1822C10.1644 96.9952 10.1644 96.8081 10.1955 96.6522C10.2579 96.2469 10.4138 95.9351 10.8815 95.9975C11.318 96.0598 11.4115 96.3716 11.3803 96.7457C11.318 97.3381 11.2556 97.9305 11.2244 98.5229C10.8815 103.574 10.1955 108.625 10.1955 113.707C10.1955 115.764 10.5697 117.729 11.8792 119.412C12.0974 119.693 12.3157 120.067 11.9415 120.379C11.5674 120.69 11.2868 120.41 11.0374 120.098C10.0397 118.851 9.50963 117.386 9.26021 115.858C9.04196 114.798 8.9796 113.707 9.04196 112.615Z" fill="#201F24"/>
<path id="Vector_17" d="M17.4289 121.969C16.5871 122.031 15.6829 121.688 14.8099 121.251C14.4358 121.064 14.1552 120.753 14.3734 120.316C14.5917 119.911 14.9658 120.098 15.2776 120.223C16.2441 120.628 17.2106 120.94 18.2707 120.908C18.6448 120.908 18.9878 120.971 18.9878 121.407C19.019 121.937 18.6136 121.937 18.2395 121.937C18.0524 121.969 17.8342 121.969 17.4289 121.969Z" fill="#201F24"/>
<path id="Vector_18" d="M113.301 127.799C114.112 129.857 114.922 131.883 115.764 133.941C115.827 134.128 115.889 134.315 115.951 134.533C114.767 135.25 113.613 135.999 112.958 137.371C112.272 138.774 112.366 140.956 113.27 142.234C113.925 143.17 114.735 143.887 115.827 144.292C116.294 144.479 116.481 144.635 115.983 145.165C112.74 148.532 108.999 151.276 104.914 153.49C103.823 154.082 102.669 154.643 101.547 155.204C101.485 154.986 101.422 154.768 101.391 154.518C101.111 152.679 100.643 150.871 100.206 149.062C99.7076 146.942 99.1152 144.822 98.3669 142.795C98.0863 142.047 97.8681 141.268 97.6187 140.488C97.6498 140.239 97.681 139.989 97.8681 139.802C100.362 137.246 103.012 134.845 105.818 132.631C107.845 131.041 109.965 129.545 112.148 128.142C112.491 127.955 112.834 127.643 113.301 127.799Z" fill="#EC255A"/>
<path id="Vector_19" d="M77.8828 131.478C77.8516 133.691 77.8204 135.874 77.7893 138.088C77.7581 140.675 77.8204 143.294 77.7269 145.882C77.6957 146.973 78.1322 147.566 79.0364 148.127C82.0918 149.935 85.3967 151.12 88.7327 152.242C92.5676 153.521 96.4025 154.737 100.3 155.859C100.425 155.89 100.549 155.953 100.643 156.015C100.58 156.389 100.393 156.732 100.05 156.919C94.4695 155.391 89.0134 153.583 83.5884 151.619C81.6242 150.902 79.7535 149.904 77.9763 148.813C77.1033 148.252 76.6045 147.534 76.6045 146.443C76.6357 140.894 76.6668 135.344 76.698 129.794C77.3839 130.137 77.6022 130.823 77.8828 131.478Z" fill="#201F24"/>
<path id="Vector_20" d="M23.1656 83.682C23.1967 83.152 23.2903 82.622 22.8538 82.2167C22.9473 81.406 22.8226 80.6266 22.7603 79.8471C22.9161 79.3483 22.9161 78.8806 22.7603 78.3818C22.8226 78.07 22.9161 77.7582 22.7603 77.4464C23.1344 73.9545 23.8827 70.4937 23.7268 66.9394C24.0697 66.5029 24.5374 66.2223 24.9739 65.9417C28.2788 63.6969 31.5525 61.4209 34.8573 59.1761C37.5075 57.3678 40.0329 55.4659 42.7766 53.8135C44.4602 56.183 46.4556 58.2719 48.3886 60.4232C50.914 63.1981 52.3482 66.5029 52.7535 70.2443C52.9406 72.0526 52.6912 73.7986 52.0364 75.5134C51.9741 75.7005 51.9117 75.9187 51.8494 76.1058C50.6958 75.4199 49.5734 74.6092 48.2639 74.2039C48.0456 74.1416 47.8274 73.8921 47.6403 74.1416C47.4844 74.3286 47.6715 74.578 47.7962 74.7651C47.9209 74.9834 48.0768 75.1704 48.2327 75.3887C48.7939 76.6358 49.2304 77.9141 49.6045 79.1924C49.4798 79.6912 49.5422 80.2213 49.6357 80.7201C49.5734 82.2478 48.981 83.5261 47.8898 84.5862C46.5803 85.8333 44.959 86.0516 43.4313 85.1162C42.9948 84.8668 42.8077 84.898 42.5895 85.3345C42.4024 85.7086 42.0906 86.0516 41.8724 86.4257C40.6564 87.2052 39.4093 87.4858 38.0687 86.7375C37.6634 86.5192 37.3204 86.1763 37.071 85.771C36.7904 85.3345 36.5721 85.3656 36.2603 85.7398C35.1691 86.9869 33.7661 87.5793 32.1448 87.5793C30.8042 87.5793 29.7753 86.7998 29.3076 85.5527C29.1518 85.1162 28.9959 84.9603 28.5282 85.1786C28.0605 85.3968 27.5617 85.5527 27.0628 85.6463C25.161 85.9269 24.0074 85.6774 23.1656 83.682ZM47.5156 71.6473C47.5156 71.585 47.5156 71.5226 47.4844 71.4914C46.7362 70.1508 46.362 68.6542 45.7073 67.3136C45.5826 67.0641 45.3332 66.8459 45.0214 66.9706C44.6784 67.1265 44.5225 67.4383 44.6784 67.8124C45.2396 69.1842 45.8008 70.5249 46.362 71.8967C46.4867 72.2085 46.705 72.2397 46.9856 72.115C47.235 71.9903 47.4844 71.9591 47.5156 71.6473ZM42.7142 79.7224C43.4936 79.6289 44.2107 79.3795 44.8967 79.13C45.2708 78.9742 45.4579 78.7559 45.3332 78.3818C45.2084 78.0076 44.8967 77.9141 44.5225 78.0076C43.8678 78.1947 43.1819 78.4129 42.5271 78.6C42.1842 78.6936 41.9971 78.943 42.0906 79.3171C42.153 79.6601 42.4648 79.6912 42.7142 79.7224ZM27.2187 79.3171C26.8446 79.2859 26.5016 79.3795 26.4393 79.7848C26.3769 80.1589 26.6263 80.4083 27.0005 80.5019C27.5305 80.6578 28.0605 80.7825 28.5594 80.9072C28.9335 81.0007 29.2765 81.0007 29.4324 80.533C29.5882 80.0342 29.3076 79.7848 28.8711 79.6912C28.3099 79.5354 27.7799 79.4418 27.2187 79.3171ZM35.2626 81.0631C35.6056 81.0007 36.0421 80.9695 36.4474 80.8448C36.7904 80.7513 36.9774 80.5019 36.8839 80.1277C36.8215 79.7848 36.5409 79.6601 36.2292 79.6912C35.7927 79.7536 35.3562 79.8471 34.9197 79.9095C34.5456 79.9718 34.3897 80.2213 34.4208 80.5642C34.5144 81.0007 34.8262 81.0631 35.2626 81.0631Z" fill="#EC255A"/>
<path id="Vector_21" d="M77.5713 54.5616C77.7272 53.0339 77.6648 51.5061 77.6648 49.9784C77.6336 35.3871 77.7895 20.7958 77.6648 6.23564C77.6336 4.5832 78.6625 3.52315 80.2838 3.33608C87.9224 2.52545 95.5922 2.49427 103.262 2.7437C107.845 2.86841 112.428 3.18019 117.012 3.39843C117.635 3.42961 118.259 3.42961 118.882 3.42961C119.319 3.42961 119.88 3.36726 119.88 3.99082C119.88 4.55202 119.381 4.55202 118.945 4.55202C116.7 4.5832 114.424 4.39613 112.179 4.27142C103.106 3.77257 94.0333 3.49197 84.9605 4.08435C83.4328 4.17789 81.905 4.3026 80.3773 4.45849C79.1925 4.5832 78.7561 5.11323 78.7561 6.29799C78.7561 22.3235 78.7561 38.3802 78.7561 54.4057C78.7561 54.7798 78.8496 55.1851 78.6625 55.5593C78.3196 55.2475 77.8519 55.0293 77.5713 54.5616Z" fill="#201F24"/>
<path id="Vector_22" d="M42.8387 53.7821C40.0951 55.4345 37.5385 57.3364 34.9195 59.1447C31.6146 61.3895 28.3409 63.6655 25.0361 65.9103C24.5996 66.2221 24.1319 66.5027 23.7889 66.908C22.6354 67.6251 21.4818 68.4046 20.297 69.0905C19.2369 69.6829 18.1457 70.0882 16.8674 69.7452C16.4309 69.6205 16.088 69.4334 16.1815 68.9034C16.3062 68.3422 16.7115 68.4669 17.0857 68.5605C18.3328 68.8099 19.424 68.3422 20.3905 67.6875C25.6596 64.102 30.8975 60.4854 36.1666 56.8999C38.9726 54.9668 41.7475 53.0338 44.5535 51.1319C44.647 51.0696 44.7718 50.976 44.8965 50.9449C45.2394 50.789 45.5512 50.8202 45.8006 51.1631C46.0189 51.4749 45.8006 51.6931 45.5824 51.8802C44.99 52.4102 44.3041 52.8779 43.6182 53.2832C43.3376 53.4079 43.0258 53.5327 42.8387 53.7821Z" fill="#982176"/>
<path id="Vector_23" d="M90.3541 134.44C90.3229 134.752 90.2605 135.001 89.9488 135.095C89.5746 135.188 89.294 135.063 89.107 134.689C88.6393 133.723 88.1716 132.787 87.7039 131.852C85.615 127.768 83.339 123.808 80.8136 120.004C79.0676 117.385 77.2593 114.86 75.2327 112.428C74.9521 112.116 74.7339 111.742 75.1704 111.43C75.6069 111.087 75.9498 111.399 76.2304 111.711C77.6646 113.457 79.0053 115.265 80.3148 117.105C84.0561 122.436 87.2675 128.08 90.1358 133.941C90.2294 134.097 90.2917 134.284 90.3541 134.44Z" fill="#982176"/>
<path id="Vector_24" d="M24.0695 57.7106C21.8247 57.7106 19.8604 55.7152 20.0475 53.6574C20.2346 51.6309 22.2923 49.0742 24.2877 48.4819C26.0337 47.9518 27.5614 48.3883 28.7774 49.6666C29.9621 50.8826 29.931 52.3791 29.4321 53.8757C28.6527 56.0893 26.3767 57.7417 24.0695 57.7106ZM28.6527 52.2232C28.6527 51.9115 28.6215 51.5997 28.4968 51.3191C27.7173 49.386 25.036 48.8248 23.3212 50.2902C22.5106 50.9761 21.9494 51.7867 21.5441 52.8156C20.8581 54.5928 21.7311 56.2452 23.633 56.557C25.909 56.9623 28.6215 54.5928 28.6527 52.2232Z" fill="#201F24"/>
<path id="Vector_25" d="M15.3085 65.6923C15.3397 66.2535 15.2462 66.5965 14.8408 66.6276C14.3732 66.69 14.1549 66.3159 14.0926 65.9105C13.8743 64.6322 13.5625 63.3851 13.0949 62.1692C12.2531 59.9867 11.3801 57.8354 10.5383 55.6842C9.69647 53.564 8.82348 51.4439 7.9505 49.355C7.76343 48.8873 7.66989 48.482 8.2311 48.2638C8.76113 48.0767 8.94819 48.5444 9.10408 48.9185C9.97707 51.0386 10.8189 53.1276 11.6607 55.2477C12.8454 58.2719 14.2173 61.2027 15.0591 64.3516C15.1214 64.8505 15.215 65.3493 15.3085 65.6923Z" fill="#982176"/>
<path id="Vector_26" d="M77.7892 64.7881C77.7892 66.2534 77.1345 67.2511 76.0121 67.8747C74.8585 68.4983 73.6426 68.5606 72.4578 67.9059C72.1148 67.7188 71.7407 67.4694 71.959 67.0017C72.1772 66.5029 72.6137 66.5964 73.019 66.8146C73.5802 67.1264 74.2038 67.1888 74.8273 67.0329C76.4798 66.6276 77.1033 64.8504 76.1056 63.3227C75.8562 62.9174 75.295 62.4809 75.8874 62.0756C76.5109 61.6391 76.8539 62.2938 77.1657 62.7303C77.6334 63.3539 77.8516 64.071 77.7892 64.7881Z" fill="#982176"/>
<path id="Vector_27" d="M44.117 39.0662C44.5846 38.9415 44.8964 39.0974 45.177 39.4715C45.7071 40.1574 46.2683 40.8434 46.7983 41.5293C47.266 42.6517 48.0454 43.6182 48.4507 44.7718C48.6378 45.2706 48.9184 45.7695 49.0743 46.2683C49.199 46.6425 49.2925 47.079 48.8249 47.2972C48.3572 47.5155 48.1078 47.1413 47.9831 46.7672C47.0789 44.3041 45.7694 42.0593 44.117 40.0327C43.8676 39.6898 43.8987 39.378 44.117 39.0662Z" fill="#982176"/>
<path id="Vector_28" d="M92.7861 136.341C92.7861 135.749 93.1603 135.313 93.4409 134.876C94.0021 134.034 94.7503 133.348 95.5922 132.756C95.9351 132.507 96.3404 132.444 96.621 132.85C96.9016 133.224 96.6522 133.504 96.3092 133.754C95.2804 134.502 94.4074 135.437 93.815 136.591C93.6903 136.872 93.4721 137.027 93.1291 136.965C92.8485 136.872 92.8173 136.622 92.7861 136.341Z" fill="#982176"/>
<path id="Vector_29" d="M109.466 122.374C109.186 122.374 108.999 122.343 108.905 122.093C108.812 121.844 108.812 121.594 109.03 121.376C110.152 120.316 111.524 119.661 112.927 119.069C113.208 118.944 113.488 119.1 113.644 119.381C113.8 119.692 113.738 119.973 113.457 120.098C112.085 120.659 110.869 121.438 109.653 122.311C109.591 122.374 109.497 122.374 109.466 122.374Z" fill="#982176"/>
<path id="Vector_30" d="M86.5193 147.41C86.2075 147.597 85.8957 147.722 85.6151 147.41C85.3345 147.098 85.4904 146.786 85.6463 146.475C85.771 146.163 85.9269 145.82 86.0516 145.508C86.4257 144.978 86.831 144.417 87.2364 143.887C87.3611 143.7 87.5481 143.544 87.7352 143.388C88.0158 143.139 88.2964 143.139 88.5458 143.419C88.7953 143.669 88.7329 143.918 88.5147 144.167C87.704 145.196 86.9869 146.225 86.5193 147.41Z" fill="#982176"/>
<path id="Vector_31" d="M92.1315 138.836C92.1315 139.085 92.0067 139.272 91.8509 139.459C91.1961 140.239 90.5414 141.05 90.0425 141.985C89.8555 142.328 89.5749 142.671 89.1072 142.359C88.733 142.11 88.7642 141.767 88.9825 141.424C89.5437 140.395 90.2296 139.459 91.009 138.586C91.2273 138.337 91.5079 138.244 91.8509 138.368C92.1003 138.431 92.1626 138.586 92.1315 138.836Z" fill="#982176"/>
<path id="Vector_32" d="M118.913 116.762C119.319 116.793 119.724 116.886 119.849 117.323C119.973 117.822 119.412 117.884 119.163 118.134C118.134 118.134 117.199 118.57 116.263 118.944C115.858 119.1 115.484 119.225 115.297 118.726C115.11 118.258 115.421 118.009 115.795 117.822C116.762 117.292 117.884 117.105 118.913 116.762Z" fill="#982176"/>
<path id="Vector_33" d="M102.638 127.955C102.607 128.173 102.483 128.36 102.295 128.422C101.516 128.765 100.955 129.389 100.456 130.044C100.207 130.387 99.9259 130.574 99.5518 130.324C99.1776 130.075 99.24 129.701 99.4582 129.358C100.019 128.485 100.705 127.799 101.703 127.393C102.14 127.238 102.67 127.549 102.638 127.955Z" fill="#982176"/>
<path id="Vector_34" d="M105.101 125.679C104.571 125.585 104.384 125.242 104.603 124.837C105.07 123.964 105.756 123.309 106.723 122.997C107.003 122.904 107.222 123.091 107.377 123.34C107.502 123.559 107.471 123.87 107.284 123.964C106.536 124.4 106.006 125.024 105.413 125.585C105.288 125.648 105.164 125.679 105.101 125.679Z" fill="#982176"/>
<path id="Vector_35" d="M46.6111 49.6979C46.6735 49.012 47.453 48.3885 48.17 48.482C48.4195 48.5132 48.6377 48.6067 48.6689 48.8873C48.7313 49.1367 48.7001 49.355 48.4506 49.5109C48.1389 49.6979 47.8583 49.885 47.6712 50.228C47.5465 50.5086 47.2347 50.4774 46.9853 50.3839C46.6735 50.2903 46.58 50.0409 46.6111 49.6979Z" fill="#982176"/>
<path id="Vector_36" d="M49.698 79.1611C49.3239 77.8517 48.8874 76.5734 48.3262 75.3574C50.6022 76.2304 52.3793 77.727 53.6264 79.8159C55.7465 83.2766 57.0248 87.0492 58.0537 90.9464C58.1473 91.2582 58.2096 91.5388 58.3031 91.8506C58.2096 92.1 58.0225 92.1936 57.7731 92.2247C57.1807 92.2871 56.6195 92.3495 56.0271 92.4118C55.653 90.0111 55.1853 87.6416 54.3435 85.3344C53.4082 82.809 51.8181 80.7824 49.698 79.1611Z" fill="#F7CADE"/>
<path id="Vector_37" d="M56.027 92.3805C56.6194 92.3182 57.1806 92.2558 57.773 92.1935C58.0224 92.1623 58.2095 92.0376 58.303 91.8193C58.4277 92.5053 58.5525 93.1912 58.7083 93.8459C58.8019 94.2824 58.646 94.5318 58.2407 94.6877C57.6795 94.906 57.0871 95.0307 56.4947 94.9683C56.0582 94.9371 55.7153 94.6877 55.9023 94.22C56.1206 93.5965 56.027 93.0041 56.027 92.3805Z" fill="#982176"/>
<path id="Vector_38" d="M16.2753 93.1289C17.0236 93.1289 17.7719 93.1601 18.5202 93.1601C18.6449 93.7836 18.6761 94.376 18.6449 94.9996C18.5825 96.0908 17.3978 96.8079 16.4001 96.3714C15.9012 96.1532 15.6206 95.779 15.7453 95.2178C15.9012 94.5007 16.1195 93.8148 16.2753 93.1289Z" fill="#982176"/>
<path id="Vector_39" d="M118.695 23.5394C118.383 26.6572 118.726 30.0244 118.726 33.3916C118.726 35.9482 118.539 36.1353 116.045 35.7612C112.74 35.2623 109.435 34.7323 106.13 34.2334C101.64 33.5164 97.2132 32.6745 92.7548 31.8327C91.9753 31.6768 91.1959 31.521 90.4164 31.3339C89.1381 31.0221 88.6081 30.305 88.6392 28.9644C88.7016 26.3454 88.7951 23.7264 88.6081 21.1075C88.5769 20.3904 88.3275 19.6733 88.3586 18.9562C88.421 17.8962 88.8887 17.4285 89.9487 17.4908C91.5076 17.5532 93.0354 17.8338 94.5631 18.1144C97.9927 18.738 101.485 19.1745 104.945 19.5486C108.843 19.9539 112.74 20.328 116.606 20.9828C116.949 21.0451 117.323 21.1075 117.666 21.2322C118.477 21.4505 118.757 22.0117 118.695 23.5394ZM106.91 26.0336C107.034 26.0336 107.315 25.9401 107.346 25.5971C107.377 25.223 107.128 25.0671 106.785 24.9736C104.166 24.4435 101.547 24.0694 98.8656 24.0071C98.5227 24.0071 98.1174 23.9759 98.0862 24.4435C98.055 24.9424 98.4915 24.9424 98.8656 24.9736C100.144 25.0983 101.453 25.223 102.732 25.3789C104.072 25.5971 105.382 25.8154 106.91 26.0336ZM103.916 28.4032C104.135 28.372 104.447 28.372 104.509 28.0602C104.602 27.7172 104.322 27.5302 104.041 27.4678C103.012 27.2496 101.952 27.1872 100.892 27.2807C100.643 27.3119 100.269 27.3119 100.3 27.7172C100.331 28.1226 100.643 28.1849 100.955 28.2161C101.921 28.2784 102.888 28.1849 103.916 28.4032ZM114.33 23.6329C114.049 23.6017 113.8 23.7576 113.738 24.1006C113.675 24.4747 113.956 24.5994 114.236 24.6618C114.611 24.7553 114.985 24.7865 115.39 24.8489C115.671 24.88 115.889 24.7865 115.951 24.4747C115.982 24.1629 115.858 23.9759 115.546 23.9135C115.172 23.7888 114.798 23.7264 114.33 23.6329ZM91.4453 21.014C91.8194 21.0451 92.1624 20.9828 92.1624 20.5463C92.1624 20.0163 91.7571 19.8915 91.2894 19.8915C90.8841 19.8915 90.5099 19.9539 90.5099 20.4216C90.5411 21.014 91.04 20.9828 91.4453 21.014ZM115.359 33.5475C115.639 33.5787 115.92 33.5164 115.951 33.1422C115.982 32.5187 115.452 32.4875 115.047 32.3939C114.704 32.3004 114.361 32.4563 114.392 32.8304C114.361 33.4228 114.891 33.454 115.359 33.5475ZM91.8818 29.8997C92.2559 29.8997 92.6924 29.8685 92.7236 29.4009C92.7548 28.8708 92.2871 28.8085 91.8818 28.8085C91.4453 28.7773 91.04 28.9332 91.04 29.4009C91.04 29.8685 91.5076 29.8997 91.8818 29.8997Z" fill="#EC255A"/>
<path id="Vector_40" d="M47.5154 71.6471C47.4843 71.9589 47.2037 72.0213 46.9854 72.1148C46.7048 72.2083 46.4866 72.1772 46.3619 71.8966C45.8007 70.5247 45.2395 69.1841 44.6782 67.8122C44.5224 67.4381 44.6782 67.1263 45.0212 66.9704C45.333 66.8145 45.5824 67.0328 45.7071 67.3134C46.393 68.6852 46.7672 70.1506 47.4843 71.4913C47.5154 71.5224 47.5154 71.5848 47.5154 71.6471Z" fill="#201F24"/>
<path id="Vector_41" d="M42.7142 79.7224C42.4647 79.6912 42.153 79.66 42.0906 79.3171C42.0282 78.9741 42.1841 78.7247 42.5271 78.6C43.1818 78.3818 43.8678 78.1947 44.5225 78.0076C44.8966 77.9141 45.2084 78.0076 45.3331 78.3817C45.4578 78.7559 45.2708 79.0053 44.8966 79.13C44.2107 79.3794 43.4936 79.6289 42.7142 79.7224Z" fill="#201F24"/>
<path id="Vector_42" d="M27.2188 79.3171C27.78 79.4418 28.3412 79.5353 28.8713 79.6601C29.2766 79.7536 29.5884 80.003 29.4325 80.5019C29.2766 80.9695 28.9336 80.9695 28.5595 80.876C28.0295 80.7513 27.4994 80.6266 27.0006 80.4707C26.6576 80.3772 26.377 80.1277 26.4394 79.7536C26.5017 79.3795 26.8447 79.2859 27.2188 79.3171Z" fill="#201F24"/>
<path id="Vector_43" d="M35.2623 81.063C34.8258 81.063 34.5141 81.0007 34.4829 80.5954C34.4517 80.2524 34.6076 80.003 34.9817 79.9406C35.4182 79.8783 35.8547 79.7536 36.2912 79.7224C36.603 79.6912 36.8836 79.8159 36.9459 80.1589C37.0083 80.5018 36.8524 80.7824 36.5095 80.876C36.0418 80.9695 35.6053 81.0007 35.2623 81.063Z" fill="#201F24"/>
<path id="Vector_44" d="M28.6529 52.2232C28.6529 54.5927 25.9093 56.9622 23.6333 56.5569C21.7314 56.2139 20.8584 54.5927 21.5444 52.8155C21.9185 51.8178 22.5109 50.976 23.3215 50.2901C25.0675 48.8248 27.7488 49.386 28.4971 51.319C28.6218 51.6308 28.6529 51.9114 28.6529 52.2232ZM23.3215 52.0985C22.885 52.0673 22.6356 52.1608 22.5732 52.5038C22.4797 52.8779 22.6979 53.1585 23.0409 53.1897C24.1321 53.2832 24.101 53.9068 23.8515 54.6862C23.7268 55.1227 23.7892 55.4969 24.288 55.5904C24.7245 55.6527 24.8804 55.3098 24.9428 54.9045C25.0986 53.7821 25.1298 53.7821 26.1587 54.0627C26.564 54.1562 26.907 54.1562 27.0317 53.7197C27.1564 53.2832 26.8446 53.0961 26.4705 52.9714C25.4416 52.6285 25.4728 52.6285 25.8157 51.6308C25.8781 51.4437 25.9716 51.2255 26.0028 51.0384C26.034 50.7578 25.9093 50.5395 25.6287 50.446C25.3792 50.3837 25.161 50.446 25.0363 50.6643C24.9428 50.8201 24.8492 50.976 24.7869 51.1631C24.5063 51.849 24.4127 52.7844 23.3215 52.0985Z" fill="#F7CADE"/>
<path id="Vector_45" d="M91.4452 21.0141C91.0399 20.9829 90.541 21.0141 90.541 20.4217C90.541 19.954 90.9152 19.8605 91.3205 19.8917C91.7881 19.8917 92.1935 20.0164 92.1935 20.5464C92.1623 20.9829 91.8193 21.0453 91.4452 21.0141Z" fill="#F7CADE"/>
<path id="Vector_46" d="M91.8818 29.8997C91.5077 29.8997 91.0712 29.8686 91.04 29.4009C91.04 28.9332 91.4454 28.7773 91.8818 28.8085C92.2872 28.8397 92.7548 28.8709 92.7237 29.4009C92.6925 29.8686 92.256 29.8997 91.8818 29.8997Z" fill="#F7CADE"/>
<path id="Vector_47" d="M23.3216 52.0986C24.3817 52.8157 24.4752 51.8492 24.7246 51.1321C24.787 50.9762 24.8493 50.7892 24.974 50.6333C25.1299 50.415 25.317 50.3215 25.5664 50.415C25.847 50.5086 25.9717 50.7268 25.9406 51.0074C25.9094 51.1945 25.847 51.4127 25.7535 51.5998C25.4105 52.5975 25.4105 52.5975 26.4082 52.9404C26.7824 53.0652 27.0942 53.2522 26.9694 53.6887C26.8447 54.1252 26.5018 54.1564 26.0965 54.0317C25.0676 53.7511 25.0364 53.7823 24.8805 54.8735C24.8182 55.2788 24.6623 55.6218 24.2258 55.5594C23.7269 55.497 23.6646 55.0917 23.7893 54.6552C24.0387 53.8758 24.0699 53.2522 22.9787 53.1587C22.6357 53.1275 22.4174 52.8469 22.511 52.4728C22.6669 52.161 22.9163 52.0363 23.3216 52.0986Z" fill="#201F24"/>
</g>
</g>
</g>
<defs>
<clipPath id="clip0_1_2497">
<rect width="160.317" height="176" fill="white"/>
</clipPath>
</defs>
</svg>
