<svg width="176" height="142" viewBox="0 0 176 142" fill="none" xmlns="http://www.w3.org/2000/svg">
<g id="Frame" clip-path="url(#clip0_1_2554)">
<g id="hZS7PV.tif_1_">
<g id="Group">
<path id="Vector" d="M160.086 85.7246C160.562 85.8733 161.098 85.7841 161.574 86.022C161.276 86.7656 161.752 86.9441 162.317 87.0333C164.726 87.4795 167.076 88.1636 169.367 88.9965C171.687 89.8293 173.471 91.1976 174.275 93.6664C174.78 95.2132 174.959 96.7599 174.84 98.3364C174.661 100.954 173.918 103.482 173.323 106.04C171.954 112.019 170.824 118.027 169.158 123.947C168.177 127.516 167.195 131.085 165.5 134.417C164.578 136.231 163.626 138.016 162.079 139.414C161.603 139.83 161.098 140.187 160.443 140.187C159.878 140.187 159.7 140.514 159.729 140.99C154.435 142.329 149.051 141.883 143.697 141.912C136.796 141.942 129.895 141.377 123.054 140.514C118.741 139.979 117.016 138.254 115.767 134C114.904 131.145 114.16 128.23 113.417 125.345C112.614 122.221 111.929 119.098 111.305 115.945C110.68 112.792 110.115 109.639 109.639 106.457C109.401 104.88 109.223 103.333 108.985 101.757C109.104 101.37 109.133 101.013 108.866 100.656C108.896 100.359 108.896 100.032 108.747 99.7641C108.777 99.5856 108.777 99.4072 108.687 99.2584C108.777 99.0205 108.747 98.7825 108.598 98.5743C108.628 98.0984 108.658 97.6522 108.509 97.206C108.598 96.7004 108.479 96.2245 108.36 95.7486C108.539 94.7372 108.271 93.7557 108.092 92.7443C108.033 91.0489 108.063 89.3832 109.401 88.0744C110.264 87.5093 111.156 86.9143 112.019 86.3492C112.316 86.4384 112.614 86.2897 112.881 86.1707C114.22 85.5758 115.677 85.3081 117.105 85.0404C120.199 84.4158 123.322 83.8209 126.475 83.6722C126.891 83.6424 127.01 83.464 127.04 83.0773C127.218 80.1028 127.605 77.1878 128.349 74.3026C129.449 70.049 131.383 66.2715 134.476 63.1185C135.785 61.78 137.302 60.7389 138.938 59.8466C139.473 61.4231 139.949 63.0293 139.979 64.7545C137.778 65.6766 136.261 67.3125 135.13 69.3649C134.119 71.2091 133.554 73.1722 133.108 75.2246C132.543 77.7232 132.275 80.2515 131.977 82.7798C131.918 83.1962 132.037 83.4045 132.543 83.4045C134.892 83.3747 137.242 83.3747 139.592 83.5234C141.169 83.6127 142.745 83.7317 144.322 83.7912C145.541 83.8506 146.761 84.1183 148.01 84.0589C148.337 84.1183 148.694 84.2076 149.021 84.2373C150.062 84.2968 151.074 84.7727 152.144 84.4753C152.412 84.862 152.769 84.8025 153.156 84.7132C153.602 84.8025 154.078 84.862 154.524 84.9512C154.851 85.0107 155.03 84.8917 155 84.505C154.821 82.1254 154.673 79.7459 154.256 77.4258C154.256 77.277 154.286 77.1283 154.227 76.9796C153.989 76.1765 154.167 75.2246 153.542 74.5108C153.453 73.0235 152.918 71.6255 152.293 70.287C151.817 69.2459 151.252 68.2644 150.449 67.4315C150.152 66.9556 149.765 66.6284 149.319 66.2715C147.475 64.814 145.363 64.1298 143.043 64.0703C142.953 63.8919 142.834 63.7134 142.834 63.5349C142.775 62.6128 142.507 61.7502 142.358 60.8579C142.239 60.144 141.764 59.5491 141.942 58.7758C142.448 58.627 142.953 58.5081 143.459 58.4486C146.225 58.1809 148.873 58.4783 151.431 59.6681C151.906 59.9953 152.382 60.3522 152.888 60.6497C153.84 61.2446 154.494 62.1667 155.327 62.8805C155.416 63.4457 155.714 63.8919 156.219 64.2191C156.338 65.0519 156.904 65.736 157.171 66.5392C158.778 71.0604 159.283 75.7601 159.372 80.5192C159.402 81.947 159.343 83.3747 159.343 84.8025C158.867 84.743 158.361 84.6537 157.885 84.624C157.528 84.5943 157.231 84.743 157.201 85.1297C157.171 85.4866 157.439 85.6651 157.736 85.7246C158.183 85.8138 158.688 85.784 159.105 85.9328C159.521 86.0815 159.819 86.022 160.086 85.7246ZM140.901 128.081C142.745 128.23 144.47 127.843 146.136 127.159C147.593 126.564 148.248 125.702 148.04 124.542C147.921 123.947 147.772 123.352 147.475 122.787C146.106 120.169 144.946 117.492 144.143 114.637C143.816 113.506 143.965 113.149 144.916 112.435C146.642 111.127 148.218 109.699 149.319 107.765C150.717 105.386 150.419 102.501 148.486 100.537C146.731 98.7528 144.56 97.8307 142.12 97.444C139.443 96.9978 136.826 97.2358 134.446 98.6338C131.442 100.389 129.925 103.958 130.609 107.438C131.055 109.669 132.156 111.335 134.417 112.108C135.339 112.406 136.261 112.673 137.123 113.12C137.659 113.387 137.867 113.774 137.807 114.369C137.748 115.142 137.391 115.856 137.183 116.57C136.439 119.158 135.398 121.656 134.298 124.125C133.494 125.94 134.06 127.308 135.725 127.546C137.48 127.813 139.176 128.23 140.901 128.081ZM123.768 139.265C125.047 139.354 126.147 138.819 127.159 138.135C127.813 137.689 127.724 137.272 127.04 136.975C125.761 136.41 124.393 136.142 123.054 135.785C121.269 135.309 120.109 134.238 119.366 132.543C118.622 130.818 118.265 129.003 117.64 127.278C117.373 126.564 117.165 125.821 116.629 125.226C116.421 124.988 116.153 124.839 115.826 124.928C115.469 125.017 115.529 125.345 115.529 125.612C115.529 125.999 115.588 126.415 115.648 126.802C116.123 129.509 117.075 132.097 117.7 134.774C117.968 135.934 118.533 137.034 119.425 137.927C120.645 139.116 122.221 139.176 123.768 139.265ZM164.34 124.452C164.37 124.214 164.28 123.947 163.923 123.857C163.566 123.768 163.358 123.976 163.269 124.304C163.18 124.631 163.091 124.958 163.001 125.315C162.406 128.26 161.752 131.204 160.651 134.03C160.057 135.577 159.491 137.153 157.885 138.016C157.647 138.135 157.528 138.403 157.677 138.641C157.826 138.879 158.064 139.057 158.361 138.968C158.659 138.879 158.897 138.76 159.164 138.581C159.848 138.046 160.384 137.362 160.77 136.588C162.347 133.554 163.091 130.253 163.864 126.951C164.042 126.148 164.191 125.345 164.34 124.452ZM169.248 94.8562C169.248 93.9044 169.248 92.9228 169.248 91.971C169.248 91.5843 169.039 91.3463 168.653 91.3463C168.296 91.3463 168.147 91.6438 168.117 91.9412C168.088 92.0602 168.117 92.1792 168.117 92.2982C168.058 96.3137 167.879 100.3 167.314 104.285C167.255 104.672 167.285 105.088 167.76 105.148C168.207 105.207 168.326 104.821 168.355 104.464C168.891 101.251 169.248 98.0687 169.248 94.8562ZM167.909 107.617C167.939 107.29 167.939 106.933 167.463 106.903C167.076 106.873 166.868 107.052 166.779 107.438C166.6 108.271 166.452 109.074 166.273 109.907C166.035 111.037 165.827 112.168 165.619 113.328C165.559 113.714 165.649 114.042 166.095 114.101C166.511 114.161 166.66 113.833 166.719 113.506C166.957 112.316 167.225 111.156 167.433 109.967C167.582 109.163 167.909 108.42 167.909 107.617ZM164.28 119.366C164.251 119.663 164.251 120.05 164.726 120.11C165.143 120.169 165.262 119.842 165.351 119.515C165.47 119.039 165.589 118.563 165.678 118.087C165.738 117.73 165.738 117.373 165.262 117.284C164.845 117.195 164.697 117.492 164.608 117.819C164.429 118.295 164.28 118.801 164.28 119.366Z" fill="#EC255A"/>
<path id="Vector_2" d="M102.917 103.244C102.887 103.334 102.857 103.423 102.857 103.542C102.798 103.958 102.946 104.732 102.768 104.702C102.232 104.702 101.638 104.821 101.132 104.583C101.013 104.523 100.894 104.464 100.805 104.434C100.567 104.375 100.329 104.375 100.24 104.613C100.121 104.88 100.21 105.088 100.448 105.267C100.953 105.654 101.757 105.743 102.857 105.505C102.649 106.635 102.322 107.676 101.34 108.36C100.537 108.926 99.8231 108.896 99.2282 108.241C98.6631 107.587 98.6631 106.784 99.258 106.1C99.7934 105.505 99.9719 104.88 99.6149 104.137C99.8826 103.78 99.8529 103.453 99.5852 103.096C99.6447 101.668 99.0795 100.389 98.5739 99.1098C98.5441 98.6933 98.3062 98.3662 98.1872 98.0092C98.0979 97.7118 97.86 97.6523 97.5923 97.682C97.1758 97.7415 96.7594 97.7713 96.343 97.801C96.0455 97.8307 95.7778 97.92 95.7481 98.2472C95.6886 98.7528 95.4209 99.199 95.4804 99.7047C95.4506 99.7642 95.4506 99.7939 95.4209 99.8534C95.3912 99.8831 95.3912 99.9426 95.3614 99.9724C95.1829 100.627 94.9747 101.281 94.7963 101.936C94.6773 102.322 94.6475 102.858 94.3798 103.096C94.0229 103.423 93.6957 102.798 93.2793 102.768C93.2198 102.768 93.1306 102.709 93.0711 102.709C92.5654 102.679 91.8515 102.828 91.5838 102.53C91.2269 102.173 91.8813 101.549 91.7325 101.013C92.1192 100.24 92.149 99.3775 92.4464 98.6041C92.5059 98.4256 92.5654 98.1877 92.2382 98.1877C92.1192 97.8605 92.2977 97.3846 91.8515 97.2358C90.8997 96.8789 90.8699 96.0461 90.7212 95.243C91.3161 95.243 91.911 95.243 92.4762 95.2132C92.9223 95.2132 93.19 94.9752 93.2793 94.4993C93.3983 93.6367 93.5172 92.8039 93.6362 91.9413C93.7254 91.3761 93.9932 90.811 93.7255 90.2161C93.9337 89.6807 93.4577 89.4725 93.2198 89.1155C93.1603 88.7586 92.9223 88.4909 92.7141 88.2232C92.4167 87.8067 92.3572 87.5985 92.9818 87.4796C93.6362 87.3606 94.2014 87.4796 94.7665 87.777C95.064 87.9555 95.3317 87.9257 95.5399 87.658C95.6886 87.4498 95.6589 87.2713 95.4804 87.0631C94.8558 86.3195 92.9223 86.1708 92.2382 86.8847C91.9408 87.1821 91.911 86.9739 91.7623 86.7954C91.3756 86.2898 90.9889 85.7841 90.632 85.2487C89.5612 83.4938 88.2524 81.8578 87.0329 80.1921C85.9918 78.7941 84.9507 77.3961 83.9097 75.9981C84.683 75.9981 85.4861 75.9981 86.2595 75.9981C86.6759 75.9981 87.0626 75.9386 87.1518 75.4329C87.2708 75.5221 87.4196 75.5816 87.5088 75.6709C89.234 77.8422 90.8402 80.0731 92.4464 82.3337C93.0116 83.1368 93.547 83.9102 94.1121 84.7133C94.2311 80.0136 93.9634 75.3734 93.3685 70.7927C94.0824 70.9712 94.4988 70.7332 94.7963 70.0194C94.945 69.6029 95.2722 69.2757 95.6291 68.9783C95.8968 68.7701 96.0158 68.4726 95.7778 68.2049C95.5101 67.9075 95.2127 67.9967 94.945 68.2347C94.3501 68.7701 93.9039 69.4245 93.547 70.1383C93.309 69.8706 93.309 69.5137 93.2495 69.1568C93.0711 67.61 92.8926 66.0633 92.6844 64.5166C92.5059 63.297 92.4464 62.0477 92.0895 60.8877C92.0895 59.7277 91.9705 58.5974 91.6136 57.4968C91.6731 56.8722 91.2864 56.6639 90.7807 56.545C90.8105 56.307 90.7212 56.1285 90.5725 55.9203C89.6802 54.8198 88.8176 53.6597 87.836 52.6186C87.5683 51.9643 86.9734 51.5478 86.557 51.0124C86.2595 50.596 85.5754 50.2688 86.4677 49.7929C86.5867 49.7334 86.6164 49.436 86.6759 49.2575C86.9734 48.4246 86.9734 47.6215 86.6164 46.8184C86.7652 46.8482 86.9436 46.9076 87.0924 46.9374C87.9847 48.4246 89.3827 49.4657 90.4535 51.0124C90.5725 50.1796 90.3643 49.5847 90.2156 49.0195C89.9776 48.1272 89.9776 47.1456 89.3827 46.3722C89.5314 45.9856 89.4422 45.6584 89.1448 45.3609C88.9663 44.4388 88.7283 43.5465 88.2524 42.7136C88.3119 42.2972 88.0739 42.0295 87.836 41.7321C87.6278 40.7802 87.3006 39.8879 86.7354 39.0848C86.7354 38.936 86.7354 38.8171 86.7652 38.6683C87.3303 38.7576 87.5683 38.5196 87.6278 37.9842C87.6873 37.2406 88.3119 36.9431 88.8176 36.6159C89.1448 36.4077 89.1447 37.1216 89.5017 37.1216C89.3827 37.538 89.5612 37.8355 89.8884 38.0437C90.0371 39.0848 90.5428 39.9771 90.9592 40.8992C90.9592 41.2859 91.0782 41.6131 91.4351 41.851C91.4946 42.8029 91.8515 43.6952 92.2085 44.5578C92.2085 44.9445 92.268 45.3014 92.5654 45.5989C92.6546 46.6994 93.0711 47.7405 93.2793 48.8113C93.428 49.5847 93.4577 50.358 93.8147 51.1017C93.8444 51.2504 93.8742 51.3991 93.9039 51.5181C93.9337 51.5776 93.9337 51.6371 93.9634 51.6966C94.1716 53.0946 94.3798 54.4926 94.588 55.8906C94.6178 56.1583 94.826 56.307 95.0342 56.4557C95.0342 56.9911 95.3614 57.3183 95.8373 57.5563C96.5215 58.9245 97.5328 60.0846 98.4251 61.3041C98.5441 61.5123 98.6631 61.7206 98.8118 61.9288C100.567 64.5166 102.381 67.0746 103.987 69.7517C103.66 69.9004 103.541 70.1681 103.422 70.4953C103.155 71.2686 102.679 71.8635 101.965 72.3097C100.002 69.2162 98.0385 66.1525 95.8373 63.1483C95.6291 63.535 95.6886 63.7729 95.7183 64.0109C95.8671 65.3792 96.0455 66.7474 96.224 68.1157C96.7297 72.1907 97.1164 76.2658 97.2353 80.3706C97.2948 82.1255 97.3246 83.8804 97.3841 85.6354C97.3543 85.6949 97.3543 85.7841 97.3246 85.8436C97.2948 85.8436 97.2651 85.8733 97.2651 85.8733C97.2651 85.9031 97.2948 85.9626 97.2948 85.9923C97.2056 87.0036 97.0866 88.015 97.2353 89.0263C96.8189 89.5617 97.3246 89.7699 97.5923 90.0376C97.8302 90.7217 98.1872 91.3166 98.6036 91.8818C98.6036 92.0603 98.7226 92.1197 98.8416 92.209C98.8118 92.3874 98.9308 92.5064 99.0498 92.6254C99.02 92.8039 99.139 92.8931 99.2877 92.9526C99.258 93.1906 99.377 93.3393 99.5257 93.5177C99.4959 93.6962 99.6149 93.7855 99.7339 93.8449C99.7042 93.9639 99.7636 94.0532 99.8529 94.1126C99.9719 94.3209 100.15 94.2316 100.299 94.1721C100.537 94.2316 100.775 94.2019 100.983 94.0532C101.102 94.1424 101.221 94.1424 101.34 94.1126C102.47 93.9044 103.601 93.6665 104.761 93.4583C104.939 93.4285 105.326 93.2203 105.237 93.607C104.999 94.8265 105.623 95.5107 106.545 96.0758C105.147 96.4327 103.72 96.7302 102.292 96.9681C101.191 97.1466 101.191 97.1169 101.608 98.1579C101.816 98.8718 102.024 99.6154 102.232 100.329C102.411 100.924 102.381 101.608 102.768 102.144C102.619 102.59 102.768 102.917 102.917 103.244ZM95.3019 97.6523C95.5994 97.6523 95.8671 97.5928 95.9563 97.2953C96.0158 97.0574 95.8968 96.7897 95.6886 96.7599C94.9152 96.6112 94.5881 96.1353 94.4691 95.3917C94.4393 95.124 94.2014 94.9752 93.9039 95.0347C93.6362 95.0942 93.4875 95.243 93.428 95.5404C93.3388 96.4327 94.3798 97.6225 95.3019 97.6523Z" fill="#982176"/>
<path id="Vector_3" d="M89.1154 107.438C86.6466 108.212 84.2372 109.163 81.8279 110.085C77.3364 111.84 72.9342 113.774 68.6212 115.915C63.3861 118.474 58.27 121.299 53.3324 124.393C48.5137 127.397 43.8438 130.639 39.3821 134.179C39.2631 134.268 39.1441 134.357 39.0251 134.446C38.46 134.863 38.1625 134.774 37.9543 134.09C37.2702 131.859 36.6455 129.658 35.9912 127.427C35.8722 127.01 35.8424 126.386 35.545 126.207C35.2178 125.999 34.8311 126.534 34.4742 126.713C33.2249 127.337 31.9756 128.022 30.7263 128.676C29.9827 129.063 29.715 128.884 29.6258 128.081C29.4473 126.118 29.1796 124.155 28.7334 122.221C28.6144 121.745 28.436 121.686 28.0196 121.954C27.1272 122.549 26.2051 123.054 25.3723 123.738C24.7774 124.214 24.5097 124.125 24.242 123.381C23.5578 121.537 22.844 119.693 22.2193 117.819C22.0111 117.224 21.8029 117.075 21.208 117.432C20.0777 118.087 18.8582 118.563 17.6089 118.979C16.3596 119.366 15.9134 119.128 15.5267 117.879C14.2775 113.774 13.1174 109.639 12.1061 105.445C10.9163 100.537 9.81573 95.6295 8.98288 90.6621C8.74492 89.2046 8.38798 87.7471 8.23926 86.2896C8.77466 86.1707 9.07211 86.5871 9.42905 86.8845C9.69675 88.5205 9.93471 90.1565 10.2619 91.7924C11.184 96.4921 12.1656 101.192 13.3256 105.832C14.3072 109.699 15.378 113.566 16.5083 117.403C16.6868 118.027 16.9842 118.087 17.5196 117.908C18.7392 117.492 19.8695 116.867 21.0593 116.362C21.5054 116.153 21.5947 115.945 21.4162 115.469C20.5536 112.822 19.691 110.175 18.9176 107.468C17.9658 104.196 17.0735 100.894 16.2406 97.5927C15.5267 94.7372 14.9021 91.8222 14.218 88.9369C14.6641 88.7584 15.0211 88.9964 15.378 89.2046C16.4488 94.2612 17.7278 99.2584 19.0961 104.226C20.4346 109.104 21.9516 113.923 23.6173 118.711C24.0635 119.99 24.5692 121.27 25.0451 122.578C25.7589 122.102 26.4133 121.686 27.0677 121.27C28.2873 120.526 28.2873 120.526 27.7518 119.128C26.3241 115.38 24.5692 111.721 23.7363 107.765C23.6471 107.349 23.6173 106.992 24.0932 106.873C24.5394 106.754 24.6881 107.111 24.7476 107.468C25.283 109.639 25.9672 111.781 26.8 113.863C27.3949 115.291 27.9898 116.719 28.555 118.176C29.6258 120.942 30.3396 123.768 30.5776 126.743C30.6371 127.337 30.7858 127.427 31.2915 127.129C31.8269 126.802 32.4218 126.505 32.9869 126.237C33.5818 125.939 34.147 125.523 34.8014 125.374C35.3665 125.255 35.307 125.107 35.188 124.66C34.5634 122.608 33.9685 120.526 33.3736 118.473C31.4402 111.9 29.477 105.326 27.5734 98.723C26.919 96.4029 26.1456 94.0828 25.7292 91.7032C26.1456 91.5842 26.5026 91.7032 26.8 91.9709C26.8298 92.0304 26.8298 92.1494 26.9487 92.0899H26.919C27.3652 94.3505 28.0196 96.5516 28.6739 98.7527C30.5776 105.267 32.511 111.781 34.4147 118.295C35.7829 122.995 37.181 127.665 38.5492 132.364C38.8169 133.227 38.8169 133.227 39.5605 132.662C47.1455 126.743 55.236 121.626 63.7133 117.135C68.8889 114.398 74.2132 111.959 79.6268 109.758C82.9582 108.42 86.3194 107.111 89.7698 106.04C89.978 106.754 89.5318 107.081 89.1154 107.438Z" fill="#102C57"/>
<path id="Vector_4" d="M7.55506 81.9171C6.93041 78.1395 6.51399 74.3321 6.09756 70.5248C5.56215 65.7359 5.11598 60.9172 4.64006 56.1283C4.16415 51.3989 3.65849 46.6992 3.18257 41.9698C2.97436 40.1554 2.67691 38.3707 2.49844 36.586C2.29023 34.1172 3.18257 33.4628 5.5919 34.1172C9.33974 35.188 13.0578 36.348 16.8652 37.2404C20.9105 38.1922 24.9855 38.9953 29.0605 39.6794C32.0053 40.1554 35.0095 40.4231 37.984 40.7205C38.4599 40.78 38.9358 40.7503 39.382 40.7503C39.62 40.8097 39.8282 40.9287 40.0661 40.7503C40.3338 40.9287 40.6313 40.899 40.9287 40.9287C43.7247 41.018 46.491 41.1369 49.287 41.0477C49.5547 41.1072 49.8522 41.1369 50.1199 41.1964C50.3876 41.4939 50.8635 41.6129 51.0122 42.059C50.685 42.0888 50.3578 42.1185 50.0604 42.1185C43.0704 42.297 36.1101 41.8508 29.2093 40.8097C24.5988 40.0959 20.0776 39.1738 15.5564 38.0732C12.0763 37.2106 8.65561 36.1398 5.20522 35.1582C3.65849 34.7121 3.39078 34.9203 3.56925 36.5265C3.98568 40.2446 4.4616 43.9924 4.84828 47.7105C5.38368 52.6184 5.82986 57.5561 6.33552 62.464C6.66271 65.6467 6.93041 68.7996 7.3171 71.9823C7.73352 75.5517 8.23919 79.0913 8.68536 82.6607C8.03097 82.8094 7.8525 82.274 7.55506 81.9171Z" fill="#102C57"/>
<path id="Vector_5" d="M108.301 20.1075C111.008 17.6981 113.595 15.1996 115.975 12.4631C118.741 9.25062 121.24 5.85971 123.709 2.40932C124.155 1.75493 124.601 1.10054 125.077 0.475904C125.523 -0.118992 125.791 -0.148737 126.237 0.416414C128.438 3.30166 130.074 6.45461 131.145 9.90501C131.561 11.2435 131.531 11.2733 132.513 10.2917C133.911 8.89368 135.279 7.46593 136.648 6.06793C137.361 5.35405 137.599 5.41354 137.956 6.33563C139.146 9.3696 139.949 12.4631 140.395 15.8242C140.931 15.378 141.377 15.0211 141.793 14.6344C143.043 13.5041 144.262 12.3441 145.393 11.0948C145.601 10.8568 145.809 10.5594 146.196 10.6784C146.582 10.7676 146.582 11.1245 146.672 11.4517C146.969 12.7903 147.356 14.099 147.504 15.4375C147.534 15.854 147.594 16.3299 147.029 16.3596C146.493 16.3894 146.404 15.9432 146.404 15.5268C146.374 14.4857 145.958 13.5339 145.749 12.3738C139.265 18.8582 131.799 23.7958 124.066 28.3468C123.619 28.2873 123.322 28.0196 123.173 27.6032C125.017 26.5918 126.802 25.4913 128.587 24.361C132.186 22.0706 135.696 19.691 138.997 17.014C139.295 16.7761 139.503 16.5976 139.444 16.1514C139.027 13.3257 138.403 10.5296 137.421 7.82287C137.242 7.31721 137.064 7.19823 136.618 7.67415C134.803 9.54807 132.929 11.422 131.085 13.2662C130.818 13.5339 130.49 13.9503 130.104 13.5636C129.687 13.2067 130.014 12.8497 130.312 12.5523C130.58 12.3143 130.728 12.0764 130.609 11.6599C129.568 8.20955 128.111 4.93762 126.088 1.96314C125.761 1.45748 125.583 1.60621 125.315 1.99289C124.809 2.73651 124.244 3.48013 123.738 4.22375C119.574 10.0835 115.083 15.6755 109.61 20.3752C109.074 20.5239 108.628 20.5536 108.301 20.1075Z" fill="#102C57"/>
<path id="Vector_6" d="M123.114 27.6031C123.262 28.0195 123.56 28.2574 124.006 28.3467C124.928 29.358 125.88 30.3098 126.98 31.1129C126.98 31.5889 127.337 31.7078 127.694 31.8566C127.724 31.9458 127.694 32.0648 127.754 32.154C128.854 33.4628 129.955 34.7716 131.085 36.1101C132.186 37.9245 133.465 39.62 134.476 41.4641C135.339 43.0704 136.29 44.6171 136.975 46.3125C136.975 46.372 136.975 46.5208 136.975 46.5208C136.023 46.7587 135.606 47.5023 135.19 48.246C134.952 48.6624 134.773 48.3649 134.565 48.2162C134.536 48.1567 134.506 48.0972 134.476 48.0675C134.506 47.889 134.417 47.77 134.268 47.7105C134.238 47.6213 134.238 47.5618 134.208 47.4726C134.179 47.4131 134.149 47.3834 134.119 47.3239C134.06 47.2346 134.03 47.1454 133.97 47.0562C133.97 46.8479 133.881 46.6397 133.673 46.5208C133.643 46.4315 133.613 46.372 133.584 46.2828C133.584 45.9556 133.435 45.7474 133.227 45.5392C133.256 45.4202 133.197 45.331 133.078 45.2715C132.959 44.7658 132.691 44.3791 132.334 43.9924C131.234 41.6723 129.836 39.5307 128.23 37.5378C128.081 37.0322 127.694 36.6455 127.367 36.2885C126.504 35.3367 125.85 34.2064 124.749 33.4628C124.72 32.9571 124.393 32.8084 123.976 32.7489C123.203 31.6186 122.221 30.756 121.031 30.1016C120.942 29.6257 120.615 29.4472 120.169 29.4175C118.682 27.9303 116.927 26.8594 114.963 26.0861C114.934 26.0563 114.874 26.0861 114.815 26.0861C114.696 25.5507 114.279 25.5209 113.833 25.5507C113.03 24.8665 111.989 24.6286 111.037 24.2419C110.859 24.1824 110.561 24.1527 110.591 23.9147C110.769 23.2306 110.591 22.487 111.007 21.8326C111.275 21.4161 111.483 21.2377 111.989 21.4459C113.387 22.0408 114.844 22.5464 116.183 23.2901C116.421 23.409 116.659 23.5578 116.956 23.4983C117.135 23.9742 117.521 24.0932 117.997 24.0337C118.057 24.4204 118.414 24.5096 118.652 24.6583C120.228 25.4614 121.597 26.6512 123.114 27.6031Z" fill="#982176"/>
<path id="Vector_7" d="M127.724 31.8568C127.367 31.7378 127.01 31.5891 127.01 31.1132C129.925 29.4772 132.84 27.9007 135.696 26.1755C140.871 23.0523 145.809 19.6019 150.657 16.0326C151.907 15.1105 151.936 15.0807 152.621 16.568C154.524 20.7917 155.863 25.194 156.725 29.7449C158.391 38.4899 158.094 47.2646 157.261 56.0691C156.993 58.8056 156.547 61.5124 156.19 64.2191C155.684 63.9217 155.387 63.4755 155.298 62.8806C155.357 62.5237 155.446 62.1667 155.476 61.7801C156.011 57.6455 156.428 53.4813 156.666 49.317C157.112 41.8213 156.725 34.3851 155.03 27.0679C154.256 23.7067 153.186 20.4645 151.728 17.3413C151.46 16.7464 151.252 16.8357 150.836 17.1629C149.884 17.8767 148.932 18.5609 147.98 19.2747C143.757 22.3682 139.384 25.2534 134.863 27.9007C132.543 29.269 130.193 30.667 127.724 31.8568Z" fill="#102C57"/>
<path id="Vector_8" d="M40.0956 40.7503C39.8576 40.9288 39.6196 40.8098 39.4114 40.7503C38.2514 39.8877 38.1324 39.5605 38.5488 38.3707C38.7273 38.2815 38.8463 38.1625 38.876 37.9543C40.1848 37.2999 41.5828 36.8835 42.9808 36.5265C43.2485 36.586 43.5162 36.5563 43.7839 36.467C43.9326 36.586 44.1706 36.4373 44.3491 36.6753C43.7542 37.1809 43.308 37.7758 43.5162 38.6384C43.6054 38.9656 43.6947 39.2928 44.1409 39.2333C44.5275 39.1738 44.5573 38.8466 44.4978 38.5492C44.4383 38.0733 44.6168 37.7461 45.0629 37.5676C45.1819 37.5081 45.3901 37.3891 45.3901 37.2999C45.3604 36.467 45.9553 36.6753 46.4312 36.6753C46.5204 36.6753 46.6394 36.705 46.7287 36.705C48.0672 37.1512 49.4057 37.5973 50.7442 38.0435C51.2796 38.4599 51.8745 38.8169 52.5289 39.0251C52.5884 39.0548 52.6479 39.0846 52.7371 39.1143C53.3023 39.62 53.9269 40.0662 54.611 40.3934C54.611 40.4528 54.6408 40.4528 54.7003 40.4528C54.8192 40.6313 54.968 40.78 55.2059 40.6908C55.2654 40.7205 55.2952 40.7205 55.3249 40.7503C55.4439 41.3749 55.9793 41.5534 56.4552 41.7616C56.9609 42.3268 57.4368 42.9217 58.1804 43.1596C58.2696 43.695 58.7456 43.8735 59.162 44.0817C59.6974 44.8551 60.2923 45.5095 61.1251 45.9259C61.1549 46.491 61.5713 46.6993 62.0472 46.848C62.0175 47.3536 62.4637 47.5321 62.7611 47.7998C63.4452 48.4542 63.8914 49.3465 64.8432 49.7035C64.8432 50.2686 65.2597 50.5066 65.7356 50.6851C65.8546 51.28 66.5982 51.4584 66.7172 52.1426C66.39 52.1128 66.1223 52.1128 65.8546 52.0831C65.0514 51.9641 64.2186 51.8748 63.4452 52.1128C63.0288 52.2318 62.7016 52.2318 62.4042 51.9343C62.3744 51.7261 62.2554 51.6071 62.0472 51.5477C61.9877 51.4882 61.958 51.4584 61.8985 51.3989C61.8093 51.1015 61.5416 51.1312 61.3036 51.0717C61.3631 50.4768 60.8872 50.3281 60.5005 50.1199C60.0543 49.1978 59.1917 48.6624 58.5373 47.9485C58.2399 47.6213 57.9424 47.2049 57.4368 47.1454C57.4368 46.491 56.9014 46.3423 56.4255 46.1638C55.9793 45.3012 55.2059 44.7658 54.3731 44.2899C54.0756 43.6355 53.5402 43.3678 52.8561 43.3083C52.5289 42.4755 51.7853 42.2375 51.0417 41.9996C50.8929 41.5534 50.4468 41.4344 50.1493 41.137C50.4765 41.137 50.8632 41.2262 51.0417 40.8098C51.1606 40.5421 51.3986 40.5123 51.6663 40.5123C52.0232 40.5123 52.2314 40.3339 52.2017 39.9769C52.2017 39.62 51.934 39.4713 51.6068 39.4415C50.655 39.2928 49.8816 40.1851 50.1493 41.137C49.8816 41.0775 49.5842 41.0477 49.3165 40.9883C49.3462 40.6908 49.0785 40.6908 48.9298 40.6313C45.985 39.382 43.0403 39.1441 40.0956 40.7503Z" fill="#982176"/>
<path id="Vector_9" d="M159.789 141.02C159.759 140.515 159.937 140.217 160.503 140.217C161.157 140.217 161.663 139.86 162.139 139.444C163.685 138.075 164.637 136.261 165.559 134.447C167.255 131.115 168.236 127.546 169.218 123.976C170.854 118.057 172.014 112.049 173.382 106.07C173.977 103.512 174.721 101.013 174.899 98.3661C174.988 96.7599 174.81 95.2429 174.334 93.6962C173.531 91.2274 171.746 89.8591 169.426 89.0263C167.106 88.1934 164.786 87.5093 162.377 87.0631C161.811 86.9739 161.336 86.7656 161.633 86.0518C162.079 85.6651 162.525 86.022 162.971 86.1113C165.767 86.6169 168.445 87.3903 171.032 88.5206C173.888 89.7699 175.256 92.1197 175.821 95.0347C176.327 97.7117 175.94 100.329 175.316 102.887C174.185 107.409 173.263 111.989 172.222 116.54C171.27 120.734 170.229 124.928 168.891 129.063C167.939 131.948 166.898 134.804 165.262 137.391C164.28 138.938 163.239 140.455 161.425 141.169C160.83 141.318 160.265 141.556 159.789 141.02Z" fill="#102C57"/>
<path id="Vector_10" d="M7.55499 81.9171C7.85244 82.274 8.0309 82.8094 8.65555 82.6607C8.83401 83.0176 9.10172 83.2258 9.42891 83.4043C10.3807 83.91 11.3326 84.4454 12.3142 84.9213C12.6711 85.0998 12.9983 85.3377 13.4147 85.2782C13.7419 85.5757 14.1286 85.7244 14.5748 85.7244C14.8127 85.8136 15.0209 85.9921 15.2589 86.0218C15.8835 86.1111 16.1215 86.4085 16.1215 87.0629C16.1215 87.4793 16.2107 87.9255 16.3594 88.3717C16.7461 89.4425 16.7461 89.4425 15.6158 89.2343C15.5563 89.2343 15.4671 89.2343 15.4076 89.2343C15.0507 89.0261 14.6937 88.7881 14.2476 88.9666C14.0988 88.7881 13.9204 88.6691 13.7122 88.6096C12.3736 88.2527 11.1244 87.6875 9.90483 87.0034C9.7561 86.9142 9.60738 86.825 9.42891 86.8844C9.10172 86.587 8.80427 86.1706 8.23912 86.2895C7.79295 85.6352 7.04933 85.4269 6.45443 84.9808C4.25331 83.4043 2.20092 81.7088 0.951641 79.2698C-0.654578 76.0871 -0.208406 73.1126 1.99271 70.3463C2.23067 70.0489 2.46863 69.7812 2.73633 69.5135C3.39072 68.9186 4.0451 68.9186 4.66974 69.454C5.29438 69.9894 5.44311 70.7925 4.9077 71.4469C4.07485 72.488 3.27174 73.5588 3.00403 74.927C2.97429 75.046 2.9148 75.1352 2.76607 75.165C1.51679 75.4327 1.04088 76.444 0.564959 77.4553C0.416235 77.723 0.416235 77.9907 0.743428 78.1395C1.10037 78.3179 1.30858 78.1692 1.4573 77.842C1.69526 77.3661 1.90348 76.8604 2.3199 76.4738C2.85531 75.9384 2.94454 75.9383 3.12301 76.682C3.74765 79.0021 5.44311 80.4596 7.22779 81.8873C7.28728 81.9171 7.43601 81.8873 7.55499 81.9171Z" fill="#982176"/>
<path id="Vector_11" d="M71.8038 38.6385C72.369 37.4488 71.8038 36.4672 71.1494 35.3071C72.3392 35.6046 73.3208 36.021 74.3024 36.4672C74.8378 36.7349 75.3434 37.1811 75.9978 37.0918C76.0276 37.7462 76.5332 37.7759 77.0091 37.8652C77.842 38.7575 78.8533 39.4119 79.8646 40.096C79.9836 40.572 80.3406 40.7504 80.7867 40.8694C81.4114 41.7618 82.1847 42.4756 83.1366 43.011C83.1663 43.5464 83.553 43.6952 83.9694 43.8141C84.5643 44.7957 85.3674 45.5691 86.349 46.1937C86.2003 46.4614 86.4977 46.6399 86.5275 46.8481C85.7244 46.8184 85.5756 46.9671 85.7839 47.7107C85.9028 48.1569 85.8433 48.5733 85.6946 49.0195C85.4269 49.9118 85.4269 49.9118 84.7428 49.2277C84.2669 48.7518 83.9397 48.1569 83.315 47.8892C83.1663 47.443 82.8986 47.1456 82.4524 47.0266C81.7683 46.0748 80.9949 45.1824 79.8944 44.647C79.8944 44.0521 79.478 43.9034 79.0318 43.7844C78.4072 42.9515 77.6933 42.1782 76.6819 41.8212C76.5927 41.1966 76.1168 41.0776 75.5814 40.9884C74.7188 39.9771 73.6182 39.4119 72.369 39.1145C72.3095 38.7575 72.012 38.7278 71.8038 38.6385Z" fill="#982176"/>
<path id="Vector_12" d="M89.1151 107.438C89.5315 107.081 89.9479 106.754 89.7695 106.129C90.4536 105.594 90.5131 104.702 90.87 103.988C90.9592 103.809 90.9295 103.482 91.2567 103.542C91.7029 103.661 92.1788 103.452 92.5655 103.631C93.1306 103.839 93.9635 103.78 93.9635 104.702C93.666 105.059 93.3686 105.386 93.547 105.891C93.3686 106.129 93.2199 106.367 93.1009 106.635C92.2978 108.39 91.4054 110.115 90.0074 111.454C88.7581 112.673 87.2709 113.298 85.516 113.03C84.5344 112.881 83.9097 112.108 84.0585 111.245C84.1774 110.353 84.9508 109.877 85.9919 110.026C86.3191 110.085 86.6462 110.056 86.9437 109.907C87.955 109.342 88.7581 108.568 89.1151 107.438Z" fill="#982176"/>
<path id="Vector_13" d="M70.7629 38.4302C67.8182 37.2999 64.8734 37.1512 61.9287 38.4302C60.9471 38.8466 60.144 38.6384 59.6978 37.7461C59.3111 36.943 59.6978 36.0506 60.5902 35.6342C63.059 34.4742 65.6765 34.2659 68.3536 34.6229C68.5618 34.6526 68.7402 34.6824 68.9485 34.7121C69.4244 34.7716 69.9895 34.7419 69.9598 35.4855C69.9598 35.5747 70.1085 35.6937 70.1977 35.7532C70.9414 36.4968 71.1793 37.3892 71.0603 38.4005C70.9414 38.4005 70.8521 38.4302 70.7629 38.4302Z" fill="#982176"/>
<path id="Vector_14" d="M108.301 20.1076C108.628 20.5537 109.074 20.524 109.55 20.405C109.609 20.4943 109.639 20.6132 109.699 20.643C110.294 20.762 110.323 21.0297 110.026 21.5056C109.758 21.922 109.609 22.4277 109.699 22.9036C109.818 23.5877 109.55 23.7364 108.955 23.4985C108.747 23.4092 108.539 23.3795 108.33 23.32C107.676 23.1713 107.051 22.8144 106.337 23.0226C105.951 22.5764 105.445 22.6359 104.939 22.7549C102.917 22.3979 101.043 22.8143 99.3475 23.9744C99.1987 24.0636 99.0798 24.4503 98.8418 24.1231C98.4551 23.6175 98.0089 23.1118 98.4551 22.3979C98.6633 22.1005 98.7526 21.7435 98.3659 21.4758C98.0387 21.2676 98.2766 21.1486 98.4254 21.0594C98.8715 20.7917 99.3177 20.5835 99.7936 20.3455C99.9721 20.3455 100.121 20.3158 100.24 20.1968C101.727 19.8399 103.214 19.6019 104.761 19.7209C105.772 19.8101 106.813 19.9588 107.825 20.0778C107.973 20.1968 108.122 20.1076 108.301 20.1076Z" fill="#982176"/>
<path id="Vector_15" d="M104.91 22.7549C105.415 22.6359 105.921 22.5764 106.308 23.0226C105.118 24.0636 103.809 24.956 102.5 25.8483C97.771 29.1202 92.7144 31.8568 87.3901 34.1174C86.9737 34.0281 86.6465 33.8199 86.6465 33.3143C86.706 33.2548 86.7655 33.1953 86.825 33.106C89.0856 32.3327 91.1974 31.2024 93.3093 30.1018C95.0048 29.2095 96.73 28.3469 98.2767 27.2166C100.627 25.9673 102.798 24.4206 104.91 22.7549Z" fill="#102C57"/>
<path id="Vector_16" d="M86.6463 33.3141C86.6761 33.79 86.9735 33.9982 87.39 34.1172C87.5089 34.7121 88.0741 35.0095 88.3418 35.5152C88.4905 35.8126 88.6392 36.0506 88.1038 36.0803C87.6279 36.1101 87.3602 36.4968 87.033 36.7942C86.7058 37.1511 86.8843 37.9542 86.3489 37.9245C86.0514 37.8948 85.8135 37.1511 85.4863 36.7942C85.0104 36.2885 84.6832 35.5747 83.8503 35.5449C83.7314 34.9203 83.2257 34.831 82.7498 34.7716C82.6903 34.5336 82.4821 34.5039 82.2739 34.4741C81.56 34.3849 80.7271 34.5038 80.4892 33.5223C80.4892 33.4925 80.4594 33.4925 80.4297 33.4628C80.3404 33.3735 80.043 31.6781 80.1322 31.5889C80.1917 31.5294 80.281 31.4699 80.3702 31.4699C80.6676 31.4104 80.9651 31.3806 81.2328 31.3509C82.3333 31.2617 83.3744 31.6781 84.4155 31.9755H84.475C84.5345 32.0648 84.5642 32.1838 84.7129 32.154C84.8617 32.3027 85.0104 32.4515 85.2483 32.4217C85.6648 32.8679 86.0514 33.2546 86.6463 33.3141Z" fill="#982176"/>
<path id="Vector_17" d="M70.7627 38.4304C70.852 38.4304 70.9412 38.4006 71.0305 38.4006C71.2387 38.6088 71.5064 38.7278 71.8038 38.6386C72.012 38.7576 72.3095 38.7576 72.3095 39.1145C71.7146 39.2632 71.1197 39.412 70.5248 39.5607C67.3718 40.334 64.1891 40.81 61.0065 41.2561C59.4895 41.4643 57.9725 41.6131 56.4555 41.8213C55.9498 41.6131 55.4442 41.4346 55.3252 40.81C55.3847 40.7802 55.4442 40.7802 55.5037 40.7505C55.8011 40.7802 56.1283 40.81 56.396 40.6315C56.7529 40.691 57.1099 40.6315 57.4371 40.572L57.4966 40.6017L57.5561 40.572C57.6453 40.572 57.7643 40.5423 57.8535 40.5423C57.9725 40.6017 58.0617 40.6017 58.151 40.5125C58.7161 40.5125 59.2515 40.4828 59.7869 40.334C60.0844 40.3638 60.4116 40.3638 60.6793 40.2151C60.947 40.3043 61.1849 40.2448 61.4229 40.1258C61.5716 40.1853 61.7501 40.1853 61.8691 40.0663C62.0178 40.1258 62.1665 40.0961 62.3152 40.0069C62.4937 40.0663 62.6424 40.0069 62.7614 39.9176C62.9994 39.8879 63.2373 39.8879 63.505 39.8581C63.624 39.8879 63.743 39.8879 63.8025 39.7689C64.0702 39.7391 64.3081 39.6797 64.5758 39.6499C64.6353 39.7094 64.6948 39.6797 64.7246 39.6202C66.7472 39.293 68.7698 38.8468 70.7627 38.4304Z" fill="#102C57"/>
<path id="Vector_18" d="M78.407 32.3027C78.4665 32.3027 78.4962 32.273 78.5259 32.2432C78.7044 32.2432 78.7937 32.154 78.8531 32.0053C78.9126 32.0053 78.9424 32.0053 78.9721 31.9458C79.2398 31.9458 79.2993 32.035 79.2398 32.3027C79.0316 33.552 79.2101 33.9387 80.3106 34.5931C80.0727 35.0988 79.4183 35.3367 79.448 35.9911C78.8829 36.2885 78.288 36.5562 77.6039 36.5562C77.3956 36.2291 77.009 36.1696 76.8008 35.8424C76.3248 35.0987 76.6818 34.4444 76.9792 33.79C77.0387 33.7602 77.0387 33.7305 77.0387 33.671C77.0982 33.6115 77.1279 33.552 77.1874 33.4925C77.4254 33.3736 77.5741 33.1951 77.6634 32.9274C77.7823 32.9274 77.8716 32.8679 77.9013 32.7192L77.9311 32.6894C78.1393 32.6597 78.3177 32.511 78.407 32.3027Z" fill="#982176"/>
<path id="Vector_19" d="M95.5995 26.3538C95.1236 24.9855 95.9862 22.8439 97.4734 21.8921C97.295 22.7844 96.938 23.647 97.7114 24.3609C97.9791 24.5989 98.2765 24.6286 98.6037 24.5989C98.5145 25.2235 98.3955 25.8481 98.0981 26.3836C97.6519 27.1867 96.7001 27.2164 95.6887 26.4728C95.659 26.3836 95.6292 26.3538 95.5995 26.3538Z" fill="#982176"/>
<path id="Vector_20" d="M77.6042 36.5565C78.2884 36.5565 78.8535 36.2888 79.4484 35.9913C80.5787 35.6344 81.709 35.3072 82.7798 34.8015C83.2855 34.861 83.7614 34.9502 83.8804 35.5749C81.59 36.4077 79.3294 37.2108 76.9796 37.895C76.5037 37.8057 75.998 37.776 75.9683 37.1216C76.3847 36.9729 76.8011 36.8539 77.2175 36.7052C77.396 36.7349 77.4852 36.6159 77.6042 36.5565Z" fill="#102C57"/>
<path id="Vector_21" d="M102.917 103.244C102.768 102.917 102.619 102.59 102.798 102.233C103.72 101.995 104.642 101.757 105.564 101.519C106.635 101.251 107.765 101.103 108.806 100.656C108.836 100.686 108.866 100.716 108.896 100.686C109.163 101.043 109.104 101.4 109.015 101.787C106.992 102.263 104.969 102.739 102.917 103.244Z" fill="#102C57"/>
<path id="Vector_22" d="M93.5768 105.921C93.3984 105.416 93.6958 105.088 93.9933 104.731C95.8672 104.226 97.6816 103.542 99.5853 103.125C99.853 103.452 99.8827 103.809 99.615 104.166C97.5924 104.731 95.5995 105.326 93.5768 105.921Z" fill="#102C57"/>
<path id="Vector_23" d="M160.086 85.7244C159.819 86.0218 159.521 86.1111 159.105 85.9624C158.658 85.8136 158.183 85.8434 157.736 85.7541C157.439 85.6946 157.171 85.5162 157.201 85.1592C157.231 84.7726 157.528 84.6238 157.885 84.6536C158.361 84.6833 158.867 84.7726 159.343 84.8321C159.729 85.0105 160.146 85.1593 160.086 85.7244Z" fill="#102C57"/>
<path id="Vector_24" d="M133.554 46.2235C133.584 46.3127 133.614 46.3722 133.643 46.4614C133.643 46.6994 133.703 46.8779 133.941 46.9968C134 47.0861 134.03 47.1753 134.089 47.2645C134.119 47.324 134.149 47.3538 134.179 47.4133C134.208 47.5025 134.208 47.562 134.238 47.6512C134.238 47.7999 134.238 47.9784 134.446 48.0082C134.476 48.0676 134.506 48.1271 134.536 48.1569C134.952 48.9005 134.922 49.8523 135.547 50.5365C135.577 50.5662 135.606 50.596 135.577 50.6257C135.577 50.7744 135.577 50.9231 135.755 50.9826C135.785 51.0421 135.815 51.1016 135.844 51.1611C135.785 52.0237 136.32 52.6483 136.677 53.3622C136.707 53.4515 136.737 53.5109 136.737 53.6002C136.737 53.9274 136.767 54.2546 137.094 54.433C137.242 54.4925 137.302 54.5818 137.272 54.7305C137.153 55.1469 137.213 55.5038 137.599 55.7418C137.748 55.8013 137.778 55.9203 137.748 56.069C137.778 56.9316 138.135 57.6752 138.521 58.4188C138.581 58.4486 138.581 58.4783 138.581 58.5378C138.67 58.9542 138.343 59.4897 138.968 59.7276C138.997 59.7574 138.997 59.8168 139.027 59.8466C137.391 60.7389 135.874 61.8097 134.565 63.1185C131.472 66.2715 129.539 70.0491 128.438 74.3026C127.694 77.1878 127.308 80.1028 127.129 83.0773C127.099 83.464 126.98 83.6424 126.564 83.6722C123.411 83.8506 120.288 84.4158 117.194 85.0404C115.767 85.3379 114.339 85.6056 112.971 86.1707C112.703 86.2897 112.435 86.4384 112.108 86.3492C111.751 85.3676 111.424 84.386 111.067 83.4045C111.632 82.7798 112.138 82.0957 112.554 81.3818C116.153 75.1652 114.25 67.0746 109.134 62.3452C105.178 58.6865 100.448 56.8721 95.0941 56.5747C94.8858 56.4557 94.6776 56.2772 94.6479 56.0095C94.4397 54.6115 94.2314 53.2135 94.0232 51.8155C93.9935 51.756 93.9935 51.6965 93.9637 51.637C93.934 51.4883 93.9043 51.3396 93.8745 51.2206C96.0756 50.5067 98.247 49.8226 100.448 49.079C102.263 48.4841 104.107 47.9189 105.862 47.205C107.587 46.5209 109.282 45.7773 111.008 45.1527C113.655 44.1711 116.183 42.9515 118.771 41.851C121.537 40.6909 124.184 39.2929 126.891 38.0139C127.337 37.8057 127.724 37.4785 128.26 37.5082C129.866 39.5011 131.293 41.6428 132.364 43.9629C132.305 44.5578 132.751 44.885 133.108 45.2419C133.227 45.3014 133.257 45.3906 133.257 45.5096C133.227 45.7773 133.138 46.1342 133.554 46.2235Z" fill="#F7CADF"/>
<path id="Vector_25" d="M140.901 128.081C139.176 128.23 137.48 127.843 135.785 127.576C134.089 127.308 133.554 125.969 134.357 124.155C135.428 121.686 136.469 119.217 137.242 116.6C137.45 115.856 137.778 115.172 137.867 114.399C137.926 113.804 137.718 113.417 137.183 113.149C136.32 112.703 135.368 112.435 134.476 112.138C132.186 111.365 131.085 109.699 130.669 107.468C129.984 103.988 131.501 100.419 134.506 98.6636C136.885 97.2656 139.503 97.0276 142.18 97.4738C144.589 97.8605 146.79 98.7826 148.545 100.567C150.479 102.53 150.776 105.416 149.378 107.795C148.278 109.699 146.701 111.127 144.976 112.465C144.024 113.209 143.875 113.566 144.202 114.666C145.006 117.492 146.166 120.199 147.534 122.816C147.831 123.382 147.98 123.976 148.099 124.571C148.307 125.731 147.683 126.624 146.195 127.189C144.47 127.814 142.745 128.23 140.901 128.081ZM131.858 105.594C131.858 106.635 132.007 107.498 132.394 108.271C132.84 109.164 133.465 109.848 134.446 110.175C134.833 110.294 135.22 110.353 135.368 109.877C135.517 109.431 135.16 109.282 134.773 109.223C134.357 109.164 134.06 108.896 133.792 108.598C133.286 108.003 132.989 107.29 132.87 106.516C132.691 105.237 132.959 104.077 133.524 102.947C133.673 102.649 133.881 102.292 133.465 102.055C133.048 101.817 132.84 102.144 132.662 102.471C132.156 103.512 131.888 104.613 131.858 105.594ZM138.224 126.237C138.759 126.237 139.057 126.118 139.057 125.821C139.057 125.345 138.7 125.315 138.343 125.285C137.123 125.196 136.885 124.78 137.272 123.619C137.688 122.489 138.075 121.329 138.462 120.199C138.581 119.872 138.61 119.515 138.194 119.396C137.837 119.277 137.688 119.544 137.569 119.872C137.123 121.151 136.647 122.43 136.261 123.709C135.785 125.374 136.737 126.088 138.224 126.237Z" fill="#102C57"/>
<path id="Vector_26" d="M131.085 36.0804C131.144 35.8127 131.382 35.7234 131.62 35.6045C133.792 34.4444 135.993 33.2844 138.164 32.1243C138.908 31.7376 139.176 31.8864 139.295 32.6895C139.741 36.0506 141.436 38.5492 144.619 39.739C146.939 40.6016 149.2 39.9175 151.252 38.6979C151.43 38.579 151.549 38.341 151.817 38.46C152.115 38.579 152.055 38.8467 152.085 39.0846C152.501 42.1186 152.412 45.1526 152.352 48.1865C152.323 49.7035 152.382 51.2205 152.144 52.678C151.877 54.314 151.877 56.0094 151.549 57.6454C151.401 58.2998 151.46 59.0136 151.43 59.7275C148.902 58.5675 146.225 58.2403 143.459 58.508C142.923 58.5675 142.447 58.6864 141.942 58.8352C141.734 58.6864 141.704 58.4782 141.644 58.27C141.109 56.4258 140.425 54.6411 139.77 52.797C139.354 51.5774 138.67 50.4174 138.372 49.1681C138.164 48.5435 138.105 47.8296 137.54 47.3537C137.421 47.2644 137.361 47.1455 137.361 46.967C137.302 46.6993 137.302 46.4018 136.945 46.3126C136.261 44.6171 135.309 43.0704 134.446 41.4642C133.465 39.5903 132.186 37.8948 131.085 36.0804Z" fill="#F7CADF"/>
<path id="Vector_27" d="M148.04 84.0589C146.79 84.1184 145.571 83.8506 144.351 83.7912C142.775 83.7317 141.198 83.6127 139.622 83.5234C137.272 83.3747 134.922 83.3747 132.572 83.4045C132.067 83.4045 131.977 83.1963 132.007 82.7798C132.305 80.2515 132.572 77.7232 133.137 75.2247C133.584 73.202 134.178 71.2091 135.16 69.3649C136.29 67.3125 137.807 65.6766 140.008 64.7545C140.365 66.7176 140.217 68.7105 140.008 70.6737C139.919 71.0009 139.622 71.2389 139.711 71.6255C139.443 72.7558 139.086 73.8266 138.372 74.7785C138.224 75.1354 138.045 75.4924 137.778 75.7898C137.272 76.5632 136.647 77.2176 135.963 77.8125C135.338 78.3181 134.625 78.675 133.97 79.0915C133.346 79.5079 133.197 80.2813 133.524 80.9357C133.911 81.6198 134.595 81.9767 135.249 81.709C137.986 80.5192 139.919 78.4668 141.228 75.7898C141.258 75.7303 141.287 75.7006 141.317 75.6411C142.091 74.3621 142.537 72.9938 142.804 71.5363C143.132 70.9711 143.221 70.3763 143.161 69.7516C143.072 69.3649 143.132 68.9782 143.221 68.6213C143.221 68.4726 143.221 68.3239 143.221 68.1751C143.161 67.0448 143.102 65.9145 143.072 64.7545C143.072 64.6355 143.042 64.5165 143.042 64.3975C143.042 64.3083 143.042 64.1893 143.042 64.1001C145.362 64.1596 147.474 64.8437 149.319 66.3012C149.735 66.6284 150.151 66.9853 150.449 67.4613C150.092 67.6397 150.003 68.0264 150.003 68.3536C149.973 70.3465 149.556 72.2502 149.229 74.1836C149.021 75.4924 148.813 76.8011 148.694 78.1396C148.486 80.1028 147.95 82.0362 148.04 84.0589Z" fill="#F7CADF"/>
<path id="Vector_28" d="M143.281 68.6212C143.162 69.0079 143.132 69.3648 143.221 69.7515C143.073 70.0787 142.894 70.3166 142.478 70.4356C141.675 70.7033 140.871 70.7925 140.039 70.6736C140.247 68.7104 140.396 66.7175 140.039 64.7544C140.009 63.0589 139.533 61.4527 138.998 59.8465C138.968 59.8167 138.968 59.7572 138.938 59.7275C138.938 59.2813 138.76 58.9244 138.551 58.5377C138.581 58.4782 138.551 58.4485 138.492 58.4187C138.373 57.5859 138.075 56.8125 137.718 56.0689C137.748 55.9201 137.718 55.8012 137.57 55.7417C137.6 55.355 137.391 55.0575 137.243 54.7304C137.272 54.5816 137.213 54.4924 137.064 54.4329C137.034 54.1057 136.975 53.8083 136.707 53.6001C136.677 53.5108 136.648 53.4513 136.648 53.3621C136.499 52.5887 136.202 51.8451 135.815 51.161C135.785 51.1015 135.755 51.042 135.726 50.9825C135.785 50.804 135.696 50.7148 135.547 50.6256C135.577 50.5958 135.577 50.5661 135.517 50.5363C135.279 49.9117 135.19 49.3465 135.904 48.9599C135.993 48.9004 135.993 48.7516 136.083 48.6327C136.499 48.0675 136.915 47.4726 137.332 46.9075C137.332 47.0562 137.391 47.2049 137.51 47.2942C137.689 47.9485 137.897 48.5732 138.343 49.1086C138.67 50.3876 139.325 51.5179 139.741 52.7375C140.366 54.5519 141.08 56.3366 141.615 58.2105C141.675 58.4187 141.734 58.6567 141.913 58.7756C141.734 59.5193 142.21 60.1439 142.329 60.8578C142.478 61.7501 142.745 62.6425 142.805 63.5348C142.805 63.7133 142.954 63.8918 143.013 64.0702C143.013 64.1595 143.013 64.2784 143.013 64.3677C142.983 64.4866 142.954 64.6056 143.043 64.7246C143.102 65.8549 143.162 66.9852 143.192 68.1453C143.221 68.3237 143.192 68.4725 143.281 68.6212Z" fill="#982176"/>
<path id="Vector_29" d="M111.037 83.4341C111.394 84.4157 111.721 85.3973 112.078 86.3789C111.216 86.944 110.323 87.5389 109.461 88.1041C109.044 87.4199 108.955 86.5573 108.479 85.903C108.568 85.4865 108.449 85.1593 108.063 84.9511C107.914 83.7018 107.289 82.631 106.665 81.5602C106.367 80.3704 105.683 79.3591 105.148 78.2883C104.374 76.6821 103.571 75.0759 102.53 73.5886C102.56 73.4101 102.62 73.2614 102.768 73.1722C103.423 72.726 103.869 72.0716 104.226 71.3578C104.315 71.1793 104.374 70.9413 104.642 70.8818C106.1 73.4101 107.527 75.9979 108.806 78.6155C109.282 79.6565 109.729 80.7274 110.204 81.7684C110.294 81.9766 110.383 82.2443 110.621 82.3336C110.532 82.75 110.68 83.1367 111.037 83.4341Z" fill="#982176"/>
<path id="Vector_30" d="M108.479 85.8733C108.985 86.5277 109.044 87.3903 109.46 88.0744C108.122 89.3832 108.092 91.0489 108.152 92.7443C108.092 92.7443 108.062 92.7443 108.033 92.6848C107.914 92.5956 107.854 92.6551 107.795 92.7443C107.646 92.8931 107.468 92.8931 107.289 92.8931C106.873 92.9823 106.397 92.7741 105.98 93.012C105.028 93.5475 103.928 93.5177 102.887 93.7854C102.262 93.9341 101.578 93.9341 100.983 94.2018C100.775 94.3506 100.567 94.3803 100.299 94.3208C100.15 94.2911 100.002 94.2911 99.8529 94.2613C99.7637 94.2018 99.7339 94.1126 99.7339 93.9936C99.7339 93.8449 99.7042 93.6962 99.5257 93.6664C99.377 93.5177 99.258 93.3392 99.2877 93.1013C99.2877 92.9228 99.258 92.8038 99.0498 92.7741C98.9308 92.6551 98.8118 92.5361 98.8416 92.3577C98.8416 92.2089 98.7821 92.0602 98.6036 92.0305C98.1872 91.4653 97.8302 90.8704 97.5923 90.1863C101.578 89.6211 105.237 88.2826 108.479 85.8733Z" fill="#F7CADF"/>
<path id="Vector_31" d="M164.34 124.452C164.161 125.345 164.042 126.148 163.864 126.951C163.09 130.253 162.347 133.554 160.77 136.588C160.354 137.362 159.848 138.046 159.164 138.581C158.926 138.76 158.658 138.908 158.361 138.968C158.064 139.057 157.826 138.879 157.677 138.641C157.528 138.373 157.677 138.135 157.885 138.016C159.491 137.153 160.056 135.577 160.651 134.03C161.752 131.204 162.406 128.26 163.001 125.315C163.061 124.988 163.15 124.631 163.269 124.304C163.358 123.976 163.566 123.768 163.923 123.857C164.28 123.947 164.369 124.214 164.34 124.452Z" fill="#102C57"/>
<path id="Vector_32" d="M169.248 94.856C169.218 98.0685 168.861 101.281 168.385 104.434C168.325 104.791 168.236 105.177 167.79 105.118C167.314 105.059 167.284 104.672 167.344 104.255C167.909 100.27 168.087 96.2838 168.147 92.2682C168.147 92.1493 168.117 92.0303 168.147 91.9113C168.206 91.5841 168.325 91.3164 168.682 91.3164C169.069 91.3164 169.248 91.5841 169.277 91.941C169.277 92.9226 169.248 93.8745 169.248 94.856Z" fill="#102C57"/>
<path id="Vector_33" d="M152.174 84.4753C151.907 83.9696 152.323 83.5532 152.383 83.107C152.769 80.2515 153.186 77.396 153.572 74.5405C154.227 75.2544 154.019 76.1765 154.256 77.0093C154.286 77.1581 154.286 77.3068 154.286 77.4555C154.197 77.8422 154.078 78.2289 154.019 78.6156C153.721 80.668 153.453 82.7203 153.186 84.7727C152.829 84.8025 152.442 84.862 152.174 84.4753Z" fill="#102C57"/>
<path id="Vector_34" d="M167.909 107.617C167.909 108.42 167.582 109.163 167.463 109.937C167.255 111.127 166.987 112.316 166.749 113.476C166.69 113.804 166.541 114.131 166.125 114.071C165.679 114.012 165.589 113.655 165.649 113.298C165.857 112.168 166.095 111.008 166.303 109.877C166.452 109.044 166.63 108.241 166.809 107.408C166.898 107.022 167.106 106.843 167.493 106.873C167.939 106.933 167.939 107.289 167.909 107.617Z" fill="#102C57"/>
<path id="Vector_35" d="M108.569 97.206C108.36 96.6409 108.003 96.5814 107.468 96.7599C105.535 97.325 103.542 97.6225 101.638 98.2471C101.192 97.206 101.222 97.2358 102.322 97.0573C103.75 96.8193 105.178 96.5516 106.546 96.165C106.724 96.1352 106.933 96.1352 107.141 96.1055C107.557 95.9865 107.974 95.8675 108.42 95.7485C108.539 96.2245 108.658 96.7004 108.569 97.206Z" fill="#F7CADF"/>
<path id="Vector_36" d="M108.419 95.7485C108.003 95.8675 107.587 95.9865 107.14 96.1055C107.111 95.808 107.17 95.3321 107.021 95.2726C106.218 94.8562 106.308 93.9638 105.891 93.3689C106.367 93.131 106.902 93.1905 107.289 92.893C107.468 92.9228 107.646 92.893 107.795 92.7443C107.884 92.8038 107.973 92.8038 108.033 92.6848C108.062 92.7146 108.092 92.7443 108.152 92.7443C108.33 93.7556 108.568 94.7372 108.419 95.7485Z" fill="#982176"/>
<path id="Vector_37" d="M164.28 119.366C164.28 118.801 164.429 118.295 164.578 117.819C164.667 117.492 164.816 117.224 165.232 117.284C165.708 117.373 165.708 117.73 165.649 118.087C165.56 118.563 165.441 119.039 165.322 119.515C165.232 119.842 165.113 120.169 164.697 120.109C164.251 120.05 164.251 119.663 164.28 119.366Z" fill="#102C57"/>
<path id="Vector_38" d="M108.747 99.2584C108.39 99.0799 108.509 98.8122 108.657 98.5742C108.806 98.7824 108.836 99.0204 108.747 99.2584Z" fill="#F7CADF"/>
<path id="Vector_39" d="M108.836 100.627C108.836 100.329 108.836 100.062 108.806 99.7642C108.955 100.062 108.955 100.359 108.925 100.686C108.895 100.686 108.836 100.686 108.836 100.627Z" fill="#F7CADF"/>
<path id="Vector_40" d="M87.8062 52.7673C88.7878 53.8084 89.6504 54.9387 90.5427 56.069C90.6915 56.2475 90.7807 56.4557 90.751 56.6937C88.877 56.8721 87.1221 57.4075 85.5159 58.3594C82.6306 60.1143 80.8757 62.7913 79.5372 65.7956C79.0315 65.3196 78.4069 65.3494 77.7822 65.4089C77.693 65.4089 77.574 65.3791 77.4848 65.3494C76.8304 65.2304 76.1463 65.2602 75.4919 65.2602C75.016 65.2602 74.9862 65.4386 75.2837 65.7658C75.8191 66.3905 76.414 66.9556 76.8601 67.6397C77.3658 68.3834 78.2284 68.8593 78.4366 69.8111C77.9607 72.5774 77.9607 75.3436 78.4366 78.0802C79.1505 81.9767 80.9054 85.2487 84.2963 87.4795C87.1518 89.3832 90.3345 90.1863 93.7552 90.3053C94.0229 90.9002 93.7552 91.4653 93.6659 92.0305C93.547 92.8931 93.3982 93.7259 93.309 94.5885C93.2495 95.0644 92.9818 95.2727 92.5059 95.3024C91.911 95.3024 91.3161 95.3321 90.751 95.3321C90.513 95.3619 90.2453 95.3619 90.0073 95.3916C89.4719 95.5106 88.9068 95.5404 88.3714 95.4214C88.3119 95.4214 88.2821 95.4214 88.2226 95.4214C86.1405 95.6296 84.0584 95.5999 82.006 95.5999C78.5556 95.5999 75.1349 95.4511 71.6845 95.3024C70.7624 95.2727 69.8106 95.2727 68.8885 95.0644C68.5613 94.7075 68.2044 94.7967 67.8475 95.005C67.788 95.005 67.6987 95.005 67.6392 95.0347C67.3418 94.9752 67.0443 94.9455 66.7766 94.886C66.152 94.8562 65.5274 94.886 64.9325 94.8265C60.3518 94.3208 55.7711 93.9936 51.2201 93.25C50.3278 93.1013 49.4057 93.131 48.5431 92.8038C48.0969 92.4767 47.5912 92.7444 47.1153 92.6254C45.5091 92.5361 43.9326 92.2089 42.3562 91.9115C38.6976 91.2869 35.0687 90.692 31.4398 89.8591C31.3803 89.8294 31.3506 89.7996 31.2911 89.7996V89.8294C31.2614 89.5617 31.4101 89.294 31.1424 89.056C31.1424 88.9073 31.1126 88.7585 31.1126 88.6098C31.1424 88.4016 31.0234 88.3124 30.8449 88.2826C30.8449 88.1339 30.8449 87.9852 30.8152 87.8662C30.8152 87.6282 30.9044 87.3308 30.5177 87.2416C30.5177 87.0928 30.5177 86.9441 30.5177 86.8251C30.6367 86.3195 30.369 85.9328 30.1905 85.4866C30.1311 85.1892 30.1013 84.8917 30.0418 84.5943C29.8931 84.2968 30.0716 83.8507 29.6254 83.6722C29.6254 83.2855 29.5956 82.8988 29.5956 82.5121C29.5362 82.2147 29.5362 81.8875 29.3279 81.6198C29.2685 81.2629 29.2387 80.9357 29.1792 80.5787C29.09 80.192 29.1792 79.7459 28.7628 79.5079C28.7628 79.2105 28.7628 78.9428 28.7628 78.6453C28.6736 77.9612 28.5843 77.3068 28.4951 76.6524C28.4951 76.6227 28.3761 76.5929 28.3166 76.5632C28.3166 76.3252 28.3166 76.0873 28.2869 75.8493C28.3166 75.3734 28.1679 74.9272 27.9894 74.5108C27.9299 74.0051 27.9002 73.5292 27.8407 73.0235C27.6325 72.6369 27.7217 72.2204 27.692 71.804C27.692 71.566 27.7515 71.2983 27.3945 71.2091C27.3945 70.9712 27.3945 70.7332 27.3945 70.4952C27.3945 70.1086 27.3945 69.6921 27.3945 69.3054C28.5248 69.246 29.6849 69.4839 30.8152 69.127C31.4993 68.889 32.3024 68.9485 32.8973 68.4131C32.9866 68.4131 33.1055 68.4131 33.1948 68.4131C33.5814 68.1751 34.1466 68.1157 34.2358 67.5505C35.1877 67.4613 35.6041 66.7474 36.0205 66.0633C36.1098 65.8848 36.2287 65.6766 36.318 65.4981C36.5559 65.4684 36.6749 65.2899 36.7344 65.1114C37.2698 63.8919 37.6862 62.6426 37.7755 61.3041C37.7755 60.9174 37.7755 60.501 37.8052 60.1143C38.0432 59.3112 38.0432 58.5378 37.8052 57.7347C37.8052 57.586 37.8052 57.4373 37.8052 57.2885C38.0134 57.1398 37.9242 56.9019 37.9539 56.6937C38.1621 56.5449 38.3406 56.3962 38.5488 56.2475C38.9355 56.2475 39.3519 56.2475 39.7386 56.2475C40.274 56.2475 40.8094 56.2475 41.3448 56.2772C41.91 56.8126 42.6239 56.6639 43.308 56.6937C43.5162 56.6937 43.6947 56.6937 43.9029 56.6937C44.1409 56.9019 44.4086 56.9019 44.6465 56.6937C45.3009 56.6937 45.9255 56.9316 46.5799 56.8424C46.6692 56.9911 46.8179 56.9911 46.9666 56.9911C48.5133 57.2291 50.0601 57.1101 51.6068 57.1398C51.9042 57.1398 52.2017 57.1398 52.4991 57.1398C53.5997 57.3778 54.6705 57.3778 55.7711 57.1398C56.366 57.1398 56.9609 57.1398 57.5558 57.1398C59.4892 57.2588 61.4226 56.9316 63.356 56.9911C63.5642 56.9911 63.7427 56.9614 63.8022 56.7234C64.2781 56.7234 64.7837 56.7234 65.2597 56.6937C65.7356 56.6342 66.2115 56.8424 66.6577 56.5152C66.8659 56.5449 66.9849 56.7531 67.1038 56.8721C69.305 59.2814 71.5358 61.6908 73.7369 64.1001C73.9451 64.3381 74.1236 64.7247 74.5698 64.5463C74.4508 65.0222 74.6293 65.1709 75.1349 65.1709C75.9083 65.1412 76.7114 65.2007 77.4848 65.1412C77.8715 65.1114 78.4961 65.4089 78.5258 64.8437C78.5556 64.2488 77.8715 64.457 77.455 64.3678C77.9309 63.9216 77.3955 63.7134 77.2171 63.4755C75.6703 61.7205 74.0641 60.0251 72.5174 58.2404C71.8928 57.5265 71.1194 56.9316 70.6137 56.069C71.5358 56.0095 72.4579 55.8311 73.38 55.7121C75.7596 55.3551 78.1094 54.8792 80.489 54.433C82.9876 53.9274 85.4266 53.5407 87.8062 52.7673Z" fill="#F7CADF"/>
<path id="Vector_41" d="M92.2386 98.247C92.5658 98.247 92.5361 98.485 92.4468 98.6635C92.1494 99.4368 92.0899 100.299 91.733 101.073C90.9893 101.37 90.1862 101.549 89.4129 101.816C87.0035 102.649 84.5942 103.542 82.1849 104.434C80.7274 104.969 79.2996 105.535 77.8421 106.129C76.3549 106.724 74.8677 107.289 73.4102 107.944C71.6552 108.717 69.93 109.639 68.1453 110.383C66.5689 111.037 65.1114 111.87 63.5646 112.644C61.661 113.566 59.8168 114.607 57.9429 115.588C56.6043 116.302 55.2956 117.046 54.0463 117.849C52.5591 118.801 51.1016 119.782 49.7036 120.883C49.4656 121.091 49.1979 121.21 48.8707 121.061C48.5138 120.913 48.603 120.556 48.603 120.288C48.603 118.979 48.5732 117.67 48.603 116.362C48.6625 115.142 48.4245 114.042 47.7999 112.971C46.6101 110.948 44.7064 109.907 42.5648 109.461C41.256 109.193 39.8283 109.282 38.46 109.669C37.8949 109.848 37.4487 110.204 36.9133 110.353C36.5861 110.442 36.4374 110.413 36.4374 110.056C36.4374 109.461 36.2292 108.896 36.1994 108.331C36.0507 106.724 35.6343 105.178 35.3071 103.631C34.7122 100.746 33.7901 97.9199 32.9572 95.0941C32.7788 94.4695 32.3326 93.9043 32.4218 93.1904C32.5705 93.1904 32.7193 93.2202 32.868 93.2499C35.8722 93.8746 38.8764 94.41 41.8807 94.8561C43.4869 95.0941 45.0931 95.4213 46.6696 95.689C46.9075 95.9864 47.2347 95.8377 47.5024 95.808C47.6512 95.7485 47.7999 95.7485 47.9189 95.8377C48.0973 95.8972 48.3055 95.9567 48.484 96.0162C48.6922 96.0162 48.9302 95.9864 49.1384 96.0162C51.6965 96.3434 54.2248 96.7598 56.7828 97.0275C61.0363 97.4737 65.2898 97.8604 69.5433 98.1876C74.243 98.5445 78.913 98.6635 83.6126 98.6337C85.0404 98.6337 86.4681 98.485 87.8959 98.5742C88.6395 98.5148 89.3831 98.6932 90.1267 98.485C90.3944 98.3958 90.6919 98.366 90.9893 98.4255C91.4653 98.3363 91.8519 98.2768 92.2386 98.247Z" fill="#F7CADF"/>
<path id="Vector_42" d="M92.0601 61.0065C92.4468 62.1963 92.4765 63.4159 92.655 64.6354C92.8929 66.1821 93.0417 67.7289 93.2201 69.2756C93.2499 69.6028 93.2796 69.9597 93.5176 70.2572C93.4581 70.4654 93.3986 70.6736 93.3689 70.8818C93.9637 75.4923 94.2315 80.1027 94.1125 84.8024C93.5473 83.9993 93.0119 83.2259 92.4468 82.4228C90.8405 80.1622 89.2343 77.9313 87.5091 75.76C87.4199 75.641 87.2712 75.6112 87.1522 75.522C87.1224 75.2543 87.0927 74.9866 86.7655 74.9271C86.4978 74.5702 86.2598 74.1835 85.9921 73.8563C85.0403 72.607 84.0587 71.3875 83.0771 70.1382C83.0771 69.1864 83.5233 68.3535 83.8803 67.4909C84.8916 65.0221 86.4383 63.0589 88.8774 61.8394C89.8887 61.3337 90.9298 60.947 92.0601 61.0065Z" fill="#F7CADF"/>
<path id="Vector_43" d="M102.53 73.559C103.571 75.0462 104.375 76.6525 105.148 78.2587C105.683 79.3295 106.367 80.3408 106.665 81.5306C105.416 82.7204 104.018 83.702 102.411 84.3861C101.311 84.862 100.21 85.3379 98.9907 85.4272C98.4553 85.4569 97.9794 85.8733 97.4142 85.7246C97.3547 83.9697 97.325 82.2147 97.2655 80.4598C97.1465 76.355 96.7598 72.28 96.2542 68.2049C96.0757 66.8367 95.8972 65.4684 95.7485 64.1001C95.7188 63.8622 95.6593 63.6242 95.8675 63.2375C98.0686 66.2715 100.032 69.3352 101.995 72.3989C101.935 72.9046 102.471 73.1128 102.53 73.559Z" fill="#F7CADF"/>
<path id="Vector_44" d="M98.4253 61.4231C99.6151 61.5123 100.745 61.9585 101.786 62.4642C103.512 63.297 105.118 64.3678 106.456 65.7956C108.003 67.4315 108.985 69.3947 109.49 71.5363C109.877 73.202 109.847 74.957 109.52 76.6822C109.401 77.3366 109.044 77.9612 108.776 78.6156C107.497 75.9683 106.07 73.4103 104.612 70.8819C104.434 70.525 104.434 70.0491 103.958 69.9004C102.352 67.1936 100.567 64.6653 98.7822 62.0775C98.693 61.8395 98.574 61.6313 98.4253 61.4231Z" fill="#F7CADF"/>
<path id="Vector_45" d="M110.621 82.304C114.815 76.9202 113.685 68.9188 109.342 64.1596C106.338 60.8282 102.53 58.9245 98.1579 58.0619C97.3845 57.9132 96.6111 57.7942 95.8378 57.6753C95.3619 57.4671 95.0644 57.1399 95.0347 56.5747C100.389 56.8722 105.118 58.6866 109.074 62.3452C114.19 67.0746 116.094 75.1652 112.495 81.3819C112.078 82.1255 111.573 82.7799 111.008 83.4045C110.68 83.1368 110.532 82.7501 110.621 82.304Z" fill="#102C57"/>
<path id="Vector_46" d="M124.72 33.3737C121.953 34.861 119.098 36.14 116.213 37.3893C109.907 40.1556 103.422 42.4757 96.8189 44.4686C95.3912 44.885 93.9634 45.2717 92.5357 45.6881C92.2382 45.3907 92.1787 45.0337 92.1787 44.647C98.7523 42.8921 105.207 40.7207 111.543 38.1627C115.737 36.4672 119.841 34.5933 123.887 32.6301C124.363 32.7194 124.72 32.8978 124.72 33.3737Z" fill="#102C57"/>
<path id="Vector_47" d="M79.2996 70.8519C79.0319 73.7669 79.0616 76.6818 79.8647 79.5373C81.1438 84.0586 84.148 86.8843 88.5205 88.3121C90.0375 88.8177 91.6139 89.1747 93.2201 89.1747C93.4581 89.5019 93.934 89.7398 93.7258 90.2752C90.3349 90.1562 87.1522 89.3531 84.267 87.4495C80.8761 85.2186 79.0914 81.9467 78.4072 78.0501C77.9016 75.3136 77.9313 72.5473 78.4072 69.7811C79.1509 69.7513 79.1509 70.3759 79.2996 70.8519Z" fill="#102C57"/>
<path id="Vector_48" d="M114.785 25.9671C113.506 27.0082 112.048 27.8113 110.621 28.6442C104.225 32.392 97.5329 35.5449 90.5131 37.984C90.3049 38.0435 90.0967 38.103 89.8587 38.1625C89.5315 37.9543 89.3531 37.6568 89.472 37.2404C97.057 34.6229 104.315 31.2319 111.186 27.0379C112.048 26.5025 112.911 25.9671 113.774 25.4317C114.249 25.402 114.666 25.4317 114.785 25.9671Z" fill="#102C57"/>
<path id="Vector_49" d="M90.6324 85.3081C89.74 85.3973 88.9964 84.8917 88.2825 84.5347C86.7655 83.7316 85.3973 82.6608 84.4752 81.1438C83.7316 79.8945 83.1664 78.556 82.9582 77.0985C82.869 76.4144 82.4228 75.76 82.869 75.0461C83.1664 75.1651 83.2259 75.5518 83.5531 75.6113C83.6721 75.76 83.7911 75.9385 83.91 76.0872C84.9511 77.4852 85.9922 78.8832 87.0332 80.2812C88.2825 81.9172 89.5616 83.5532 90.6324 85.3081Z" fill="#F7CADF"/>
<path id="Vector_50" d="M90.9595 41.018C95.9566 39.62 100.835 37.8651 105.594 35.7829C105.772 35.6937 105.951 35.6342 106.159 35.5747C106.427 35.545 106.665 35.6045 106.754 35.9019C106.843 36.1399 106.754 36.3481 106.546 36.4671C106.278 36.6158 106.01 36.7348 105.743 36.8538C101.251 38.8467 96.611 40.4529 91.9113 41.8509C91.7626 41.8806 91.6139 41.9104 91.4651 41.9401C91.1082 41.7319 90.9892 41.4047 90.9595 41.018Z" fill="#102C57"/>
<path id="Vector_51" d="M91.5842 57.6157C89.5616 57.9429 87.5389 58.2701 85.784 59.4301C83.6721 60.8281 82.2741 62.7913 81.1141 64.9627C80.8166 65.5278 80.5489 66.093 80.2515 66.6879C79.7161 66.6284 79.6268 66.2119 79.5376 65.7955C80.8761 62.7913 82.6311 60.1143 85.5163 58.3593C87.1225 57.3777 88.8775 56.8423 90.7514 56.6936C91.2571 56.7531 91.6437 56.991 91.5842 57.6157Z" fill="#102C57"/>
<path id="Vector_52" d="M97.2654 89.1452C99.2583 88.818 101.221 88.4016 103.095 87.658C104.88 86.9738 106.457 85.9625 108.063 84.9512C108.449 85.1594 108.568 85.4866 108.479 85.903C105.237 88.2826 101.608 89.6509 97.6224 90.1863C97.3547 89.8888 96.849 89.6806 97.2654 89.1452Z" fill="#102C57"/>
<path id="Vector_53" d="M86.7358 39.2036C84.7726 39.8877 82.7797 40.4231 80.7571 40.8693C80.3109 40.78 79.9539 40.5718 79.835 40.0959C81.9468 39.501 84.029 38.9061 86.1409 38.3112C86.5573 38.1923 86.6168 38.5492 86.7655 38.7871C86.7655 38.9359 86.7358 39.0549 86.7358 39.2036Z" fill="#102C57"/>
<path id="Vector_54" d="M88.2528 42.8027C86.8548 43.2488 85.3973 43.4868 83.9696 43.814C83.5531 43.695 83.1665 43.5463 83.1367 43.0109C84.7132 42.6242 86.2897 42.2375 87.8661 41.8508C88.0446 42.1483 88.3123 42.416 88.2528 42.8027Z" fill="#102C57"/>
<path id="Vector_55" d="M98.5742 99.1097C98.0387 99.1394 97.5331 99.2584 97.0274 99.4963C96.5515 99.7343 96.0161 99.7938 95.451 99.7046C95.3915 99.1989 95.6592 98.7527 95.7187 98.2471C95.7484 97.9199 96.0161 97.8306 96.3135 97.8009C96.73 97.7711 97.1464 97.7117 97.5628 97.6819C97.8305 97.6522 98.0685 97.7117 98.1577 98.0091C98.3065 98.3958 98.5444 98.6932 98.5742 99.1097Z" fill="#F7CADF"/>
<path id="Vector_56" d="M89.3532 46.4613C88.5798 46.6695 87.8362 46.848 87.0629 47.0562C86.9141 47.0265 86.7357 46.967 86.5869 46.9372C86.5572 46.9075 86.5274 46.8777 86.4977 46.848C86.468 46.61 86.1705 46.4613 86.3192 46.1936C87.2711 45.9557 88.1932 45.7177 89.145 45.4797C89.4424 45.7474 89.5019 46.1044 89.3532 46.4613Z" fill="#102C57"/>
<path id="Vector_57" d="M97.3544 85.9624C97.3544 86.0219 97.3544 86.0814 97.3247 86.1409C97.3247 86.1111 97.2949 86.0516 97.2949 86.0219C97.2949 85.9922 97.3247 85.9624 97.3544 85.9624Z" fill="#F7CADF"/>
<path id="Vector_58" d="M95.4213 99.8533C95.3916 99.883 95.3916 99.9425 95.3618 99.9722C95.3618 99.9425 95.3916 99.9128 95.4213 99.8533Z" fill="#F7CADF"/>
<path id="Vector_59" d="M25.7292 91.7924C24.4204 91.2868 23.0521 91.1975 21.7136 90.8108C20.6131 90.4836 19.4828 90.2159 18.3525 89.9482C18.2037 89.9185 17.9955 89.859 17.9658 89.7698C17.8171 88.9072 17.1627 88.2528 17.1032 87.3605C17.0734 86.7656 17.2222 86.6168 17.8171 86.7656C19.8695 87.301 21.9218 87.8066 23.9742 88.3123C24.2419 88.3718 24.4799 88.4907 24.7773 88.4313C25.1343 88.6097 25.4912 88.8179 25.9076 88.58C25.9671 88.6097 25.9969 88.6097 26.0564 88.6395C26.0266 88.7287 26.0861 88.7882 26.1754 88.7882C26.2646 88.8179 26.3538 88.8179 26.4728 88.8477C26.562 88.9369 26.6513 88.9964 26.7702 88.9667L26.8 88.9964H26.8595C26.9487 89.0857 27.0677 89.0856 27.1867 89.0559C27.3354 89.0856 27.4841 89.1154 27.6328 89.1451C27.96 89.3534 28.317 89.3534 28.7037 89.3831C28.7929 89.4128 28.8821 89.4128 28.9714 89.4426C29.1201 89.5616 29.2688 89.5616 29.4175 89.5318C29.5068 89.5616 29.596 89.5616 29.6852 89.5913C30.1314 89.8888 30.6668 89.9185 31.1725 89.859V89.8293C31.1725 89.9482 31.2617 89.9185 31.3212 89.8888C34.9203 90.6919 38.5789 91.3165 42.2375 91.9411C43.814 92.2089 45.3905 92.5658 46.9967 92.655C46.967 93.3986 46.9075 94.1423 47.2942 94.8561C47.5024 95.2131 47.8296 95.4808 47.9485 95.8972C47.7998 95.808 47.6511 95.808 47.5024 95.8675C47.2347 95.808 46.967 95.6592 46.6695 95.7485C45.0633 95.4808 43.4868 95.1536 41.8806 94.9156C38.8466 94.4397 35.8424 93.9043 32.8679 93.3094C32.7192 93.2797 32.5705 93.2797 32.4218 93.2499C30.6668 92.774 28.8524 92.4766 27.0677 92.1494C27.0082 92.1494 26.9487 92.2089 26.8595 92.2386H26.8892C26.919 92.0899 26.8297 92.0899 26.7405 92.1196C26.5025 91.7924 26.1456 91.6437 25.7292 91.7924Z" fill="#982176"/>
<path id="Vector_60" d="M116.957 23.3795C118.622 22.1302 120.288 20.9107 121.954 19.6614C122.281 19.4235 122.578 19.3342 122.846 19.7209C123.114 20.0778 122.846 20.3158 122.578 20.524C121.061 21.6543 119.515 22.7846 117.968 23.9149C117.522 23.9744 117.135 23.8554 116.957 23.3795Z" fill="#102C57"/>
<path id="Vector_61" d="M121.001 30.0125C119.99 30.5479 118.979 31.1131 117.938 31.6485C117.581 31.8269 117.164 32.0649 116.897 31.589C116.599 31.0238 117.135 30.8751 117.492 30.6966C118.354 30.2207 119.247 29.7745 120.109 29.3284C120.585 29.3581 120.912 29.5366 121.001 30.0125Z" fill="#102C57"/>
<path id="Vector_62" d="M60.9767 51.1909C59.7571 51.2504 58.5673 51.2801 57.3478 51.3693C50.8634 51.8155 44.4088 51.7858 37.9244 51.3693C34.831 51.1611 31.7673 50.9827 28.6738 50.6257C25.6696 50.2985 22.6951 49.8524 19.7206 49.2872C19.5719 49.2575 19.4232 49.2277 19.2744 49.198C18.6498 49.0493 18.5011 49.3467 18.6498 49.8821C18.9175 50.8339 19.1852 51.756 19.3934 52.7376C20.1073 56.3367 20.8807 59.9359 21.5945 63.5647C22.2192 66.6582 22.8736 69.7516 23.2602 72.9046C23.5279 74.9272 23.7064 76.9201 24.0931 78.913C24.0634 79.032 24.0634 79.151 24.1526 79.2402C24.2418 79.9839 24.3013 80.7275 24.5393 81.4413C24.4798 81.6496 24.5393 81.8578 24.5988 82.066C24.8665 84.2374 25.5209 86.3492 25.8778 88.5206C25.4614 88.7586 25.1044 88.5504 24.7475 88.3719C24.3311 86.2303 23.8849 84.0589 23.4685 81.9173C23.0223 79.4484 22.6951 76.9796 22.4274 74.5108C22.1002 71.6851 21.535 68.889 21.0294 66.1228C20.494 63.2078 19.9586 60.2928 19.3042 57.4075C18.739 54.9982 18.4416 52.4997 17.6385 50.1201C17.1923 48.841 17.9657 47.919 19.3042 48.1569C22.0407 48.6328 24.807 49.079 27.5732 49.4062C36.6751 50.5068 45.8068 50.8934 54.9682 50.4473C56.7826 50.358 58.6268 50.239 60.4412 50.1498C60.8279 50.358 61.3038 50.5068 61.2444 51.1016C61.1849 51.1314 61.0956 51.1611 60.9767 51.1909Z" fill="#102C57"/>
<path id="Vector_63" d="M57.4369 47.1753C54.8491 47.3836 52.2316 47.3538 49.6438 47.3836C41.4342 47.443 33.2544 46.9671 25.1043 46.1938C21.4754 45.8368 17.8763 45.3609 14.2772 44.885C13.5633 44.7958 13.4443 44.9742 13.4741 45.6286C13.6526 48.4246 14.1285 51.1909 14.6044 53.9274C15.1101 56.7829 15.6455 59.6682 16.1809 62.5237C16.865 66.2418 17.6086 69.9599 18.2928 73.6482C18.8579 76.593 19.3933 79.5377 19.9287 82.4527C19.9882 82.8394 20.1072 83.3153 19.542 83.4045C19.0066 83.4937 18.9471 83.0476 18.8579 82.6609C18.025 78.1992 17.2517 73.7077 16.3891 69.246C15.3183 63.8622 14.3069 58.4784 13.3551 53.0648C12.9089 50.5068 12.4033 47.9487 12.3735 45.3312C12.3735 45.0635 12.3735 44.7958 12.4033 44.5281C12.4925 43.9332 12.79 43.5762 13.4443 43.6655C14.6936 43.8439 15.9429 43.9926 17.1922 44.1711C20.2262 44.6173 23.2899 44.885 26.3536 45.2122C32.5405 45.8368 38.7274 46.1938 44.9441 46.3127C48.7514 46.3722 52.5588 46.3722 56.3661 46.1938C56.9015 46.3722 57.4072 46.521 57.4369 47.1753Z" fill="#102C57"/>
<path id="Vector_64" d="M54.3736 44.3199C50.8637 44.4388 47.3538 44.4091 43.8439 44.2306C39.6201 44.0224 35.3964 43.6952 31.2023 43.1895C28.0791 42.8029 24.9857 42.2675 21.8922 41.7915C21.4758 41.7321 21.0594 41.6131 21.1783 41.0479C21.2973 40.5423 21.7138 40.6612 22.1004 40.7207C26.235 41.5238 30.3992 42.0295 34.5635 42.5054C40.3637 43.1598 46.1937 43.368 52.0535 43.3085C52.3212 43.3085 52.5889 43.3085 52.8566 43.3085C53.5109 43.4275 54.0761 43.6952 54.3736 44.3199Z" fill="#102C57"/>
<path id="Vector_65" d="M64.8433 49.7631C67.1336 49.4954 69.424 49.2574 71.6846 48.9005C75.2837 48.3651 78.8531 47.7999 82.4224 46.9968C82.8686 47.1456 83.1363 47.443 83.285 47.8594C80.4593 48.5138 77.6038 49.079 74.7185 49.4954C71.7143 49.9118 68.7101 50.3282 65.7059 50.7149C65.2597 50.5662 64.8433 50.3282 64.8433 49.7631Z" fill="#102C57"/>
<path id="Vector_66" d="M61.1255 45.9558C66.0631 45.6286 70.971 45.0337 75.8492 44.3198C76.8902 44.1711 77.9313 43.9331 78.9724 43.7546C79.4185 43.8736 79.835 44.0521 79.835 44.6172C78.318 44.8849 76.8307 45.1824 75.3138 45.4203C71.3577 46.045 67.3422 46.4912 63.3563 46.7886C62.9102 46.8184 62.464 46.8184 62.0178 46.8481C61.5717 46.7589 61.1552 46.5506 61.1255 45.9558Z" fill="#102C57"/>
<path id="Vector_67" d="M58.1807 43.1894C59.6976 43.0704 61.2444 42.9514 62.7614 42.8027C66.4795 42.4458 70.1976 41.9699 73.8562 41.2857C74.4213 41.1965 74.9567 41.0775 75.5219 40.9883C76.0275 41.0478 76.5332 41.1668 76.6224 41.8211C70.8817 43.0704 65.022 43.7248 59.1622 44.1412C58.7458 43.9033 58.2996 43.7248 58.1807 43.1894Z" fill="#102C57"/>
<path id="Vector_68" d="M13.4443 85.2783C13.1171 83.6126 12.7602 81.9469 12.433 80.2812C11.6299 75.879 10.8565 71.4767 10.2022 67.0448C9.75598 63.981 9.39904 60.9173 8.98262 57.8536C8.32823 53.1242 7.9118 48.365 7.55487 43.6059C7.43589 42.2971 7.46563 40.9883 7.04921 39.7093C6.93023 39.3821 6.98972 38.9657 7.01946 38.6087C7.07895 37.9543 7.6441 37.5379 8.29849 37.6866C9.84522 38.0436 11.3622 38.4303 12.9089 38.8169C13.2659 38.9062 13.5038 39.1144 13.4146 39.5011C13.2956 39.9472 12.9387 39.9472 12.5817 39.858C11.273 39.5308 9.99394 39.2334 8.68517 38.8764C8.17951 38.7277 8.00104 38.8764 8.09027 39.4118C8.89338 44.8551 9.1016 50.3579 9.78573 55.8012C10.2914 59.9358 10.8565 64.0405 11.4812 68.1453C11.9868 71.4767 12.552 74.7784 13.1469 78.0801C13.5931 80.6381 14.1285 83.1665 14.6341 85.7245C14.1582 85.7245 13.7715 85.5758 13.4443 85.2783Z" fill="#102C57"/>
<path id="Vector_69" d="M98.5742 24.5692C98.604 24.5394 98.6337 24.5097 98.6635 24.4502C98.6932 24.5692 98.6635 24.5989 98.5742 24.5692Z" fill="#982176"/>
<path id="Vector_70" d="M147.891 34.504C146.404 34.4148 144.589 33.8794 143.608 31.8567C143.459 31.5295 143.34 31.1726 143.28 30.8157C143.221 30.429 143.34 30.1018 143.756 30.0423C144.143 29.9828 144.322 30.2802 144.351 30.6372C144.441 31.8865 145.244 32.5706 146.314 32.987C147.623 33.5224 148.962 33.5522 150.271 33.0465C150.717 32.868 151.103 32.6003 151.401 32.2434C151.639 31.946 151.906 31.6485 152.293 32.0352C152.65 32.3921 152.412 32.7193 152.144 32.987C151.163 34.0876 149.884 34.504 147.891 34.504Z" fill="#102C57"/>
<path id="Vector_71" d="M141.258 75.7898C139.949 78.4668 138.045 80.5192 135.279 81.709C134.625 82.0065 133.911 81.6495 133.554 80.9356C133.197 80.2813 133.376 79.5079 134 79.0915C134.655 78.6453 135.368 78.3181 135.993 77.8124C136.707 77.2175 137.302 76.5632 137.807 75.7898C138.968 76.3549 140.128 76.236 141.258 75.7898Z" fill="#982176"/>
<path id="Vector_72" d="M138.402 74.7784C139.116 73.8265 139.473 72.7557 139.741 71.6254C140.306 71.7741 140.841 71.8336 141.407 71.7741C141.912 71.7444 142.358 71.4767 142.864 71.5362C142.596 72.9937 142.15 74.3619 141.377 75.641C141.228 74.9866 140.871 74.8379 140.217 75.0163C139.8 75.1353 139.324 75.0758 138.878 75.0758C138.64 75.0758 138.432 75.0758 138.402 74.7784Z" fill="#982176"/>
<path id="Vector_73" d="M89.9478 95.3321C89.8884 96.1055 89.7396 96.8789 90.394 97.5035C90.5427 97.6522 90.7212 97.7712 90.9294 97.8902C91.1376 98.0092 91.2269 98.1282 91.0782 98.3661C90.7807 98.3066 90.513 98.3066 90.2155 98.4256C89.4719 98.3959 88.7283 98.3661 87.9847 98.5148C86.5569 98.4256 85.1292 98.5743 83.7014 98.5743C79.0018 98.6041 74.3021 98.4851 69.6321 98.1281C65.3786 97.801 61.1251 97.4143 56.8716 96.9681C54.3136 96.7004 51.7853 96.3137 49.2272 95.9568C49.019 95.927 48.781 95.9568 48.5728 95.9568C48.5133 95.8378 48.3051 95.6891 48.4241 95.5701C48.9 95.1239 48.5728 94.767 48.3646 94.3506C48.2159 94.0829 48.1564 93.7557 48.0672 93.4582C47.9779 93.1013 48.0077 92.7741 48.4836 92.7146C49.3462 93.0715 50.2683 93.012 51.1606 93.1608C55.7116 93.8746 60.2923 94.2316 64.873 94.7372C65.4976 94.7967 66.0925 94.767 66.7172 94.7967C66.8659 95.0347 66.7172 95.2727 66.6874 95.5106C66.5982 96.3137 67.3121 97.4143 68.0259 97.5927C68.2936 97.6522 68.5316 97.6522 68.6803 97.3845C68.7993 97.1466 68.7993 96.8789 68.5316 96.7301C67.7582 96.3732 67.7285 95.6296 67.5798 94.9455C67.6392 94.9455 67.7285 94.9455 67.788 94.9157C68.1152 95.0049 68.4721 95.0347 68.829 94.9752C69.7511 95.1834 70.703 95.1537 71.625 95.2132C75.0457 95.3321 78.4961 95.4809 81.9465 95.5106C84.0286 95.5106 86.1108 95.5404 88.1632 95.3321C88.2226 95.3321 88.2524 95.3321 88.3119 95.3321C88.877 95.4809 89.4124 95.4511 89.9478 95.3321Z" fill="#982176"/>
<path id="Vector_74" d="M64.8734 54.5521C64.8139 54.4926 64.7842 54.4628 64.7247 54.4033C64.6354 54.1951 64.5164 54.0167 64.2785 53.9572C64.219 53.8977 64.1595 53.8382 64.1298 53.7787C64.1 53.749 64.0703 53.7192 64.0108 53.6597C63.9513 53.6002 63.8918 53.5407 63.8323 53.511C63.8323 53.4218 63.7728 53.3623 63.6836 53.3623C63.7728 53.0946 64.0108 53.0946 64.219 53.0946C64.8436 53.0946 65.498 53.0648 66.1227 53.1541C66.6878 53.2433 67.015 53.1243 66.9853 52.4402C67.5802 52.7079 67.8181 53.273 68.2345 53.63C69.0971 54.4033 69.7218 55.3849 70.6439 56.0691C71.1495 56.9019 71.9229 57.4968 72.5475 58.2404C74.0943 59.9954 75.6708 61.7206 77.2472 63.4755C77.4554 63.6837 77.9611 63.9217 77.4852 64.3678C77.3662 64.3678 77.277 64.3381 77.158 64.3381C76.3846 64.1001 75.6113 64.1001 74.8081 64.3381C74.7487 64.3381 74.7189 64.3678 74.6892 64.3976C74.6297 64.3976 74.5999 64.4273 74.5999 64.4571C74.5702 64.4571 74.5404 64.4868 74.5404 64.5463C74.0943 64.7248 73.9158 64.3381 73.7076 64.1001C71.4767 61.6908 69.2756 59.2815 67.0745 56.8722C66.9555 56.7234 66.8365 56.545 66.6283 56.5152C66.4499 56.3962 66.4499 56.0988 66.1822 56.0393C66.1227 55.8013 65.9739 55.6526 65.736 55.5931C65.5575 55.147 65.2303 54.8198 64.8734 54.5521Z" fill="#982176"/>
<path id="Vector_75" d="M86.7656 74.9272C85.9922 75.0759 85.2189 74.9569 84.4455 74.9867C83.9993 74.9867 83.6721 75.1056 83.5829 75.5815C83.2557 75.5221 83.1665 75.1354 82.8988 75.0164C82.0064 73.5589 80.7869 72.3394 79.7458 71.0008C79.6268 70.8521 79.4781 70.8819 79.3294 70.8521C79.1807 70.3762 79.1807 69.7516 78.4073 69.7813C78.1991 68.8295 77.3365 68.3536 76.8308 67.6099C76.3846 66.9258 75.7898 66.3607 75.2543 65.736C74.9569 65.4088 74.9866 65.2304 75.4626 65.2304C76.1169 65.2304 76.8011 65.2006 77.4555 65.3196C77.5447 65.3493 77.6637 65.3791 77.7529 65.3791C78.3776 65.3196 79.0022 65.2898 79.5079 65.7658C79.5971 66.1822 79.6863 66.5986 80.2217 66.6581C80.3407 67.2827 80.8761 67.6397 81.2628 68.0859C81.8577 68.7997 82.3634 69.5434 83.0772 70.1382C84.0588 71.3875 85.0106 72.6071 85.9922 73.8563C86.2599 74.1835 86.5276 74.5702 86.7656 74.9272Z" fill="#982176"/>
<path id="Vector_76" d="M45.5393 118.146C45.5393 119.158 45.3013 120.11 44.7362 120.942C44.5279 121.24 44.29 121.627 43.8438 121.359C43.3976 121.091 43.6059 120.734 43.8141 120.407C44.3792 119.366 44.6767 118.295 44.3197 117.076C43.6951 115.083 41.9104 114.042 39.8878 114.518C39.4713 114.607 39.0549 114.666 38.6385 114.726C38.2815 114.756 37.9544 114.666 37.9246 114.28C37.8651 113.893 38.1031 113.714 38.4898 113.655C39.0847 113.566 39.6498 113.477 40.2447 113.387C43.1894 113.09 45.5393 115.202 45.5393 118.146Z" fill="#102C57"/>
<path id="Vector_77" d="M129.479 14.5453C129.449 14.6345 129.39 14.7832 129.301 14.8725C128.884 15.2889 128.438 15.6756 127.992 16.0325C127.784 16.211 127.516 16.211 127.337 16.0028C127.129 15.7648 127.099 15.4971 127.308 15.2592C127.754 14.8427 128.2 14.3966 128.676 14.0396C129.033 13.8314 129.479 14.0694 129.479 14.5453Z" fill="#102C57"/>
<path id="Vector_78" d="M111.543 34.3551C111.215 34.3551 111.067 34.2362 110.978 33.9982C110.888 33.79 110.948 33.5818 111.126 33.4628C111.602 33.1356 112.167 32.8976 112.732 32.7489C112.941 32.6894 113.089 32.8382 113.208 33.0166C113.327 33.2248 113.268 33.4331 113.119 33.552C112.643 33.9685 112.078 34.2064 111.543 34.3551Z" fill="#102C57"/>
<path id="Vector_79" d="M22.0405 101.103C22.0405 100.597 21.9215 100.18 22.4272 100.121C22.9328 100.061 23.0221 100.478 23.0816 100.835C23.2303 101.816 23.4088 102.798 23.5575 103.75C23.617 104.107 23.5277 104.404 23.1411 104.493C22.7544 104.553 22.6057 104.285 22.5462 103.988C22.3677 102.976 22.1892 101.965 22.0405 101.103Z" fill="#102C57"/>
<path id="Vector_80" d="M33.0463 60.8579C32.8381 62.7914 32.0647 65.0222 29.5661 66.2417C29.2984 66.3905 28.9712 66.5095 28.7333 66.2715C28.3466 65.8848 28.5548 65.5874 29.001 65.3792C31.7673 64.1299 32.6893 60.2333 31.4103 57.6158C31.2318 57.2886 31.0236 56.9911 30.8154 56.6639C30.6369 56.3665 30.6667 56.069 30.9344 55.8906C31.2318 55.6823 31.4995 55.8311 31.7078 56.0988C32.5704 57.3183 33.1058 58.6866 33.0463 60.8579Z" fill="#102C57"/>
<path id="Vector_81" d="M77.1877 64.3084C76.4144 64.3976 75.641 64.3976 74.8379 64.3084C75.6113 64.0704 76.3846 64.0704 77.1877 64.3084Z" fill="#F7CADF"/>
<path id="Vector_82" d="M74.7186 64.3677C74.7484 64.4569 74.6889 64.4569 74.6294 64.4569C74.6591 64.3974 74.6591 64.3677 74.7186 64.3677Z" fill="#F7CADF"/>
</g>
</g>
</g>
<defs>
<clipPath id="clip0_1_2554">
<rect width="176" height="141.972" fill="white"/>
</clipPath>
</defs>
</svg>
